<?xml version="1.0" encoding="UTF-8"?><svg id="Layer_2" xmlns="http://www.w3.org/2000/svg" viewBox="0 0 1294.91 718.57"><defs><style>.cls-1{opacity:.9;}.cls-2{fill:#4b7ff0;}</style></defs><g id="Layer_2-2"><g><g class="cls-1"><g><g><path class="cls-2" d="M46.86,344.75c-7.3,2.6-15.2,2.3-22.3-1-7-3.3-12.4-9.2-15-16.5s-2.3-15.2,1-22.3c3.1-6.6,8.5-11.7,15.2-14.5s14-3,20.8-.6c.6,.2,1,.9,.7,1.5-.2,.6-.9,1-1.5,.7-6.2-2.2-13-2-19.1,.6s-11.1,7.3-13.9,13.3c-3,6.5-3.4,13.7-.9,20.4,2.4,6.7,7.3,12.1,13.8,15.1s13.7,3.4,20.4,.9,12.1-7.3,15.1-13.8c2.8-6,3.3-12.9,1.3-19.3-2-6.3-6.2-11.7-11.8-15-.6-.3-.8-1.1-.4-1.7,.3-.6,1.1-.8,1.7-.4,6.2,3.7,10.8,9.5,12.9,16.4,2.2,7,1.6,14.4-1.5,21-3.3,7.3-9.2,12.6-16.5,15.2h0Z"/><path class="cls-2" d="M38.46,297.45c-.1,.1-.3,.1-.5,.1h-2c-.7,0-1.2-.5-1.3-1.2,0-.7,.5-1.2,1.2-1.3h2.3c.7,0,1.2,.6,1.1,1.3,0,.6-.3,1-.8,1.1Z"/><path class="cls-2" d="M16.66,313.75c-.2,.1-.5,.1-.7,0-.7-.2-1.1-.8-.9-1.5,1.8-7.4,7-13.3,14.2-15.9,.6-.2,1.3,.1,1.6,.7,.2,.6-.1,1.3-.7,1.6-6.3,2.3-11.1,7.6-12.6,14.1-.2,.5-.5,.8-.9,1h0Z"/><g><path class="cls-2" d="M45.06,291.35c-.3,.1-.6,.1-.9,0-.6-.3-.9-1-.6-1.6l8.9-19c.3-.6,1-.9,1.6-.6s.9,1,.6,1.6l-8.9,19c-.1,.2-.4,.5-.7,.6Z"/><path class="cls-2" d="M53.36,295.15c-.3,.1-.6,.1-.9,0-.6-.3-.9-1-.6-1.6l8.9-19c.3-.6,1-.9,1.6-.6s.9,1,.6,1.6l-8.9,19c-.2,.3-.4,.5-.7,.6Z"/><path class="cls-2" d="M64.26,276.25c-.9,.3-2,.3-2.9-.1l-1.9-.9c-.6-.3-.9-1-.6-1.6,.3-.6,1-.9,1.6-.6l1.9,.9c.3,.1,.7,.2,1,0,.3-.1,.6-.4,.7-.7,.1-.3,.2-.7,0-1-.1-.3-.4-.6-.7-.7l-8.4-4c-.3-.1-.7-.2-1,0-.3,.1-.6,.4-.7,.7-.1,.3-.2,.7,0,1,.1,.3,.4,.6,.7,.7l1.9,.9c.6,.3,.9,1,.6,1.6-.3,.6-1,.9-1.6,.6l-1.9-.9c-.9-.4-1.6-1.2-1.9-2.1-.3-.9-.3-2,.1-2.9,.4-.9,1.2-1.6,2.1-1.9,.9-.3,2-.3,2.9,.1l8.4,4c.9,.4,1.6,1.2,1.9,2.1s.3,2-.1,2.9-1.1,1.6-2.1,1.9Z"/><path class="cls-2" d="M63.96,271.35c-.3,.1-.7,.1-1.1-.1-.6-.4-.7-1.1-.3-1.7l1.3-2-5.7-2.7-.7,2.3c-.2,.6-.9,1-1.5,.8s-1-.9-.8-1.5l1.1-3.6c.1-.3,.3-.6,.7-.8,.3-.1,.7-.1,1,0l8.3,3.9c.3,.1,.6,.4,.7,.8,.1,.3,0,.7-.2,1l-2.1,3.2c-.3,.1-.5,.3-.7,.4h0Z"/></g><path class="cls-2" d="M45.16,340.15c-.6,.2-1.3-.1-1.5-.7-.3-.6,0-1.3,.6-1.6l1.2-.6c.6-.3,1.3-.1,1.6,.5s.1,1.3-.5,1.6c-.4,.4-.8,.6-1.4,.8,.1,0,0,0,0,0h0Z"/><path class="cls-2" d="M58.36,326.35c-.2,.1-.5,.1-.8,0-.6-.2-1-.9-.8-1.5,1.7-4.9,1.3-9.4,1.1-11.3-1-.1-2.7-.1-5,.4-3.3,.6-8.3,2.3-13.8,6.9-3.8,3.2-7.5,5.1-10.6,6.2-6.3,2.3-10.7,1.5-10.9,1.5-.4-.1-.7-.3-.9-.7-.2-.4-.1-.8,.1-1.1,.1-.1,2-3.1,6-5.8,3.6-2.5,9.8-5.3,18.5-4.6,9.7-6.4,17.5-5,17.9-5,.5,.1,.9,.5,1,.9,.1,.3,1.4,6.5-1,13.4-.2,.3-.4,.6-.8,.7Zm-38.2-.1c1,0,2.2-.1,3.6-.4,3.3-.6,8.3-2.3,13.8-6.9,.2-.1,.3-.3,.5-.4-5.2,.1-9.8,1.5-13.8,4.2-1.8,1.3-3.2,2.5-4.1,3.5h0Z"/><path class="cls-2" d="M47.36,332.15c-1.9,.7-3.9-.3-4.6-2.2s.3-3.9,2.2-4.6,3.9,.3,4.6,2.2-.4,4-2.2,4.6Zm-1.6-4.4c-.6,.2-.9,.9-.7,1.5s.9,.9,1.5,.7c.6-.2,.9-.9,.7-1.5s-.9-1-1.5-.7Z"/><circle class="cls-2" cx="50.76" cy="321.54" r="1.4"/><circle class="cls-2" cx="34.96" cy="335.85" r="1.4"/></g><path class="cls-2" d="M14.16,278.75c.2,.7-.1,1.5-.8,1.7s-1.5-.1-1.7-.8c-.2-.7,.1-1.5,.8-1.7,.7-.3,1.5,.1,1.7,.8Z"/><path class="cls-2" d="M76.16,317.95c.2,.7-.1,1.5-.8,1.7s-1.5-.1-1.7-.8c-.2-.7,.1-1.5,.8-1.7s1.5,.1,1.7,.8Z"/><g><path class="cls-2" d="M4.26,289.05h0c-.7,.2-1.3-.1-1.6-.7l-.3-.7c-.2-.6,.1-1.3,.8-1.5,.6-.2,1.3,.1,1.5,.8l.3,.7c.3,.5-.1,1.2-.7,1.4h0Z"/><path class="cls-2" d="M6.56,295.65h0c-.7,.2-1.3-.1-1.6-.7l-.3-.7c-.2-.6,.1-1.3,.8-1.5,.6-.2,1.3,.1,1.5,.8l.3,.7c.2,.5-.1,1.2-.7,1.4h0Z"/><path class="cls-2" d="M2.36,292.95h0l-.8,.3c-.6,.2-1.3-.1-1.5-.8-.2-.6,.1-1.3,.8-1.5l.7-.3c.6-.2,1.3,.1,1.5,.8,.2,.6-.1,1.3-.7,1.5Z"/><path class="cls-2" d="M8.96,290.75h0l-.8,.3c-.6,.2-1.3-.1-1.5-.8-.2-.6,.1-1.3,.8-1.5l.7-.3c.6-.2,1.3,.1,1.5,.8,.2,.5-.1,1.2-.7,1.5Z"/></g><g><path class="cls-2" d="M73.66,302.15h0c-.7,.2-1.3-.1-1.6-.7l-.3-.7c-.2-.6,.1-1.3,.8-1.5,.6-.2,1.3,.1,1.5,.8l.3,.7c.3,.4,0,1.1-.7,1.4h0Z"/><path class="cls-2" d="M75.96,308.75h0c-.7,.2-1.3-.1-1.6-.7l-.3-.7c-.2-.6,.1-1.3,.8-1.5,.6-.2,1.3,.1,1.5,.8l.3,.7c.3,.4-.1,1.1-.7,1.4h0Z"/><path class="cls-2" d="M71.76,306.05h0l-.8,.3c-.6,.2-1.3-.1-1.5-.8-.2-.6,.1-1.3,.8-1.5l.7-.3c.6-.2,1.3,.1,1.5,.8,.3,.6-.1,1.3-.7,1.5Z"/><path class="cls-2" d="M78.36,303.75h0l-.8,.3c-.6,.2-1.3-.1-1.5-.8-.2-.6,.1-1.3,.8-1.5l.7-.3c.6-.2,1.3,.1,1.5,.8,.3,.6-.1,1.3-.7,1.5Z"/></g></g></g><g class="cls-1"><g><path class="cls-2" d="M336.89,95.7c-.4,0-.8-.2-1.1-.5-7.6-8-20.4-10.3-29.8-10.7-10.4-.5-19,1-19.1,1-.6,.1-1.2-.1-1.6-.6-.3-.5-.4-1.2-.1-1.7l20-34.4c.2-.4,.6-.6,1-.7,.1,0,2.8-.7,6.9-1,.9-.1,1.6,.6,1.7,1.5s-.6,1.6-1.5,1.7c-2.6,.2-4.7,.5-5.7,.7l-18,31c3.5-.4,9.6-.9,16.5-.6,6.3,.3,12,1.3,17,2.8,4.9,1.5,9,3.7,12.3,6.4v-15.4c0-.9,.7-1.6,1.6-1.6s1.6,.7,1.6,1.6v18.9c0,.6-.4,1.2-1,1.5-.3,0-.5,.1-.7,.1h0Z"/><path class="cls-2" d="M336.89,95.7c-.3,0-.6-.1-.8-.2-10.1-6.3-22.8-7.1-31.7-6.6-9.7,.5-17.1,2.5-17.2,2.6-.8,.2-1.7-.3-1.9-1.1-.2-.8,.3-1.7,1.1-1.9,.3-.1,7.7-2.1,17.8-2.7,9.3-.5,22.7,.4,33.5,7.1,.7,.5,1,1.4,.5,2.2-.3,.3-.8,.6-1.3,.6Z"/><path class="cls-2" d="M286.79,97.7c-.6,0-1.2-.4-1.4-1-.3-.8,0-1.7,.8-2,.3-.1,7.1-3,16.9-4.7,9-1.6,22.4-2.4,34.4,2.6,.8,.3,1.2,1.2,.8,2-.3,.8-1.2,1.2-2,.8-21.8-9.1-48.6,2-48.9,2.1-.2,.2-.4,.2-.6,.2h0Z"/><path class="cls-2" d="M336.89,95.7c-.4,0-.8-.1-1.1-.4-.6-.6-.7-1.6-.1-2.2,3.7-3.9,8.7-6.9,15-8.9,4.9-1.6,10.6-2.5,17-2.8,6.9-.3,13,.2,16.5,.6l-18-31c-1-.2-3-.6-5.6-.7-.9-.1-1.5-.8-1.5-1.7,.1-.9,.8-1.5,1.7-1.5,4,.3,6.7,.9,6.8,1,.4,.1,.8,.4,1,.7l20,34.4c.3,.5,.3,1.2-.1,1.7-.3,.5-1,.8-1.6,.6-.1,0-8.7-1.5-19.1-1-9.4,.5-22.2,2.7-29.8,10.7-.3,.3-.7,.5-1.1,.5h0Z"/><path class="cls-2" d="M336.89,95.7c-.5,0-1-.3-1.3-.7-.5-.7-.2-1.7,.5-2.2,10.8-6.7,24.2-7.6,33.5-7.1,10,.5,17.5,2.6,17.8,2.7,.8,.2,1.3,1.1,1.1,1.9-.2,.8-1.1,1.3-1.9,1.1h0c-.1,0-7.5-2.1-17.2-2.6-8.9-.5-21.6,.3-31.7,6.6-.2,.2-.5,.3-.8,.3Z"/><path class="cls-2" d="M386.99,97.7c-.2,0-.4,0-.6-.1-.1,0-6.9-2.9-16.3-4.5-8.6-1.5-21.3-2.3-32.6,2.4-.8,.3-1.7,0-2-.8s0-1.7,.8-2c12-5,25.4-4.2,34.4-2.6,9.8,1.7,16.6,4.6,16.9,4.7,.8,.3,1.2,1.3,.8,2-.2,.6-.8,.9-1.4,.9h0Z"/></g><path class="cls-2" d="M351.99,50.7h-20.7c-.9,0-1.6-.7-1.6-1.6s.7-1.6,1.6-1.6h20.7c.9,0,1.6,.7,1.6,1.6s-.8,1.6-1.6,1.6Z"/><g><path class="cls-2" d="M342.89,21.6h-2.5c-.9,0-1.6-.7-1.6-1.6s.7-1.6,1.6-1.6h2.5c.8,0,1.5-.7,1.5-1.5s-.7-1.5-1.5-1.5h-12c-.8,0-1.5,.7-1.5,1.5s.7,1.5,1.5,1.5h2.5c.9,0,1.6,.7,1.6,1.6s-.7,1.6-1.6,1.6h-2.5c-2.6,0-4.6-2.1-4.6-4.6s2.1-4.6,4.6-4.6h12c2.6,0,4.6,2.1,4.6,4.6s-2,4.6-4.6,4.6Z"/><path class="cls-2" d="M356.79,70.5h-39.8c-2.6,0-5-1.4-6.1-3.5-1-2-.8-4.2,.5-6l18.3-25.4v-15.3c0-.9,.7-1.6,1.6-1.6s1.6,.7,1.6,1.6v15.7c0,.3-.1,.6-.3,.9l-18.6,25.8c-.8,1.2-.5,2.2-.2,2.8,.5,.9,1.6,1.8,3.3,1.8h39.8c1.7,0,2.8-1,3.3-1.8,.3-.5,.6-1.6-.2-2.8l-18.8-25.8c-.2-.3-.3-.6-.3-.9v-15.7c0-.9,.7-1.6,1.6-1.6s1.6,.7,1.6,1.6v15.2l18.3,25.4c1.3,1.8,1.5,4.1,.5,6-1.2,2.2-3.5,3.6-6.1,3.6h0Z"/></g><g><path class="cls-2" d="M374.08,28.2h-6.2c-.6,0-1.1-.3-1.4-.8l-3.1-5.4c-.3-.5-.3-1.1,0-1.6l3.1-5.4c.3-.5,.8-.8,1.4-.8h6.2c.6,0,1.1,.3,1.4,.8l3.1,5.4c.3,.5,.3,1.1,0,1.6l-3.1,5.4c-.3,.5-.8,.8-1.4,.8Zm-5.3-3.2h4.4l2.2-3.8-2.2-3.8h-4.4l-2.2,3.8,2.2,3.8Z"/><path class="cls-2" d="M358.68,17.1h-6.2c-.6,0-1.1-.3-1.4-.8l-3.1-5.4c-.3-.5-.3-1.1,0-1.6l3.1-5.4c.3-.5,.8-.8,1.4-.8h6.2c.6,0,1.1,.3,1.4,.8l3.1,5.4c.3,.5,.3,1.1,0,1.6l-3.1,5.4c-.3,.5-.8,.8-1.4,.8Zm-5.3-3.1h4.4l2.2-3.8-2.2-3.8h-4.4l-2.2,3.8,2.2,3.8Z"/><path class="cls-2" d="M367.89,17.4c-.4,0-.8-.1-1.1-.4l-6-5.7c-.6-.6-.7-1.6-.1-2.2,.6-.6,1.6-.7,2.2-.1l6,5.7c.6,.6,.7,1.6,.1,2.2-.3,.3-.7,.5-1.1,.5Z"/><path class="cls-2" d="M352.39,6.3c-.4,0-.8-.1-1.1-.4l-3.3-3.1c-.6-.6-.7-1.6-.1-2.2s1.6-.7,2.2-.1l3.3,3.1c.6,.6,.7,1.6,.1,2.2-.3,.3-.7,.5-1.1,.5Z"/><path class="cls-2" d="M374.08,17.4c-.3,0-.7-.1-.9-.3-.7-.5-.8-1.5-.3-2.2l4.3-5.7c.5-.7,1.5-.8,2.2-.3s.8,1.5,.3,2.2l-4.3,5.7c-.4,.4-.8,.6-1.3,.6h0Z"/><path class="cls-2" d="M378.39,33.9c-.5,0-.9-.2-1.3-.6l-4.3-5.7c-.5-.7-.4-1.7,.3-2.2s1.7-.4,2.2,.3l4.3,5.7c.5,.7,.4,1.7-.3,2.2-.3,.2-.6,.3-.9,.3h0Z"/><path class="cls-2" d="M354.89,44.1c-.3,0-.7-.1-1-.4-.7-.5-.8-1.5-.2-2.2l13-15.9c.5-.7,1.5-.8,2.2-.2,.7,.5,.8,1.5,.2,2.2l-13,15.9c-.3,.4-.7,.6-1.2,.6Z"/><path class="cls-2" d="M386.99,11.7h-2.9c-.9,0-1.6-.7-1.6-1.6s.7-1.6,1.6-1.6h2.9c.9,0,1.6,.7,1.6,1.6s-.7,1.6-1.6,1.6Z"/><path class="cls-2" d="M343.68,3.2h-2.9c-.9,0-1.6-.7-1.6-1.6s.7-1.6,1.6-1.6h2.9c.9,0,1.6,.7,1.6,1.6s-.7,1.6-1.6,1.6Z"/><path class="cls-2" d="M386.99,6.5h-7.2c-.9,0-1.6-.7-1.6-1.6s.7-1.6,1.6-1.6h7.2c.9,0,1.6,.7,1.6,1.6s-.7,1.6-1.6,1.6Z"/><path class="cls-2" d="M386.99,33.9h-3.5c-.9,0-1.6-.7-1.6-1.6s.7-1.6,1.6-1.6h3.5c.9,0,1.6,.7,1.6,1.6s-.7,1.6-1.6,1.6Z"/></g></g><g class="cls-1"><g><g><path class="cls-2" d="M1170.23,20.89c-.8-.3-1.3-1.2-1.1-2l1.2-5.4c.1-.5,.4-.9,.9-1.2,.5-.2,1-.3,1.5-.1l12.4,4.8c.5,.2,.9,.6,1,1.1,.2,.5,.1,1-.1,1.5l-2.7,4.8c-.5,.9-1.6,1.2-2.4,.7-.9-.5-1.2-1.6-.7-2.4l1.7-3.1-8.6-3.3-.8,3.4c-.2,1-1.2,1.6-2.1,1.3,0-.1-.1-.1-.2-.1h0Z"/><path class="cls-2" d="M1164.13,34.49c-.9-.3-1.4-1.4-1-2.3l2.7-7.1c.3-.9,1.4-1.4,2.3-1,.9,.3,1.4,1.4,1,2.3l-2.7,7.1c-.3,.9-1.4,1.4-2.3,1Z"/><path class="cls-2" d="M1155.43,75.79c-4.3-1.7-6.5-6.6-4.9-10.9l9.9-25.8c.3-.9,1.4-1.4,2.3-1,.9,.3,1.4,1.4,1,2.3l-9.9,25.8c-1,2.5,.3,5.4,2.8,6.3,2.5,1,5.4-.3,6.3-2.8l9.9-25.8c.3-.9,1.4-1.4,2.3-1,.9,.3,1.4,1.4,1,2.3l-9.8,25.8c-1.7,4.3-6.5,6.5-10.9,4.8h0Z"/><path class="cls-2" d="M1176.63,39.29c-.9-.3-1.4-1.4-1-2.3l2.7-7.1c.3-.9,1.4-1.4,2.3-1,.9,.3,1.4,1.4,1,2.3l-2.7,7.1c-.4,.9-1.4,1.3-2.3,1Z"/><path class="cls-2" d="M1179.43,32.29l-2.9-1.1c-.9-.3-1.4-1.4-1-2.3,.3-.9,1.4-1.4,2.3-1l2.9,1.1c1,.4,2.1-.1,2.5-1.1s-.1-2.1-1.1-2.5l-12.7-4.9c-1-.4-2.1,.1-2.5,1.1s.1,2.1,1.1,2.5l2.8,1.1c.9,.3,1.4,1.4,1,2.3-.3,.9-1.4,1.4-2.3,1l-2.8-1.1c-2.8-1.1-4.2-4.2-3.1-7s4.2-4.2,7-3.1l12.7,4.9c2.8,1.1,4.2,4.2,3.1,7-1,2.8-4.2,4.2-7,3.1Z"/><path class="cls-2" d="M1170.03,55.09l-7.3-2.8c-.9-.3-1.4-1.4-1-2.3,.3-.9,1.4-1.4,2.3-1l7.3,2.8c.9,.3,1.4,1.4,1,2.3-.3,.9-1.4,1.3-2.3,1Z"/></g><g><path class="cls-2" d="M1208.63,35.59c-.1,0-.2-.1-.2-.1-.9-.5-1.2-1.6-.7-2.4l1.7-3.1-8.6-3.3-.8,3.4c-.2,1-1.2,1.6-2.1,1.3-1-.2-1.6-1.2-1.3-2.1l1.2-5.4c.1-.5,.4-.9,.9-1.2,.5-.2,1-.3,1.5-.1l12.4,4.8c.5,.2,.9,.6,1,1.1,.2,.5,.1,1-.1,1.5l-2.7,4.8c-.5,.8-1.4,1.1-2.2,.8h0Z"/><path class="cls-2" d="M1191.53,44.99c-.9-.3-1.4-1.4-1-2.3l2.7-7.1c.3-.9,1.4-1.4,2.3-1,.9,.3,1.4,1.4,1,2.3l-2.7,7.1c-.3,.9-1.3,1.4-2.3,1Z"/><path class="cls-2" d="M1182.83,86.29c-4.3-1.7-6.5-6.6-4.9-10.9l9.9-25.8c.3-.9,1.4-1.4,2.3-1,.9,.3,1.4,1.4,1,2.3l-9.9,25.8c-1,2.5,.3,5.4,2.8,6.3,2.5,1,5.4-.3,6.3-2.8l9.9-25.8c.3-.9,1.4-1.4,2.3-1,.9,.3,1.4,1.4,1,2.3l-9.9,25.8c-1.5,4.3-6.4,6.5-10.8,4.8h0Z"/><path class="cls-2" d="M1204.03,49.79c-.9-.3-1.4-1.4-1-2.3l2.7-7.1c.3-.9,1.4-1.4,2.3-1,.9,.3,1.4,1.4,1,2.3l-2.7,7.1c-.4,.9-1.4,1.4-2.3,1Z"/><path class="cls-2" d="M1206.83,42.79l-2.9-1.1c-.9-.3-1.4-1.4-1-2.3,.3-.9,1.4-1.4,2.3-1l2.9,1.1c1,.4,2.1-.1,2.5-1.1s-.1-2.1-1.1-2.5l-12.7-4.9c-1-.4-2.1,.1-2.5,1.1s.1,2.1,1.1,2.5l2.8,1.1c.9,.3,1.4,1.4,1,2.3-.3,.9-1.4,1.4-2.3,1l-2.8-1.1c-2.8-1.1-4.2-4.2-3.1-7s4.2-4.2,7-3.1l12.7,4.9c2.8,1.1,4.2,4.2,3.1,7-1,2.8-4.2,4.2-7,3.1Z"/><path class="cls-2" d="M1194.93,72.09l-7.3-2.8c-.9-.3-1.4-1.4-1-2.3,.3-.9,1.4-1.4,2.3-1l7.3,2.8c.9,.3,1.4,1.4,1,2.3-.3,.9-1.3,1.3-2.3,1Z"/></g><g><path class="cls-2" d="M1236.03,46.09c-.1,0-.2-.1-.2-.1-.9-.5-1.2-1.6-.7-2.4l1.7-3.1-8.6-3.3-.8,3.4c-.2,1-1.2,1.6-2.1,1.3-1-.2-1.6-1.2-1.3-2.1l1.2-5.4c.1-.5,.4-.9,.9-1.2,.5-.2,1-.3,1.5-.1l12.4,4.8c.5,.2,.9,.6,1,1.1,.2,.5,.1,1-.1,1.5l-2.7,4.8c-.5,.8-1.4,1.1-2.2,.8h0Z"/><path class="cls-2" d="M1219.03,55.59c-.9-.3-1.4-1.4-1-2.3l2.7-7.1c.3-.9,1.4-1.4,2.3-1,.9,.3,1.4,1.4,1,2.3l-2.7,7.1c-.4,.9-1.4,1.3-2.3,1Z"/><path class="cls-2" d="M1210.33,96.89c-4.3-1.7-6.5-6.6-4.9-10.9l9.9-25.8c.3-.9,1.4-1.4,2.3-1,.9,.3,1.4,1.4,1,2.3l-9.9,25.8c-1,2.5,.3,5.4,2.8,6.3s5.4-.3,6.3-2.8l9.9-25.8c.3-.9,1.4-1.4,2.3-1,.9,.3,1.4,1.4,1,2.3l-9.9,25.8c-1.6,4.3-6.5,6.4-10.8,4.8h0Z"/><path class="cls-2" d="M1231.43,60.29c-.9-.3-1.4-1.4-1-2.3l2.7-7.1c.3-.9,1.4-1.4,2.3-1,.9,.3,1.4,1.4,1,2.3l-2.7,7.1c-.4,.9-1.4,1.4-2.3,1Z"/><path class="cls-2" d="M1234.23,53.29l-2.9-1.1c-.9-.3-1.4-1.4-1-2.3,.3-.9,1.4-1.4,2.3-1l2.9,1.1c1,.4,2.1-.1,2.5-1.1s-.1-2.1-1.1-2.5l-12.7-4.9c-1-.4-2.1,.1-2.5,1.1s.1,2.1,1.1,2.5l2.8,1.1c.9,.3,1.4,1.4,1,2.3-.3,.9-1.4,1.4-2.3,1l-2.8-1.1c-2.8-1.1-4.2-4.2-3.1-7s4.2-4.2,7-3.1l12.7,4.9c2.8,1.1,4.2,4.2,3.1,7-1,2.8-4.2,4.2-7,3.1Z"/><path class="cls-2" d="M1224.93,76.09l-7.3-2.8c-.9-.3-1.4-1.4-1-2.3,.3-.9,1.4-1.4,2.3-1l7.3,2.8c.9,.3,1.4,1.4,1,2.3s-1.4,1.3-2.3,1Z"/></g></g><path class="cls-2" d="M1229.33,123.49l-104.8-40.2c-.9-.3-1.4-1.4-1-2.3l3.1-8c.3-.9,1.4-1.4,2.3-1l104.8,40.2c.9,.3,1.4,1.4,1,2.3l-3.1,8c-.4,.9-1.4,1.3-2.3,1Zm-101.9-42.9l101.5,38.9,1.8-4.7-101.5-38.9-1.8,4.7Z"/><path class="cls-2" d="M1131.93,76.89c-.9-.3-1.4-1.4-1-2.3l23.9-62.3c.3-.9,1.4-1.4,2.3-1,.9,.3,1.4,1.4,1,2.3l-23.9,62.3c-.4,.9-1.4,1.4-2.3,1Z"/><path class="cls-2" d="M1227.03,113.39c-.9-.3-1.4-1.4-1-2.3l23.9-62.3c.3-.9,1.4-1.4,2.3-1,.9,.3,1.4,1.4,1,2.3l-23.9,62.3c-.3,.9-1.4,1.4-2.3,1Z"/><path class="cls-2" d="M1245.13,66.39l-95.1-36.5c-.9-.3-1.4-1.4-1-2.3,.3-.9,1.4-1.4,2.3-1l95.1,36.5c.9,.3,1.4,1.4,1,2.3s-1.4,1.4-2.3,1Z"/></g><g class="cls-1"><g><g><g><path class="cls-2" d="M928.51,690.37c-.5,0-1-.2-1.4-.6l-2-2c-1.5-1.5-3.3-2.5-5.1-2.8-2.6-.4-5.2-1.8-7.3-3.9l-40.1-40.1c-.8-.8-.8-2.1,0-2.8,.8-.8,2.1-.8,2.8,0l40.1,40.1c1.5,1.5,3.3,2.5,5.1,2.8,2.6,.4,5.2,1.8,7.3,3.9l2,2c.8,.8,.8,2.1,0,2.8-.4,.4-.9,.6-1.4,.6h0Z"/><path class="cls-2" d="M931.41,687.47c-.5,0-1-.2-1.4-.6l-2-2c-2.1-2.1-3.5-4.7-3.9-7.3-.3-1.7-1.3-3.6-2.8-5.1l-40.1-40.1c-.8-.8-.8-2.1,0-2.8,.8-.8,2.1-.8,2.8,0l40.1,40.1c2.1,2.1,3.5,4.7,3.9,7.3,.3,1.7,1.3,3.6,2.8,5.1l2,2c.8,.8,.8,2.1,0,2.8-.4,.4-.9,.6-1.4,.6h0Z"/></g><path class="cls-2" d="M933.11,718.57c-4.7,0-8.5-3.8-8.5-8.5,0-6.3,6.1-17,6.8-18.2,.4-.6,1-1,1.7-1s1.4,.4,1.7,1c.7,1.2,6.8,12.1,6.8,18.1,.1,4.8-3.8,8.6-8.5,8.6h0Zm0-21.5c-2,3.9-4.5,9.6-4.5,12.9,0,2.5,2,4.5,4.5,4.5s4.5-2,4.5-4.5c.1-3.1-2.5-8.9-4.5-12.9Z"/><path class="cls-2" d="M868.01,645.97c-1.5,0-3-.6-4.1-1.7-1.1-1.1-1.7-2.5-1.7-4.1,0-1.5,.6-3,1.7-4.1l.1-.1-21.8-21.8c-2-2-3.1-4.7-3.1-7.6s1.1-5.5,3.1-7.6c4.2-4.2,10.9-4.2,15.1,0l21.8,21.8,.1-.1c1.1-1.1,2.5-1.7,4.1-1.7s3,.6,4.1,1.7c1.1,1.1,1.7,2.5,1.7,4.1,0,1.5-.6,3-1.7,4.1l-15.3,15.3c-1.1,1.2-2.6,1.8-4.1,1.8h0Zm-18.2-45.9c-1.7,0-3.4,.6-4.7,1.9-1.3,1.3-2,2.9-2,4.7s.7,3.5,2,4.7l23.2,23.2c.4,.4,.6,.9,.6,1.4s-.2,1-.6,1.4l-1.5,1.5c-.3,.3-.5,.8-.5,1.2,0,.5,.2,.9,.5,1.2s.8,.5,1.2,.5c.5,0,.9-.2,1.2-.5l15.3-15.3c.3-.3,.5-.8,.5-1.2,0-.5-.2-.9-.5-1.2s-.8-.5-1.2-.5-.9,.2-1.2,.5l-1.5,1.5c-.4,.4-.9,.6-1.4,.6s-1-.2-1.4-.6l-23.2-23.2c-1.4-1.1-3.1-1.8-4.8-1.8h0Z"/></g><path class="cls-2" d="M942.21,655.37c-1.1,0-2-.9-2-2,0-26.2-21.3-47.5-47.5-47.5-1.1,0-2-.9-2-2s.9-2,2-2c28.4,0,51.5,23.1,51.5,51.5,0,1.1-.9,2-2,2Z"/><path class="cls-2" d="M892.71,704.97c-28.4,0-51.5-23.1-51.5-51.5,0-1.1,.9-2,2-2s2,.9,2,2c0,26.2,21.3,47.5,47.5,47.5,1.1,0,2,.9,2,2s-.9,2-2,2Z"/><g><path class="cls-2" d="M846.61,705.37c-.5,0-1-.2-1.4-.6-.8-.8-.8-2-.1-2.8l5.2-5.4c.8-.8,2-.8,2.8-.1,.8,.8,.8,2,.1,2.8l-5.2,5.4c-.3,.5-.9,.7-1.4,.7h0Z"/><path class="cls-2" d="M835.81,688.57c-.8,0-1.5-.4-1.8-1.2-.5-1,0-2.2,1-2.7l5.1-2.3c1-.5,2.2,0,2.7,1s0,2.2-1,2.7l-5.1,2.3c-.4,.2-.6,.2-.9,.2Z"/><path class="cls-2" d="M833.31,671.37c-1,0-1.9-.7-2-1.8s.7-2.1,1.8-2.2l3.2-.4c1.1-.1,2.1,.7,2.2,1.8s-.7,2.1-1.8,2.2l-3.2,.4h-.2Z"/><path class="cls-2" d="M862.11,714.07c-.2,0-.4,0-.7-.1-1-.4-1.6-1.5-1.2-2.6l1.7-4.9c.4-1,1.5-1.6,2.6-1.2,1,.4,1.6,1.5,1.2,2.6l-1.7,4.9c-.3,.8-1.1,1.3-1.9,1.3h0Z"/><path class="cls-2" d="M879.21,715.07h-.1c-1.1-.1-2-1-1.9-2.1l.2-2.6c.1-1.1,1-2,2.1-1.9s2,1,1.9,2.1l-.2,2.6c-.1,1.1-1,1.9-2,1.9Z"/></g><g><path class="cls-2" d="M933.41,611.07c-.5,0-1-.2-1.4-.6-.8-.8-.8-2-.1-2.8l5.2-5.4c.8-.8,2-.8,2.8-.1,.8,.8,.8,2,.1,2.8l-5.2,5.4c-.4,.5-.9,.7-1.4,.7h0Z"/><path class="cls-2" d="M944.31,624.77c-.8,0-1.5-.4-1.8-1.2-.5-1,0-2.2,1-2.7l5.1-2.3c1-.5,2.2,0,2.7,1s0,2.2-1,2.7l-5.1,2.3c-.4,.1-.6,.2-.9,.2h0Z"/><path class="cls-2" d="M948.71,640.07c-1,0-1.9-.7-2-1.8s.7-2.1,1.8-2.2l3.2-.4c1.1-.1,2.1,.7,2.2,1.8s-.7,2.1-1.8,2.2l-3.2,.4h-.2Z"/><path class="cls-2" d="M921.41,601.87c-.2,0-.4,0-.7-.1-1-.4-1.6-1.5-1.2-2.6l1.7-4.9c.4-1,1.5-1.6,2.6-1.2,1,.4,1.6,1.5,1.2,2.6l-1.7,4.9c-.3,.7-1.1,1.3-1.9,1.3h0Z"/><path class="cls-2" d="M905.81,598.57h-.1c-1.1-.1-2-1-1.9-2.1l.2-2.6c.1-1.1,1-1.9,2.1-1.9,1.1,.1,2,1,1.9,2.1l-.2,2.6c0,1.1-.9,1.9-2,1.9Z"/></g></g><g><path class="cls-2" d="M838.41,632.97h0c-1.1,0-2-.9-2-2v-1.3c0-1.1,.9-2,2-2h0c1.1,0,2,.9,2,2v1.3c0,1.1-.9,2-2,2Z"/><path class="cls-2" d="M838.21,644.67h0c-1.1,0-2-.9-2-2v-1.3c0-1.1,.9-2,2-2h0c1.1,0,2,.9,2,2v1.3c0,1.2-.9,2-2,2Z"/><path class="cls-2" d="M833.11,638.07h-1.4c-1.1,0-2-.9-2-2s.9-2,2-2h1.3c1.1,0,2,.9,2,2,.1,1.1-.8,2-1.9,2h0Z"/><path class="cls-2" d="M844.91,638.27h-1.4c-1.1,0-2-.9-2-2s.9-2,2-2h1.3c1.1,0,2,.9,2,2,.1,1.1-.8,2-1.9,2h0Z"/></g><g><path class="cls-2" d="M948.71,673.07h0c-1.1,0-2-.9-2-2v-1.3c0-1.1,.9-2,2-2h0c1.1,0,2,.9,2,2v1.3c0,1.2-.9,2-2,2Z"/><path class="cls-2" d="M948.61,684.87q-.07,0,0,0c-1.1,0-2-.9-2-2v-1.3c0-1.1,.9-2,2-2h0c1.1,0,2,.9,2,2v1.3c-.1,1.1-.9,2-2,2Z"/><path class="cls-2" d="M943.41,678.27h-1.4c-1.1,0-2-.9-2-2s.9-2,2-2h1.3c1.1,0,2,.9,2,2,.1,1.1-.8,2-1.9,2Z"/><path class="cls-2" d="M955.21,678.47h-1.4c-1.1,0-2-.9-2-2s.9-2,2-2h1.3c1.1,0,2,.9,2,2,.1,1.1-.8,2-1.9,2Z"/></g><path class="cls-2" d="M909.21,703.57c0,1.2-1,2.2-2.3,2.2-1.2,0-2.2-1-2.2-2.3s1-2.2,2.3-2.2,2.2,1.1,2.2,2.3Z"/></g><g class="cls-1"><g><path class="cls-2" d="M226.32,677.22h-.2c-8.4-1.4-14-6.7-20-12.9-6.9-7.1-16-11.8-27-13.9-7.1-1.3-13.1-3.7-18-6.9-.6-.4-.8-1.2-.4-1.9,.4-.6,1.2-.8,1.9-.4,4.6,3,10.3,5.2,17,6.5,11.6,2.2,21.1,7.1,28.4,14.7,5.8,6.1,10.9,10.8,18.5,12.1,.7,.1,1.2,.8,1.1,1.5-.1,.8-.7,1.2-1.3,1.2h0Z"/><path class="cls-2" d="M185.72,673.12c-.9,0-1.7,0-2.6-.1-7.5-.6-14.9-3.9-21.4-9.4s-11.8-13-14.4-20.7c-2.9-8.2-2.6-15.8,.6-21.5,.2-.4,.7-.7,1.1-.7,.5,0,.9,.2,1.2,.6,3.3,4.9,6.8,7.7,11.5,9.1,5,1.5,11.5,1.6,19.8,1.3,3.7-.2,7.4,.3,10.9,1.2,.7,.2,1.1,.9,.9,1.7-.2,.7-.9,1.1-1.7,.9-3.2-.9-6.6-1.3-10.1-1.1-8.5,.4-15.3,.3-20.7-1.4-4.7-1.4-8.3-4-11.6-8.3-1.9,4.8-1.8,10.8,.5,17.3,2.5,7.2,7.5,14.3,13.6,19.5s13,8.2,19.9,8.8c8,.6,15.6-2,22.7-7.8,.6-.5,1.4-.4,1.9,.2,.5,.6,.4,1.4-.2,1.9-6.8,5.7-14.2,8.5-21.9,8.5Z"/><path class="cls-2" d="M211.62,656.52c-.7,0-1.3-.6-1.3-1.3,0-4.6-2.6-9.5-7.1-13.4-.6-.5-.6-1.3-.1-1.9,.5-.6,1.3-.6,1.9-.1,5,4.4,8,10.1,8,15.4-.1,.6-.7,1.3-1.4,1.3h0Z"/></g><g><path class="cls-2" d="M207.32,613.72c-.3,0-.7-.1-.9-.4l-7.5-7.1c-.5-.5-.6-1.4-.1-1.9s1.4-.6,1.9-.1l7.5,7.1c.5,.5,.6,1.4,.1,1.9-.3,.4-.6,.5-1,.5Z"/><path class="cls-2" d="M187.92,599.82c-.3,0-.7-.1-.9-.4l-4.1-3.9c-.5-.5-.6-1.4-.1-1.9s1.4-.6,1.9-.1l4.1,3.9c.5,.5,.6,1.4,.1,1.9-.2,.4-.6,.5-1,.5Z"/><path class="cls-2" d="M215.12,613.72c-.3,0-.6-.1-.8-.3-.6-.4-.7-1.3-.3-1.9l5.4-7.1c.4-.6,1.3-.7,1.9-.3s.7,1.3,.3,1.9l-5.4,7.1c-.3,.4-.7,.6-1.1,.6Z"/><path class="cls-2" d="M220.52,634.32c-.4,0-.8-.2-1.1-.5l-5.4-7.1c-.4-.6-.3-1.4,.3-1.9,.6-.4,1.4-.3,1.9,.3l5.4,7.1c.4,.6,.3,1.4-.3,1.9-.2,.2-.5,.2-.8,.2Z"/><path class="cls-2" d="M194.12,644.22c-.3,0-.6-.1-.8-.3-.6-.5-.7-1.3-.2-1.9l13.3-17c.5-.6,1.3-.7,1.9-.2s.7,1.3,.2,1.9l-13.3,17c-.3,.3-.7,.5-1.1,.5Z"/><path class="cls-2" d="M215.12,627.22h-7.8c-.5,0-.9-.3-1.2-.7l-3.9-6.8c-.2-.4-.2-.9,0-1.3l3.9-6.8c.2-.4,.7-.7,1.2-.7h7.8c.5,0,.9,.3,1.2,.7l3.9,6.8c.2,.4,.2,.9,0,1.3l-3.9,6.8c-.2,.5-.7,.7-1.2,.7Zm-7-2.7h6.3l3.1-5.4-3.1-5.4h-6.3l-3.1,5.4,3.1,5.4Z"/><path class="cls-2" d="M195.92,613.32h-7.8c-.5,0-.9-.3-1.2-.7l-3.9-6.8c-.2-.4-.2-.9,0-1.3l3.9-6.8c.2-.4,.7-.7,1.2-.7h7.8c.5,0,.9,.3,1.2,.7l3.9,6.8c.2,.4,.2,.9,0,1.3l-3.9,6.8c-.3,.5-.7,.7-1.2,.7Zm-7-2.7h6.3l3.1-5.4-3.1-5.4h-6.3l-3.1,5.4,3.1,5.4h0Z"/><path class="cls-2" d="M229.52,606.62h-3.6c-.7,0-1.3-.6-1.3-1.3s.6-1.3,1.3-1.3h3.6c.7,0,1.3,.6,1.3,1.3,.1,.7-.5,1.3-1.3,1.3Z"/><path class="cls-2" d="M179.22,595.92h-3.6c-.7,0-1.3-.6-1.3-1.3s.6-1.3,1.3-1.3h3.6c.7,0,1.3,.6,1.3,1.3s-.6,1.3-1.3,1.3Z"/><path class="cls-2" d="M229.52,601.12h-9c-.7,0-1.3-.6-1.3-1.3s.6-1.3,1.3-1.3h9c.7,0,1.3,.6,1.3,1.3s-.5,1.3-1.3,1.3Z"/><path class="cls-2" d="M228.72,634.32h-3.6c-.7,0-1.3-.6-1.3-1.3s.6-1.3,1.3-1.3h3.6c.7,0,1.3,.6,1.3,1.3s-.5,1.3-1.3,1.3Z"/></g></g><g class="cls-1"><path class="cls-2" d="M1273.98,453.33c-.6,.2-1.3,.1-1.8-.3l-13.6-11.8c-.8-.7-.8-1.8-.2-2.6,.7-.8,1.8-.8,2.6-.2l13.6,11.8c.8,.7,.8,1.8,.2,2.6-.2,.2-.5,.4-.8,.5h0Z"/><path class="cls-2" d="M1275.68,496.43c-.3,.1-.6,.1-.9,.1-1-.2-1.6-1.2-1.5-2.2l3.5-18.1c.2-1,1.2-1.6,2.2-1.5,1,.2,1.6,1.2,1.5,2.2l-3.5,18.1c-.2,.6-.7,1.1-1.3,1.4h0Z"/><path class="cls-2" d="M1256.48,513.13l-17.5,6c-1,.3-2-.2-2.3-1.1-.3-1,.2-2,1.1-2.3l17.5-6c1-.3,2,.2,2.3,1.1,.4,1-.1,2-1.1,2.3Z"/><path class="cls-2" d="M1215.68,511.43c-.6,.2-1.3,.1-1.8-.3l-13.9-12.1c-.8-.7-.8-1.8-.2-2.6,.7-.8,1.8-.8,2.6-.2l13.9,12.1c.8,.7,.8,1.8,.2,2.6-.2,.2-.5,.4-.8,.5h0Z"/><path class="cls-2" d="M1196.58,473.23c-.3,.1-.6,.1-.9,.1-1-.2-1.6-1.2-1.5-2.2l3.3-17.2c.2-1,1.2-1.6,2.2-1.5,1,.2,1.6,1.2,1.5,2.2l-3.3,17.2c-.3,.7-.7,1.2-1.3,1.4h0Z"/><path class="cls-2" d="M1236.58,433.23l-17.5,6c-1,.3-2-.2-2.3-1.1-.3-1,.2-2,1.1-2.3l17.5-6c1-.3,2,.2,2.3,1.1s-.2,2-1.1,2.3Z"/><path class="cls-2" d="M1231.98,505.83c-.3,.1-.6,.1-.9,.1-1-.2-1.6-1.2-1.5-2.2l3.6-18.4c.2-1,1.2-1.6,2.2-1.5,1,.2,1.6,1.2,1.5,2.2l-3.6,18.4c-.2,.7-.7,1.2-1.3,1.4h0Z"/><path class="cls-2" d="M1260.58,496.03c-.6,.2-1.3,.1-1.8-.3l-14.4-12.5c-.8-.7-.8-1.8-.2-2.6,.7-.8,1.8-.8,2.6-.2l14.4,12.5c.8,.7,.8,1.8,.2,2.6-.3,.2-.6,.4-.8,.5h0Z"/><path class="cls-2" d="M1239.88,465.03c-.3,.1-.6,.1-.9,.1-1-.2-1.6-1.2-1.5-2.2l3.6-18.4c.2-1,1.2-1.6,2.2-1.5,1,.2,1.6,1.2,1.5,2.2l-3.6,18.4c-.2,.7-.7,1.2-1.3,1.4h0Z"/><path class="cls-2" d="M1229.48,469.03c-.6,.2-1.3,.1-1.8-.3l-14.4-12.5c-.8-.7-.8-1.8-.2-2.6,.7-.8,1.8-.8,2.6-.2l14.4,12.5c.8,.7,.8,1.8,.2,2.6-.3,.2-.6,.4-.8,.5h0Z"/><path class="cls-2" d="M1227.38,479.83l-16.4,5.7c-1,.3-2-.2-2.3-1.1-.3-1,.2-2,1.1-2.3l16.4-5.7c1-.3,2,.2,2.3,1.1s-.2,2-1.1,2.3Z"/><path class="cls-2" d="M1265.38,466.73l-17.2,5.9c-1,.3-2-.2-2.3-1.1-.3-1,.2-2,1.1-2.3l17.2-5.9c1-.3,2,.2,2.3,1.1,.4,.9-.1,1.9-1.1,2.3Z"/><g><path class="cls-2" d="M1197.98,501.63c-6.7,2.3-14-1.3-16.4-8s1.3-14,8-16.4c6.7-2.3,14,1.3,16.4,8,2.4,6.7-1.3,14.1-8,16.4Zm-7.2-20.9c-4.8,1.7-7.3,6.9-5.7,11.7,1.7,4.8,6.9,7.3,11.7,5.7,4.8-1.7,7.3-6.9,5.7-11.7s-6.9-7.3-11.7-5.7h0Z"/><path class="cls-2" d="M1189.78,487.93c-.5,.2-1.2,.1-1.7-.2-.8-.6-1-1.7-.4-2.6,.9-1.3,2.2-2.2,3.7-2.7,1-.3,2,.2,2.3,1.1,.3,1-.2,2-1.1,2.3-.8,.3-1.4,.7-1.9,1.4-.2,.3-.6,.5-.9,.7h0Z"/></g><g><path class="cls-2" d="M1205.48,455.63c-6.7,2.3-14-1.3-16.4-8-2.3-6.7,1.3-14,8-16.4,6.7-2.3,14,1.3,16.4,8s-1.3,14.1-8,16.4Zm-7.2-20.9c-4.8,1.7-7.3,6.9-5.7,11.7,1.7,4.8,6.9,7.3,11.7,5.7,4.8-1.7,7.3-6.9,5.7-11.7-1.7-4.8-6.9-7.3-11.7-5.7Z"/><path class="cls-2" d="M1197.28,441.93c-.5,.2-1.2,.1-1.7-.2-.8-.6-1-1.7-.4-2.6,.9-1.3,2.2-2.2,3.7-2.7,1-.3,2,.2,2.3,1.1,.3,1-.2,2-1.1,2.3-.8,.3-1.4,.7-1.9,1.4-.3,.3-.6,.5-.9,.7h0Z"/></g><g><path class="cls-2" d="M1250.58,440.03c-6.7,2.3-14-1.3-16.4-8-2.3-6.7,1.3-14,8-16.4,6.7-2.3,14,1.3,16.4,8,2.3,6.8-1.3,14.1-8,16.4Zm-7.2-20.8c-4.8,1.7-7.3,6.9-5.7,11.7,1.7,4.8,6.9,7.3,11.7,5.7,4.8-1.7,7.3-6.9,5.7-11.7-1.7-4.8-6.9-7.4-11.7-5.7Z"/><path class="cls-2" d="M1242.38,426.33c-.5,.2-1.2,.1-1.7-.2-.8-.6-1-1.7-.4-2.6,.9-1.3,2.2-2.2,3.7-2.8,1-.3,2,.2,2.3,1.1,.3,1-.2,2-1.1,2.3-.8,.3-1.4,.7-1.9,1.4-.3,.5-.6,.7-.9,.8h0Z"/></g><g><path class="cls-2" d="M1232.18,533.23c-6.7,2.3-14-1.3-16.4-8s1.3-14,8-16.4c6.7-2.3,14,1.3,16.4,8s-1.2,14.1-8,16.4Zm-7.1-20.9c-4.8,1.7-7.3,6.9-5.7,11.7,1.7,4.8,6.9,7.3,11.7,5.7s7.3-6.9,5.7-11.7c-1.7-4.8-7-7.3-11.7-5.7Z"/><path class="cls-2" d="M1223.98,519.53c-.5,.2-1.2,.1-1.7-.2-.8-.6-1-1.7-.4-2.6,.9-1.3,2.2-2.2,3.7-2.8,1-.3,2,.2,2.3,1.1,.3,1-.2,2-1.1,2.3-.8,.3-1.4,.7-1.9,1.4-.2,.4-.5,.7-.9,.8Z"/></g><g><path class="cls-2" d="M1277.28,517.63c-6.7,2.3-14-1.3-16.4-8-2.3-6.7,1.3-14,8-16.4,6.7-2.3,14,1.3,16.4,8s-1.3,14.1-8,16.4Zm-7.2-20.8c-4.8,1.7-7.3,6.9-5.7,11.7,1.7,4.8,6.9,7.3,11.7,5.7,4.8-1.7,7.3-6.9,5.7-11.7s-6.9-7.4-11.7-5.7Z"/><path class="cls-2" d="M1269.08,503.93c-.5,.2-1.2,.1-1.7-.2-.8-.6-1-1.7-.4-2.6,.9-1.3,2.2-2.2,3.7-2.8,1-.3,2,.2,2.3,1.1,.3,1-.2,2-1.1,2.3-.8,.3-1.4,.7-1.9,1.4-.2,.5-.5,.7-.9,.8Z"/></g><g><path class="cls-2" d="M1286.18,471.23c-6.7,2.3-14-1.3-16.4-8-2.3-6.7,1.3-14,8-16.4,6.7-2.3,14,1.3,16.4,8s-1.3,14.1-8,16.4Zm-7.2-20.9c-4.8,1.7-7.3,6.9-5.7,11.7,1.7,4.8,6.9,7.3,11.7,5.7,4.8-1.7,7.3-6.9,5.7-11.7-1.7-4.8-6.9-7.3-11.7-5.7Z"/><path class="cls-2" d="M1277.98,457.53c-.5,.2-1.2,.1-1.7-.2-.8-.6-1-1.7-.4-2.6,.9-1.3,2.2-2.2,3.7-2.8,1-.3,2,.2,2.3,1.1,.3,1-.2,2-1.1,2.3-.8,.3-1.4,.7-1.9,1.4-.3,.4-.6,.6-.9,.8h0Z"/></g><g><path class="cls-2" d="M1241.38,486.63c-6.7,2.3-14-1.3-16.4-8s1.3-14,8-16.4c6.7-2.3,14,1.3,16.4,8s-1.3,14.1-8,16.4Zm-7.2-20.8c-4.8,1.7-7.3,6.9-5.7,11.7,1.7,4.8,6.9,7.3,11.7,5.7,4.8-1.7,7.3-6.9,5.7-11.7s-6.9-7.4-11.7-5.7Z"/><path class="cls-2" d="M1233.18,472.93c-.5,.2-1.2,.1-1.7-.2-.8-.6-1-1.7-.4-2.6,.9-1.3,2.2-2.2,3.7-2.8,1-.3,2,.2,2.3,1.1,.3,1-.2,2-1.1,2.3-.8,.3-1.4,.7-1.9,1.4-.3,.5-.6,.7-.9,.8h0Z"/></g></g></g></g></svg>