<?xml version="1.0" encoding="UTF-8"?><svg xmlns="http://www.w3.org/2000/svg" xmlns:xlink="http://www.w3.org/1999/xlink" viewBox="0 0 111.44 80.16"><defs><style>.cls-1{fill:#f99993;}.cls-2{fill:#6cb8ff;}.cls-2,.cls-3,.cls-4{mix-blend-mode:multiply;}.cls-5,.cls-6{fill:#fff;}.cls-7{fill:#050233;}.cls-8{fill:#211e87;}.cls-9{fill:#d5edff;}.cls-10{fill:#04377d;}.cls-11{fill:#ff8a8b;}.cls-6{opacity:.3;}.cls-12{isolation:isolate;}.cls-13{fill:#4d4d4d;}.cls-3{fill:#d9edff;}.cls-14{fill:#ff9d8a;}.cls-15{fill:#ffc5c7;}.cls-16{fill:#38295c;}.cls-17{fill:#333;}.cls-18{fill:#0084ff;}.cls-19{fill:#d4dde9;}.cls-20{fill:#00b0f9;}.cls-21{fill:#471052;}.cls-22{fill:#f7931e;}.cls-23{fill:#ff8384;}.cls-24{fill:#ffc7bc;}.cls-25{fill:#2a5590;}.cls-26{fill:#e8f4ff;}.cls-27{fill:lime;}.cls-28{clip-path:url(#clippath);}.cls-29{fill:#4ca9ff;}.cls-30{fill:#1b1464;}.cls-31{fill:none;}.cls-32{fill:#d9e1eb;}.cls-33{fill:#f5f7fa;}.cls-34{fill:#b3b3b3;}.cls-35{fill:#1a1a1a;}.cls-36{fill:#e21926;}.cls-37{fill:#fbb03b;}.cls-38{fill:#666;}</style><clipPath id="clippath"><path class="cls-31" d="M36.06,19.58c0,9.06-7.34,16.4-16.4,16.4S3.26,28.64,3.26,19.58,10.6,0,19.66,0s16.4,10.53,16.4,19.58Z"/></clipPath></defs><g class="cls-12"><g id="Layer_2"><g id="Layer_1-2"><g><path class="cls-3" d="M103.55,72.85c-11.23,12.48-41.39,3.92-55.23-2.28-8.91-3.99-13.26-7.99-24.65-10.5-8.7-1.92-12.88-1.06-17.34-5.02C1.02,50.34-.91,42.17,.39,35.2c.19-1.04,.88-4.23,2.93-7.67,2.92,6.03,9.09,10.19,16.24,10.19,9.96,0,18.03-8.07,18.03-18.03,0-1.69-.23-3.33-.67-4.88,.89-.43,1.8-.93,2.72-1.51,4.22-2.62,5.4-4.69,9.13-5.02,4.31-.38,8.04,1.91,15.75,8.67,13.92,12.23,12.96,14.64,20.08,18.94,10.01,6.05,14.46,2.82,19.17,8.22,6.12,7.01,6.4,21.38-.23,28.75Z"/><path class="cls-3" d="M107.43,80.16H32.8c-1.47-.79-3.09-1.55-4.92-2.28-2.03-.81-4.31-1.57-6.95-2.28-2.29-.61-10.4-2.67-10.96-7.3-.24-2.01,1.13-2.99,3.83-9.13,2.63-5.98,2.07-6.74,3.65-9.36,2.72-4.51,5.69-4.43,10.59-7.76,6.67-4.53,5.32-7.48,11.69-12.78,2.18-1.81,11.83-9.84,20.82-6.39,5.46,2.09,5.23,6.34,10.77,7.53,5.92,1.27,8.08-3.17,13.33-1.37,4.81,1.65,7.57,6.95,8.95,9.58,1.04,2,1.84,4.09,4.93,20.77,1.69,9.14,1.89,10.85,3.29,13.69,1.05,2.14,2.16,3.65,3.2,4.79,.89,.98,1.72,1.69,2.41,2.28Z"/><path class="cls-3" d="M92.34,72.15c-.5,2.31-1.16,4.25-1.72,5.67,0,.02-.01,.04-.02,.06-.45,1.13-.85,1.92-1.06,2.28H39.02c-.28-.67-.59-1.44-.92-2.28l-.03-.09c-1.6-4.22-3.43-10.25-2.9-14.79,.12-1.01,.29-2.02,.53-3.01,0-.04,.02-.08,.03-.11,0-.04,.02-.08,.03-.11h0c.05-.18,.09-.37,.14-.55,1.72-6.34,5.95-12.26,13.32-16.99,3.35-2.15,8.6-3.72,14.33-4.06,.95-.06,1.91-.08,2.88-.06,.06,0,.13,0,.19,0,2.44,.05,4.91,.34,7.32,.91h0s.03,0,.04,0c.1,.02,.2,.05,.29,.07,.07,.02,.14,.03,.2,.05l.1,.03c.17,.05,.34,.09,.52,.14,5.57,1.55,10.67,4.71,13.93,10.1,4.94,8.14,4.63,16.7,3.31,22.76Z"/><g><g><rect class="cls-29" x="26.11" y="46.29" width="12.47" height="7.37" rx="1.14" ry="1.14"/><polygon class="cls-29" points="32.34 56.54 33.95 52.71 30.73 52.71 32.34 56.54"/></g><g><g><polygon class="cls-10" points="32.3 48.71 35.22 48.71 35.22 49.14 36.64 48.31 35.22 47.49 35.22 47.91 32.3 47.91 32.3 48.71"/><polygon class="cls-5" points="36.64 50.39 33.73 50.39 33.73 49.96 32.3 50.78 33.73 51.61 33.73 51.18 36.64 51.18 36.64 50.39"/></g><g><path class="cls-10" d="M30.51,51.14l-.14,.05s-.43-.49-.66-1.03c-.22-.54-.23-1.19-.23-1.19l.1-.04-.62-1.48c-.11,.09-.21,.2-.3,.34-.35,.59-.31,1.49,.04,2.38s.73,1.67,1.41,2.17c.4,.29,.75,.34,1.02,.3l-.62-1.49Z"/><path class="cls-10" d="M30.95,50.96l-.19,.07,.63,1.51c.07-.02,.14-.05,.19-.08,.16-.09,.23-.29,.17-.46l-.33-.83c-.07-.18-.28-.28-.47-.21Z"/><path class="cls-10" d="M29.45,47.18c-.08,.03-.16,.07-.25,.12l.63,1.51,.21-.09c.18-.08,.27-.29,.2-.47l-.33-.85c-.07-.18-.28-.28-.46-.21Z"/></g></g></g><path class="cls-18" d="M92.34,77.82v-17s.19-4.58-2.22-5.9-12.56-.61-12.56-.61v23.51h14.78Z"/><g><path class="cls-15" d="M74.39,39.99s.61,5.15,.85,5.57l.24,.42,1.18,.8s-2.27,3.21-5.05,3.73c-2.79,.52-2.55-1.13-2.55-1.13l.42-.9-.57-4.91s5.05-2.31,5.48-3.59Z"/><path class="cls-5" d="M78.12,47.21l-1.84-.8s-1.18,1.94-3.92,3.07-2.79,.47-2.93,0c-.14-.47,.05-.99,.05-.99l-.2-1.65-1.1,.37-3.8,30.75,9.77,.47,3.97-31.21Z"/><path class="cls-30" d="M69.1,46.87s-.66,1.53-1.27,5.12-1.18,9.63-1.32,13.79c-.14,4.16-.24,13.65-.24,13.65h-12.32c-.14,0-.99-4.67-.99-4.67,0,0,5.38-4.61,5.67-5.37,.19-.5,.09-9.84,.9-14.13,.8-4.3,1.84-5.16,4.01-6.23,2.24-1.11,5.57-2.14,5.57-2.14Z"/><path class="cls-6" d="M62.68,74c.06,0,.11-.05,.11-.11,0-.34,.06-5.13,.12-9.77,.06-4.64,.12-9.44,.12-9.78,0-.06-.05-.11-.11-.11s-.11,.05-.11,.11c0,.34-.06,5.13-.12,9.77-.06,4.64-.12,9.44-.12,9.78,0,.06,.05,.11,.11,.11Z"/><path class="cls-30" d="M87.24,72.85l.09,6.56h-14.35s-.61-5.57-.38-6.09c.24-.52,14.64-.47,14.64-.47Z"/><g class="cls-4"><path class="cls-1" d="M71.26,45.42c-.58,.47-1.39,.85-2.01,1.08l-.34-2.92s3.79-1.74,5.08-3.03c-.27,1.47-.93,3.42-2.74,4.87Z"/></g><path class="cls-15" d="M64.48,30.4s-.99,1.7-1.18,3.78c-.19,2.08,0,7.41,1.7,9.68,1.7,2.27,5.24,1.61,6.85,.24,1.47-1.26,2.93-2.64,3.31-5.38,.38-2.74-.8-7.93-4.16-9.02-3.35-1.09-6.52,.71-6.52,.71Z"/><g><path class="cls-14" d="M60.22,76.45s.17,0,.42,0c.06,0,.13,0,.19,0,.24,0,.54-.01,.84-.02h.2c.3-.01,.55,.02,.79,0h0c.05,0,.12,0,.18,0,.03,0,.06,0,.08,0,.14-.03,.16-.06,.31-.12,.19-.09,2.79-.67,4.9-.65,2.11,0,4,.15,4.31-.1,.31-.26,.5-2.91-1.3-3.09l-2.21,.84s-5.05-.6-6.91,.77c-1.86,1.37-1.8,2.37-1.8,2.37Z"/><path class="cls-10" d="M62.67,76.42c.05,0,.12,0,.18,0,.05-.07,.14-.21,.19-.26,.57-.58,1.95-.96,2.45-1.08,.05-.01,.08-.06,.06-.1,0-.05-.06-.07-.1-.06-.73,.18-2.27,.63-2.71,1.36-.01,.02-.05,.09-.07,.14Z"/><path class="cls-10" d="M61.67,76.41c.07,0,.13,0,.2,0,.62-1.14,1.64-1.46,2.9-1.87l.07-.02s.07-.06,.05-.11c-.01-.04-.06-.07-.11-.05l-.07,.02c-1.33,.43-2.4,.77-3.05,2.04Z"/><path class="cls-10" d="M60.64,76.44c.06,0,.13,0,.19,0,.38-.79,1.63-2.12,3.28-2.43,.05,0,.08-.05,.07-.1-.01-.05-.05-.08-.1-.07-1.7,.32-3.08,1.71-3.45,2.6Z"/></g><path class="cls-35" d="M74.02,36.38s-1.04-.5-1.77-1.89c-.73-1.39-.64-2.64-.64-2.64,0,0-1.32-.21-3.31,.38-1.98,.59-4.34,1.39-6.33,.26-1.98-1.13-1.98-2.95-1.02-3.71,1.08-.85,2.88-.65,2.88-.65,0,0-1.6-2.05,0-1.6,.63,.18,2.06,.79,2.06,.79,0,0,1.98-1.58,5.74-1.39,3.75,.19,5.55,2.81,5.76,5.74,.21,2.93-.85,5.85-.85,5.85l-2.53-1.13Z"/><g class="cls-4"><path class="cls-24" d="M66.4,37.09c.21,.52,.21,1.13,.26,1.69,.04,.43,.12,.94-.28,1.23-.19,.14-1.09,.52-.62,.82,.18,.12,.47,.08,.67,.08,.14,0,.28-.01,.41-.02,.15-.01,.29-.06,.44-.06,.09,0,.11,.12,.04,.16-.24,.15-.59,.2-.87,.21-.28,.01-.47,0-.72-.13-.15-.08-.3-.18-.33-.37-.03-.21,.13-.39,.28-.51,.18-.13,.4-.19,.58-.32,.25-.18,.23-.48,.21-.76-.04-.67-.2-1.33-.26-2,0-.1,.13-.1,.16-.02h0Z"/></g><path class="cls-35" d="M64.47,38.66c.07,.4,.36,.68,.65,.63,.29-.05,.46-.41,.39-.81-.07-.4-.36-.68-.65-.63-.29,.05-.46,.41-.39,.81Z"/><path class="cls-35" d="M68.08,38.34c.06,.43,.37,.74,.68,.69s.51-.43,.44-.86c-.06-.43-.37-.74-.68-.69s-.51,.43-.44,.86Z"/><path class="cls-35" d="M65.31,37.01c-.22,.04-.44,0-.67,.01-.05,0-.11,.01-.16,.02-.04,0,.07-.01,.02,0h-.03s-.06,.02-.08,.02c-.05,.01-.09,.03-.14,.04-.04,0-.09,.02-.13,.02h-.03s-.08,0-.09-.01c-.13-.03-.2-.18-.17-.3,.01-.04,.03-.07,.05-.1l.03-.04-.03,.03s.02-.03,.03-.04c.01-.02,.03-.04,.05-.05,.02-.01,.04-.03,.05-.04,.06-.04,.14-.06,.2-.08,.13-.03,.27-.05,.41-.05,.13,0,.27,.01,.4,.03,.12,.02,.25,.06,.34,.13,.07,.05,.12,.13,.11,.22-.01,.08-.07,.17-.16,.19h0Z"/><path class="cls-35" d="M67.83,36.38s.06-.03,.09-.05c.03-.01,.1-.05,.04-.02,.02-.01,.04-.02,.06-.03,.09-.05,.19-.08,.29-.1,.22-.05,.44-.07,.66-.05,.24,.02,.45,.08,.66,.2,.03,.02,.06,.03,.08,.06,.02,.02,.03,.04,.05,.06v-.02s.09,.12,.09,.19c0,.07-.04,.13-.1,.17-.08,.04-.15,.02-.23,0h.12c-.07,.01-.11,.01-.18,0,0,0-.06-.02-.02,0,.04,0-.06,0-.08,0-.01,0-.08,0,0,0h-.04s-.07-.01-.11-.02c-.16-.01-.31-.02-.47-.02-.14,0-.29,0-.44,0-.06,0-.12,0-.19,0-.03,0-.02,0,0,0-.01,0-.03,0-.04,0-.03,0-.05,.02-.08,.03-.1,.04-.22-.03-.26-.13-.04-.1,0-.22,.09-.27h0Z"/><path class="cls-23" d="M66.71,42.95c-.22-.44-.61-.75-1.07-.96,.4-.04,2.26-.21,2.73,.05,.53,.3-.1,1.5-1.19,1.56-.11,0-.22,0-.32-.02,0-.22-.06-.44-.16-.64Z"/><path class="cls-32" d="M75.34,40.41s-.19,.73-1.27,1.58c-1.09,.85-2.66,1.47-2.66,1.47l-.13-.55s1.63-.71,2.38-1.49c.76-.78,.85-1.2,.85-1.2l.83,.19Z"/><path class="cls-13" d="M71.09,42.51c-.87-.04-1.36,.65-1.42,1.1-.06,.45,.36,.95,1.34,.51,1.22-.55,.96-1.56,.08-1.61Z"/><path class="cls-32" d="M74.65,35.01s-.38-2.71-2.2-4.56c-3.47-3.52-6.42-3.31-6.42-3.31,0,0,.02-.5,1.13-.87,1.04-.35,1.51-.17,1.51-.17,0,0,2.86,.24,5.26,2.9,2.41,2.67,2.67,6.07,2.67,6.07l-1.96-.07Z"/><path class="cls-5" d="M74.91,34.68c2.27-.39,3.54,1.39,3.64,3.19,.09,1.79-1.21,3.16-2.95,3.02-3.92-.31-3.47-5.74-.68-6.21Z"/><path class="cls-30" d="M77.7,46.55s6.89,1.7,9.3,4.44,3.54,16.24,3.59,18.74-1.7,3.54-2.74,4.25c-1.04,.71-5.62,1.98-9.3,2.17s-7.18,0-7.18,0c0,0,.01-.8-.55-1.98-.53-1.09-1.19-1.32-1.19-1.32l3.16-1.13s.55-9.93,1.42-14.73c.99-5.52,3.49-10.43,3.49-10.43Z"/><path class="cls-6" d="M66.27,70.13s.03,0,.05,0c.06-.03,.08-.09,.06-.15-.65-1.46-1.32-4.32-1.69-6.33l-.03-.16c-.11-.59-.26-1.32,.03-1.83,.14-.26,.47-.82,.78-1.36,.33-.56,.63-1.09,.72-1.25,.17-.31-.36-1.13-1.12-2.26-.2-.31-.38-.57-.48-.75-.27-.47-.09-.9,.12-1.39l.07-.17c.19-.46,.4-.93,.61-1.38,.08-.18,.17-.37,.25-.55,.11-.24,.22-.49,.33-.74,.67-1.49,1.36-3.03,2.24-4.51,.03-.05,.01-.12-.04-.16-.05-.03-.12-.01-.16,.04-.89,1.5-1.58,3.04-2.25,4.53-.11,.25-.22,.5-.33,.74-.08,.18-.17,.37-.25,.55-.21,.45-.42,.92-.61,1.39l-.07,.17c-.21,.51-.43,1.03-.1,1.59,.11,.19,.29,.45,.49,.76,.4,.59,1.22,1.82,1.1,2.03-.08,.15-.39,.68-.71,1.24-.31,.54-.64,1.1-.79,1.36-.32,.58-.17,1.36-.05,1.99l.03,.16c.14,.73,.86,4.47,1.71,6.38,.02,.04,.06,.07,.1,.07Z"/><path class="cls-6" d="M73,70.53s.06-.01,.08-.03c.54-.54,3.12-5.02,3.32-5.86,.11-.46-.16-1.63-.42-2.76-.2-.88-.4-1.78-.35-2.03,.09-.37,.75-.91,1.39-1.43,.77-.63,1.57-1.28,1.73-1.87,.18-.67,.03-4.85-.07-7.62-.04-1-.06-1.78-.06-2.06,0-.06-.05-.11-.11-.11h0c-.06,0-.11,.05-.11,.11,0,.28,.03,1.07,.06,2.07,.09,2.59,.25,6.92,.08,7.56-.14,.52-.94,1.17-1.65,1.75-.7,.57-1.36,1.11-1.47,1.55-.07,.3,.12,1.15,.34,2.13,.24,1.06,.51,2.25,.42,2.66-.19,.83-2.73,5.22-3.26,5.75-.04,.04-.04,.12,0,.16,.02,.02,.05,.03,.08,.03Z"/><path class="cls-6" d="M82.28,68.57h.02c.06-.01,.11-.07,.1-.13-.08-.59-1.39-12.41-1.45-13.32,0-.06-.06-.11-.12-.11-.06,0-.11,.06-.11,.12,.06,.91,1.37,12.74,1.46,13.34,0,.06,.06,.1,.11,.1Z"/><path class="cls-6" d="M72.88,71.78s.03,0,.04,0c.29-.12,1.57-.55,3.2-1.1,3.28-1.11,7.76-2.62,8.62-3.06,.06-.03,.08-.1,.05-.15-.03-.06-.1-.08-.15-.05-.84,.44-5.5,2.01-8.59,3.05-1.63,.55-2.91,.98-3.21,1.1-.06,.02-.09,.09-.06,.15,.02,.04,.06,.07,.11,.07Z"/><path class="cls-6" d="M74.46,76.49c2.88,0,8.47-.52,12.72-2.02,.06-.02,.09-.09,.07-.15-.02-.06-.09-.09-.15-.07-5.37,1.9-12.87,2.22-14.27,1.91-.06-.01-.12,.03-.14,.09-.01,.06,.02,.12,.09,.14,.3,.07,.89,.11,1.67,.11Z"/></g><g><g><g><path class="cls-27" d="M107.47,48.3c-.9,.79-2.03,1.29-2.81,2.2-.31,.36-.59,.74-.87,1.12-.21,.27-.77,.73-.86,1.07-.04,.15-.03-.05,0-.21v-.02c.09-.7,.14-1.39,.17-2.09,.02-.7-.02-1.4,.02-2.1,.06-.98,.37-1.94,1.17-2.55,.39-.3,.9-.48,1.26-.82,.34-.32,.21-.68,0-1.03-.19-.33-.42-.66-.49-1.04-.08-.43,.08-.88,.3-1.25,.47-.78,1.5-1.66,2.49-1.54,.82,.1,.91,1.04,.9,1.7-.01,.64-.07,1.28-.08,1.92,0,.66,.11,1.3,.11,1.96,.02,1.11-.5,1.96-1.32,2.68Z"/><path class="cls-27" d="M99.15,58.52c-.25-.59-.54-1.15-.89-1.69-.48-.74-1.02-1.46-1.34-2.3-.33-.85-.28-1.76-.31-2.65-.02-.66-.22-1.31-.17-1.97,.03-.32,.21-.83,.62-.77,.32,.04,.51,.43,.63,.69,.21,.44,.36,.91,.52,1.37,.06,.18,.12,.36,.2,.54,.05,.1,.19,.35,.33,.31,.23-.06,.02-1-.01-1.17-.17-.84-.43-1.63-.47-2.49-.05-1.26,.05-2.75,1.27-3.44,.32-.18,.73-.29,1.03-.02,.3,.27,.39,.72,.43,1.1,.14,1.16-.14,2.26-.51,3.35-.31,.9-.67,1.83-.7,2.8-.03,.93,.46,1.75,.68,2.63,.36,1.4,.29,2.14,.29,2.59,0,.57-.02,1.13-.06,1.69-.04,.52-.08,1.04-.15,1.56-.01,.1-.02,.21-.04,.32,.2-.48,.27-1.03,.43-1.51,.29-.86,.64-1.7,.92-2.56,.23-.71,.45-1.43,.76-2.12,.29-.64,.64-1.32,1.18-1.8,.33-.29,.72-.45,1.15-.45,.28,0,.53,.1,.79,.17,.33,.09,.58,.06,.85-.15,.88-.68,1.15-1.89,1.8-2.75,.49-.64,1.64-1.73,2.49-1.03,.45,.37,.57,1.09,.55,1.63-.03,.69-.33,1.32-.69,1.89-.38,.61-.87,1.16-1.22,1.79-.21,.37-.24,.73-.21,1.15,.03,.39,.07,.78-.07,1.16-.4,1.14-1.67,.98-2.65,1.01-.69,.02-1.42,.12-2.07,.34-.75,.25-1.24,.74-1.51,1.49-.19,.54-.3,1.15-.67,1.61-.17,.22-.4,.37-.65,.49-.38,.17-1.55,.24-1.56,.14-.03-.36-.2-.73-.3-1.07-.2-.63-.43-1.25-.69-1.87Z"/><path class="cls-27" d="M93.73,58.31c.1-.65,.08-1.37,.39-1.97,.02-.04,.08-.05,.12-.03,.22,.12,.23,.48,.25,.7,.03,.36,0,.73,.05,1.09,.08,.64,.23,1.3,.46,1.9,.26,.68,.73,1.07,1.42,1.28,.44,.14,.87,.26,1.24,.55,.33,.26,.56,.62,.73,1.01,.46,1.03,.68,2.18,.89,3.28,.14,.74,.26,1.48,.44,2.22,.18,.73,.37,1.46,.48,2.21,.02,.04,.04,.08,.05,.11,.05,.11-.13,.17-.19,.08-.71-1.09-1.57-2.07-2.75-2.67-.53-.27-1.24-.33-1.68-.75-.34-.32-.38-.82-.33-1.26,.07-.58,.34-1.06,.63-1.55,.16-.27,.35-.56,.28-.89-.06-.31-.32-.54-.58-.7-.49-.3-1.06-.44-1.46-.88-.37-.41-.58-.91-.62-1.46-.05-.73,.07-1.52,.18-2.24Z"/><path class="cls-27" d="M103.4,62.08c.63-.81,1.38-1.5,2.23-2.07,.45-.3,1.52-.9,1.74,0,.13,.52-.38,1.03-.72,1.36-.5,.49-1.09,.91-1.51,1.48,.53,.17,1.08,.2,1.53,.56,.54,.43,.78,1.26,.25,1.79-.26,.26-.61,.42-.93,.57-.42,.21-.85,.39-1.29,.57-.94,.39-1.89,.79-2.69,1.43-.81,.65-1.58,1.76-1.65,2.83,0,.1,.03,0-.03-.04-.03,.03-.14-.02-.14-.08,.02-1.58,.3-3.09,.95-4.54,.6-1.34,1.36-2.7,2.26-3.86Z"/></g><path class="cls-25" d="M105.56,47.34c-.35,.72-.71,1.42-1.09,2.11-.37,.67-.74,1.34-1.01,2.06-.34,.88-.7,1.75-1.06,2.63-.37,.91-.71,1.84-.97,2.78-.52,1.85-.91,3.75-1.1,5.66-.1,.97-.14,1.95-.12,2.93,.02,.76,.11,1.52,.18,2.28,.07,.79,.13,1.59,.06,2.38-.06,.66-.16,1.45-.67,1.92-.1,.09-.24-.02-.18-.14,.61-1.25,.58-2.62,.46-3.98-.06-.75-.15-1.5-.18-2.25-.03-.96,0-1.92,.1-2.87,.18-1.88,.55-3.73,1.04-5.55,.25-.93,.56-1.85,.91-2.75,.36-.9,.77-1.78,1.11-2.68,.62-1.64,1.57-3.09,2.41-4.61,.04-.08,.16,0,.12,.07h0Z"/><path class="cls-25" d="M100.3,60.72c-.1-1.19-.2-2.34-.61-3.47-.19-.53-.41-1.05-.59-1.58-.15-.44-.37-1.04-.26-1.51,.01-.05,.09-.05,.1,0,.08,.27,.07,.56,.12,.83,.05,.27,.13,.53,.21,.79,.18,.55,.41,1.08,.61,1.62,.39,1.05,.58,2.21,.5,3.32,0,.05-.08,.05-.08,0h0Z"/><path class="cls-25" d="M107.2,53.87c-.47,1.14-1.89,1.21-2.93,1.46-.74,.18-1.28,.68-1.68,1.32-.43,.7-.72,1.52-.96,2.3,0,0-.02,0-.01,0,.29-1.37,.7-3.02,2.12-3.65,1.13-.51,2.62-.25,3.34-1.48,.04-.06,.15-.02,.12,.05h0Z"/><path class="cls-25" d="M104,64.16c-.82,.67-1.57,1.46-2.17,2.33-.29,.41-.55,.85-.79,1.3-.26,.48-.43,1-.64,1.5-.02,.04-.09,.04-.08-.01,.11-1.07,.79-1.99,1.34-2.89,.28-.46,.63-.84,1.01-1.23,.39-.4,.79-.78,1.25-1.1,.06-.04,.13,.05,.07,.1h0Z"/><path class="cls-25" d="M97.51,62.9c.39,.22,.41,.84,.41,1.24,.01,.76-.17,1.48,.16,2.2,.3,.66,.78,1.2,1.16,1.81,.35,.57,.7,1.3,.7,1.98,0,.04-.06,.06-.08,.02-.14-.31-.19-.66-.3-.99-.12-.37-.28-.7-.48-1.02-.36-.57-.81-1.08-1.11-1.69-.31-.64-.27-1.27-.25-1.97,.01-.44,.06-1.15-.3-1.48-.06-.05,.02-.14,.08-.1h0Z"/></g><path class="cls-5" d="M100.13,70.2c1.58-.02,4.6-.04,4.6-.04l-.75,5.54c-.17,1.25-1.23,2.18-2.49,2.18h-2.72c-1.26,0-2.32-.93-2.49-2.18l-.75-5.54s3.01,.02,4.6,.04Z"/></g><g><g><polygon class="cls-33" points="23.66 59.87 32.69 77.75 59 77.93 50.88 59.61 23.66 59.87"/><path class="cls-19" d="M76.47,77.82v-1.43h-17.04l-7.84-17.19H24.34l-.68,.66h26.61l8.14,17.94s18.05-.03,18.05,.01Z"/></g><path class="cls-5" d="M58.42,77.92s.03,0,.05-.01c.06-.03,.08-.09,.06-.15l-8.18-18.01H23.66c-.06,0-.11,.05-.11,.11s.05,.11,.11,.11h26.54l8.11,17.88s.06,.07,.1,.07Z"/></g><g><rect class="cls-5" x="44.65" y="35.22" width="13.53" height="7.99" rx="1.24" ry="1.24"/><polygon class="cls-5" points="61.33 39.22 57.18 37.47 57.18 40.97 61.33 39.22"/><g><circle class="cls-10" cx="48.79" cy="39.22" r=".76"/><circle class="cls-10" cx="51.42" cy="39.22" r=".76"/><circle class="cls-10" cx="54.04" cy="39.22" r=".76"/></g></g><g><path class="cls-2" d="M102.96,5.02h-25.51c-1.64,0-2.97,1.33-2.97,2.97v12.1c0,1.64,1.33,2.97,2.97,2.97h2.29c.06,1.1-.09,2.73-1.01,4.82,2.95-1.36,4.64-3.4,5.53-4.82h18.7c1.64,0,2.97-1.33,2.97-2.97V7.98c0-1.64-1.33-2.97-2.97-2.97Z"/><path class="cls-5" d="M92.08,10.78h-12.65c-.35,0-.63-.28-.63-.63h0c0-.35,.28-.63,.63-.63h12.65c.35,0,.63,.28,.63,.63h0c0,.35-.28,.63-.63,.63Z"/><path class="cls-26" d="M101.15,14.45h-21.97c-.21,0-.39-.17-.39-.39h0c0-.21,.17-.39,.39-.39h21.97c.21,0,.39,.17,.39,.39h0c0,.21-.17,.39-.39,.39Z"/><path class="cls-26" d="M101.15,16.59h-21.97c-.21,0-.39-.17-.39-.39h0c0-.21,.17-.39,.39-.39h21.97c.21,0,.39,.17,.39,.39h0c0,.21-.17,.39-.39,.39Z"/><path class="cls-26" d="M96.36,18.87h-17.18c-.21,0-.39-.17-.39-.39h0c0-.21,.17-.39,.39-.39h17.18c.21,0,.39,.17,.39,.39h0c0,.21-.17,.39-.39,.39Z"/><path class="cls-5" d="M100.98,10.78h-6.04c-.35,0-.63-.28-.63-.63h0c0-.35,.28-.63,.63-.63h6.04c.35,0,.63,.28,.63,.63h0c0,.35-.28,.63-.63,.63Z"/></g><rect class="cls-17" x="20.25" y="77.87" width="88.32" height="2.28" rx="1.14" ry="1.14"/><g><circle class="cls-18" cx="19.66" cy="19.58" r="16.4" transform="translate(-3.89 34.26) rotate(-76.83)"/><g class="cls-28"><g><g><path class="cls-15" d="M42.71,32.67c.31,1.56-1.14,2.96-1.59,3.22-.45,.26-3.5,1.48-5.33,1.52-1.83,.04-4.24-3.82-3.25-4.26,.99-.43,7.71-.91,8.45-.91s1.72,.43,1.72,.43Z"/><path class="cls-37" d="M37.92,31.84c-.8,4.69-2.69,8.34-3.28,8.41-.59,.07-6.27-1.89-7.84-2.61-1.57-.72,.48-11.73,1.46-11.54,.97,.19,3.11,2.31,4.88,3.32,1.76,1.01,4.79,2.41,4.79,2.41Z"/><path class="cls-9" d="M28.56,33.79c.55,.94,5.06,3.32,7.55,4.19-.61,1.39-1.19,2.24-1.48,2.27-.51,.06-4.74-1.37-6.94-2.23,.18-1.74,.86-4.23,.86-4.23Z"/><path class="cls-15" d="M42.72,32.45c.04,1.86-1.63,2.13-3.64,1.65-2.01-.48-5.29-5-6.74-7.04-1.46-2.04-4.18-5.68-4.75-6.01-.56-.33-1.85-.5-2.96-2.34-1.1-1.84,.35-5.68,.87-6.14,.52-.46,5,1.07,5.52,1.84,.52,.77-.37,4.91-.21,5.43,.16,.52,3.97,4.78,5.63,5.82,1.66,1.04,6.25,5.43,6.29,6.78Z"/><path class="cls-11" d="M27.79,15.65c-.53-.26-.65-1.44-.32-1.24,.33,.21,.91,.2,1.69,.19,.78-.01,1.1-.08,1.1-.08,0,0,.08,.51,.08,.93,0,0-2.03,.45-2.55,.19Z"/><path class="cls-11" d="M24.31,15.92c.32-.59,.57-1.04,.57-1.04l3.08,2.96c.84-.73,1.87-1.4,1.87-1.4l.27,.48c-.5,.84-.93,2.62-.94,3.06,0,0-.47,.52-.74,.56,0,0,3.29,5.21,5.41,7.78,2.1,2.55,3.55,4.75,4.54,5.46-2-1.15-4.73-4.92-6.03-6.73-1.46-2.04-4.18-5.68-4.75-6.01-.56-.33-1.85-.5-2.96-2.34-.44-.73-.47-1.77-.32-2.8Z"/><path class="cls-7" d="M30.72,16.22c-.04,.3-3.1,2.96-3.42,3.26-.02,.02-.26,.06-.33,0-.81-.71-4.36-7.16-4.43-7.4-.06-.22,2.3-2.44,3.02-3.03,.1-.08,.5-.03,.57,.07,.73,1.08,4.63,6.71,4.59,7.1Z"/><path class="cls-8" d="M30.39,16.22c-.04,.3-3.1,2.96-3.42,3.26-.32,.3-4.69-7.15-4.76-7.4-.06-.22,2.57-2.4,3.29-2.99,.1-.08,.23-.07,.3,.03,.73,1.08,4.63,6.71,4.59,7.1Z"/><path class="cls-20" d="M29.87,15.78c-.03,.28-2.9,2.76-3.2,3.05-.3,.28-4.39-6.68-4.45-6.92-.06-.2,2.4-2.24,3.07-2.8,.09-.08,.22-.06,.28,.03,.68,1.01,4.34,6.28,4.29,6.64Z"/><path class="cls-15" d="M28.04,12.15c-.47-.29-1.06-1.25-1.11-1.58s-.02-.62,.23-.68c.25-.07,1.04,.96,1.43,1.26,.39,.3,.87,.93,.67,1.36-.19,.42-1.06,.26-1.15,.2-.09-.07-.07-.55-.07-.55Z"/><path class="cls-11" d="M27.02,9.97c-.15,.37,.83,1.86,1.69,2.29l-.32,.36s-.14-.03-.33-.08c-.03-.16-.02-.4-.02-.4-.47-.29-1.06-1.25-1.11-1.58-.04-.25-.03-.47,.09-.6Z"/><path class="cls-15" d="M29.14,13.65c-.81-.44-1.45-.39-1.9-.57-.44-.18-.52-.86-.22-.98,.3-.11,2.14,.18,2.61,.39,.47,.21,.7,1.19,.7,1.19l-1.19-.04Z"/><path class="cls-11" d="M28.78,13.14c.46,.09,.62,0,.62,0-.01,.18,.16,.27,.35,.53l-.61-.02c-.81-.44-1.45-.39-1.9-.57-.2-.08-.32-.27-.37-.46,.2,.38,1.46,.43,1.91,.52Z"/><path class="cls-15" d="M31.02,14.42c-.43,.6-2.57,.34-3,.28-.43-.07-.7-.34-.66-.61,.09-.55,2.91-.45,3.14-.37,.23,.09,.51,.7,.51,.7Z"/><path class="cls-11" d="M27.38,14.21c.29,.29,.99,.45,1.76,.52,.66,.05,1.04,.03,1.13,.02-.8,.13-1.94-.01-2.25-.06-.36-.05-.59-.25-.64-.48Z"/></g><g><path class="cls-22" d="M21.04,22.85c4.53,2.3,5.27,2.21,7.21,3.26,1.94,1.04,1.37,12.04,1.24,13.73-.12,1.69-.59,8.43-.33,10.26,.26,1.83,1.26,8.6,1.71,9.65,.45,1.04,1.3,2.8-.02,3.85-1.31,1.04-4.1,1.76-10.13,1.37-6.04-.39-12.55-4.11-12.84-4.63-.29-.52,2.89-10.1,3.02-11.93,.13-1.83,.49-3.19,.69-4.04,.19-.85-1.73-4.82-2.04-7.37-.31-2.54-3.07-9.56-2.55-10.84,.52-1.28,5.33-2.72,8.61-4.35,3.28-1.63,5.42,1.04,5.42,1.04Z"/><path class="cls-37" d="M25.53,25.7c-.75,2.45-2.26,4.66-4.28,6.23-2.45-.6-4.94-1.68-6.95-3.21,2.24,1.65,4.69,3.04,7.31,3.99,2.21-1.81,3.52-4.18,3.92-7.01Z"/><path class="cls-15" d="M24.6,24.53c-.87-.37-1.99-.88-3.56-1.68,0,0-2.15-2.68-5.42-1.04-1.14,.57-2.46,1.11-3.72,1.63,1.95,3.32,5.11,5.92,8.76,7.15,1.92-1.52,3.31-3.69,3.94-6.05Z"/><path class="cls-9" d="M7.88,60.33c-.29-.52,2.89-10.1,3.02-11.93,.13-1.83,.49-3.19,.69-4.04,.19-.85-1.73-4.82-2.04-7.37-.05-.44-.18-1.02-.35-1.68l2.04-1.52c1.2,3.34,1.94,9.2,3.08,10.64,1.13,1.43,3.96,2.02,3.96,2.02,0,0-2.79,.65-4.01,.39,0,0-1.3,5.15-1.31,7.69-.01,2.54,.22,6.39,.25,6.91,.01,.19-.03,.87-.09,1.65-2.92-1.16-5.07-2.47-5.23-2.76Z"/><path class="cls-15" d="M16.13,17.17c-.05,2.72-.23,4.59-.83,5.11,0,0,1.04,4.51,5.18,4.13,1.4-.13,1.27-2.48,.56-3.56l.42-3.34-5.33-2.34Z"/><path class="cls-11" d="M15.62,21.8h0c.35-.83,.48-2.46,.51-4.63l5.33,2.34-.27,2.14h0c-.94,.42-5.57,.15-5.57,.15Z"/></g><g><path class="cls-15" d="M1.46,39.17c-.92,1.26-2.14,4.39-1.68,5.82,.46,1.43,5.21,7.82,7.38,10.21s2.67,2.78,3.04,3.56c.38,.78,2.23,4.01,2.71,4.5,.49,.49,1.36,.55,1.36,.55,0,0,.65,.72,1.91,.59,0,0,1.09,.75,1.96,.95,0,0,.29,.55,.58,.6,.29,.05,.66-.54,.12-1.71-.53-1.17-1.41-1.66-1.55-2.41-.14-.75-.82-2.28-.82-2.28,0,0,1.52,1.56,2.46,1.66s1.06-.46,.55-.91c-.51-.46-1.18-1.14-1.8-2.02-.62-.88-1.39-1.47-2.59-1.63-1.19-.16-2.03-.29-2.34-.52-.31-.23-1.87-2.44-2.94-4.83-1.07-2.39-2.02-5.44-4.73-8.13l1.19-2.09-4.81-1.91Z"/><path class="cls-11" d="M18.11,65.2c-.23-.66-.66-1.22-1.12-1.73l-.19-.18c-.05-.06-.15-.13-.17-.16-.09-.12-.17-.28-.26-.42-.17-.29-.34-.59-.53-.88,.09,.34,.21,.66,.35,.98,.07,.16,.14,.31,.24,.47,.08,.11,.13,.13,.19,.2l.17,.18c.23,.24,.46,.49,.68,.75,.22,.25,.43,.52,.64,.79Z"/><path class="cls-11" d="M16.14,64.18c-.18-.35-.39-.66-.58-.98-.2-.32-.38-.63-.56-.98-.02,.41,.13,.8,.33,1.13,.21,.33,.47,.62,.81,.83Z"/><path class="cls-11" d="M15.18,64.32c-.59-.17-.9-.5-.9-.5,0,0-.88-.07-1.36-.55-.2-.2-.63-.86-1.09-1.62,0,.01,.56,.61,.95,1.1,.55,.69,1.35,.46,1.35,.46l-.11-.64s.53,1.44,1.16,1.75Z"/><path class="cls-11" d="M-.24,43.4c.03,.59,.03,1.07,.92,2.63,.99,1.76,6.96,9.16,8.26,10.53,1.3,1.37,1.26,1.46,2.03,3.62-.35-.61-.64-1.14-.76-1.41-.38-.78-.87-1.17-3.04-3.56S.24,46.43-.22,44.99c-.13-.42-.12-.98-.02-1.59Z"/><path class="cls-11" d="M4.44,41.69l-.48,.81s.66,.18,1.13,.67l.95-1.61-1.59,.13Z"/><path class="cls-37" d="M10.15,37.27c1.25-2.45,1.75-6.43,.62-8.52-1.12-2.09-3.25-2.85-3.77-2.6-.52,.25-1.93,3.52-3.26,5.03-1.32,1.51-4.94,5.74-5.05,6.09-.11,.36,2.61,3.23,7.74,5.34,.61,.25,3.72-5.34,3.72-5.34Z"/><path class="cls-9" d="M6.35,39.17l-.82,1.68s4.03-4.04,5.7-7.05c-.2,1.26-.58,2.49-1.08,3.47,0,0-3.11,5.59-3.72,5.34-.88-.36-1.68-.75-2.41-1.13l2.33-2.31Z"/></g><g><path class="cls-16" d="M21.76,17.41c-.28-1.12-.27-2.27-.34-3.41-.05-.86-.09-1.64-.87-2.16-.57-.37-1.28-.45-1.95-.36-1.8,.23-2.19,1.98-2.05,3.64,.11,1.27,.6,2.49,1.09,3.66-.66-.03-1.56-.38-1.96-.93,.18,.72,.51,1.39,1.04,1.9-1.92-.03-3.7-1.29-4.71-2.97s-1.34-3.74-1.23-5.72c.13-2.35,.86-4.71,2.32-6.52,2.93-3.64,8.56-4.07,12-.94,1.18,1.08,2.04,2.52,2.46,4.08,.56,2.06,.55,4.26,.11,6.34-.18,.86-.26,1.61-.35,2.47-.03,.27-.35,3.37-.16,3.36-1.21,.07-2.6-.17-3.42-1.1,.37,.64,.69,1.25,1.05,1.88-1.53-.25-2.65-1.68-3.04-3.23Z"/><path class="cls-15" d="M15.48,13.18c-.54-.32-1.19-.49-1.69,.02-.74,.75,.31,4.24,1.9,3.39,0,0,2.31,3.23,4,4.14s2.9,.46,3.53-.2c.63-.65,2.8-3.33,3.19-6.16,.14-1.01,0-3,.02-3.42,.09-1.3,.59-2.37-.44-3.4-1.04-1.03-2.48-1.66-3.94-1.71-1.84-.07-3.69,.76-4.91,2.15-1.35,1.53-1.58,3.26-1.66,5.19Z"/><path class="cls-11" d="M14.05,14.15c.14-.64,.68-.76,1.09-.32,.42,.46,.49,1.9,.38,2.11-.11,.21-.82,.2-.96-.24-.14-.44,.28-.72,.68-.59,0,0,.11-.64-.22-1.06-.33-.41-.67-.26-.75-.15-.08,.11-.22,.24-.22,.24Z"/><g><path class="cls-21" d="M18.46,11.33c.15-.14,.32-.28,.49-.4,.17-.12,.36-.24,.55-.33,.19-.09,.4-.19,.61-.21,.21-.02,.43,0,.62,.08v.03c-.11,.04-.21,.07-.3,.1l-.29,.08c-.19,.05-.38,.07-.57,.13-.19,.06-.37,.14-.56,.23-.18,.09-.36,.2-.54,.3l-.02-.02Z"/><path class="cls-21" d="M25.67,10.59c-.17-.09-.36-.16-.55-.2-.19-.04-.39-.06-.58-.07-.2,0-.39,.04-.59,.03-.2,0-.39,0-.61-.02v-.03c.18-.13,.39-.21,.6-.25,.21-.04,.43,0,.63,.02,.21,.03,.41,.08,.6,.16,.19,.08,.37,.18,.52,.32l-.02,.02Z"/><path class="cls-21" d="M20.4,12.47c0-.28-.15-.49-.31-.47-.16,.02-.29,.25-.28,.53,0,.28,.15,.49,.31,.47,.16-.02,.29-.25,.28-.53Z"/><path class="cls-21" d="M24.75,12.12c0-.28-.12-.49-.26-.48-.13,.01-.24,.25-.23,.52,0,.28,.12,.49,.26,.48,.13-.01,.24-.25,.23-.52Z"/><path class="cls-11" d="M21.76,15.15c.38,.26,.93,.26,1.34-.01-.05,.21-.14,.42-.35,.49-.21,.08-.43,.05-.62-.03-.19-.09-.25-.28-.37-.45Z"/><g><path class="cls-36" d="M20.25,16.77c.91,.01,3.1-.15,3.81-.25-.28,.92-1.02,1.83-2.05,1.83-.93,0-1.54-.76-1.76-1.58Z"/><path class="cls-23" d="M21.08,18.04c.36-.11,.73-.05,.88,0,0,0,.48-.34,1.18-.12-.32,.26-.7,.42-1.13,.42-.36,0-.67-.11-.93-.3Z"/><path class="cls-5" d="M23.44,17.28c-.92,.29-1.93,.2-2.79-.11,0-.14-.02-.27-.03-.41,.9-.02,2.35-.13,3.13-.21-.07,.25-.17,.5-.31,.73Z"/></g></g><path class="cls-16" d="M16.39,10.18c1.48-.06,2.95-.39,4.32-.96,.26-.6,.27-1.14,.31-1.79,.37,.68,.59,1.45,.63,2.23,.86-.06,1.73-.1,2.59-.16,.24-.68,.27-1.39,.23-2.11,.29,.68,.44,1.54,.54,2.27,.52-.19,1.18,.08,1.73,.18,.67-1.5,.63-4.23-.8-5.37-1.39-1.11-3.81-1.41-5.5-1.17-3.61,.52-6.46,3.52-6.23,7.26,.13,2.13,1.2,4.15,2.73,5.64-.91-1.82-1.09-4.06-.56-6.02Z"/></g></g></g></g><g><path class="cls-38" d="M33.99,68.16h-.45l.08,.15,.48,.05,.62,1.2c.35,.68,.22,.92-.28,.92-.45,0-.84-.2-1.18-.85l-.16-.3c-.17-.33-.34-.65-.5-.97l.43-.04-.08-.15h-1.23l.08,.15,.38,.04c.18,.33,.35,.66,.52,.98l.21,.41c.37,.7,.95,1.01,1.59,1.01,.59,0,.89-.29,.48-1.09l-.68-1.3,.36-.04-.08-.15h-.6Z"/><path class="cls-38" d="M36.44,68.85c-.23,0-.41,.09-.52,.29l-.16-.25-.09-.04-.48,.23,.07,.13,.37,.03c.09,.15,.15,.27,.26,.48l.56,1.08c.11,.2,.21,.4,.31,.61l-.33,.05,.07,.13h1.12l-.07-.13-.44-.06c-.11-.2-.22-.41-.33-.61l-.16-.31c.29,.19,.52,.25,.72,.25,.51,0,.71-.37,.41-.95s-.86-.94-1.32-.94Zm.73,1.68c-.16,0-.36-.06-.6-.2l-.55-1.06c.15-.17,.3-.22,.43-.22,.33,0,.7,.28,.95,.76s.1,.71-.24,.71Z"/><path class="cls-38" d="M40.23,68.16h-.24l.15,2.1-2.09-2.1h-.79l.08,.15,.42,.04,1.11,2.14-.37,.05,.08,.15h.98l-.08-.15-.38-.05-.63-1.21-.4-.72,2.12,2.12h.22l-.14-2.12,.5,.95c.17,.33,.34,.66,.5,.98l-.35,.04,.08,.15h1.19l-.08-.15-.43-.04c-.18-.33-.35-.65-.52-.98l-.1-.19c-.17-.33-.34-.66-.5-.98l.39-.04-.08-.15h-.61Z"/><path class="cls-38" d="M44.13,70.53c-.1,0-.19-.06-.28-.23l-.42-.8c-.25-.48-.56-.65-1.01-.65s-.67,.18-.61,.46c.06,.09,.16,.15,.28,.15s.15-.06,.14-.17l-.04-.25c.08-.02,.16-.03,.23-.03,.29,0,.46,.09,.65,.46l.05,.09c-.16,.04-.32,.08-.44,.13-.49,.19-.54,.36-.43,.57,.16,.31,.51,.47,.83,.47,.26,0,.35-.1,.49-.3,.13,.18,.33,.29,.54,.29,.15,0,.24-.05,.27-.19l-.13-.08s-.05,.08-.13,.08Zm-1.53-.32c-.06-.11-.09-.25,.24-.39,.08-.03,.22-.08,.35-.12l.3,.57c-.18,.16-.24,.21-.39,.21-.2,0-.4-.08-.5-.28Z"/><path class="cls-38" d="M45.02,68.85c-.24,0-.39,.18-.38,.49l-.29-.45-.09-.04-.48,.23,.07,.13,.37,.03c.09,.15,.15,.27,.26,.48l.09,.18c.09,.17,.22,.42,.31,.61l-.3,.05,.07,.13h1.05l-.07-.13-.4-.06c-.1-.19-.23-.44-.32-.6l-.15-.28c-.03-.22,0-.38,.11-.49l.08,.04c.11,.06,.21,.09,.31,.09,.18,0,.2-.1,.11-.28-.09-.08-.25-.13-.38-.13Z"/><path class="cls-38" d="M47.04,69.53l.27-.43,.38-.05-.07-.14h-1.02l.07,.14,.36,.07-.4,.68-.69-1.33-.26-.54-.08-.03-.58,.17,.07,.13,.38,.04,.86,1.66c.11,.2,.21,.4,.31,.61l-.33,.05,.07,.13h1.08l-.07-.13-.38-.05c-.09-.16-.18-.33-.26-.49l.16-.26,1.17,.94h.58l-.07-.13-.31-.05-1.24-.98Z"/><path class="cls-38" d="M49.2,69.65l-.15-.04c-.35-.09-.49-.16-.58-.33-.08-.16,0-.26,.28-.26,.11,0,.22,.02,.34,.07l.22,.3h.22l-.18-.38c-.24-.1-.45-.15-.69-.15-.49,0-.62,.25-.48,.53,.13,.26,.42,.4,.79,.51l.24,.06c.32,.09,.5,.17,.58,.33,.09,.17,0,.29-.35,.29-.14,0-.26-.02-.39-.06l-.25-.32h-.23l.23,.41c.26,.09,.48,.14,.72,.14,.56,0,.71-.26,.57-.54-.12-.23-.38-.41-.89-.55Z"/></g><ellipse class="cls-34" cx="75.71" cy="36.11" rx="1.37" ry="1.6"/><path class="cls-35" d="M75.04,27.66s.7-.4,.81-1.07c0,0,.18,.71-.3,1s-.51,.07-.51,.07Z"/><path class="cls-35" d="M75.67,27.79s-.49-.64-.34-1.3c0,0-.44,.58-.11,1.04s.45,.26,.45,.26Z"/></g></g></g></g></svg>