<?xml version="1.0" encoding="UTF-8"?><svg xmlns="http://www.w3.org/2000/svg" viewBox="0 0 83.8 58.16"><defs><style>.cls-1{fill:#e04912;}.cls-2{fill:#fdc613;}.cls-3,.cls-4{fill:#002a6d;}.cls-3,.cls-5{opacity:.23;}.cls-6{fill:#fff;}.cls-7{fill:#6c69ee;}.cls-8{fill:#8ea5c4;}.cls-9{fill:#04377d;}.cls-10{fill:#546e7a;}.cls-11{fill:#ff5f26;}.cls-12{fill:#c1272d;}.cls-13{isolation:isolate;}.cls-14{fill:#d0004c;}.cls-15{fill:#f15a24;}.cls-16{opacity:.2;}.cls-17{fill:#d1c500;}.cls-18{fill:#f98b00;}.cls-19{fill:#b4c3d8;mix-blend-mode:multiply;}.cls-20{opacity:.55;}.cls-20,.cls-21{fill:#d0533e;}.cls-22{fill:#006837;}.cls-23{fill:#636b76;}.cls-24{fill:#d4dde9;}.cls-25{fill:#e6e6e6;}.cls-26{fill:#0071bc;}.cls-26,.cls-27{mix-blend-mode:overlay;}.cls-28{fill:#ffc0bb;}.cls-29{fill:#fe0;}.cls-30{fill:#ffa526;}.cls-4{opacity:.17;}.cls-31{fill:#faa700;}.cls-32{fill:#f9a59f;}.cls-33{fill:#b1e3fb;}.cls-34{fill:#788f9b;}.cls-35{fill:#43699d;}.cls-36{fill:#ce6700;}.cls-37{stroke-width:.21px;}.cls-37,.cls-38{stroke:#fff;}.cls-37,.cls-38,.cls-39{fill:none;stroke-miterlimit:10;}.cls-40{fill:#ccc;}.cls-41{fill:#f5f7fa;}.cls-42{fill:#6987b1;}.cls-43{fill:#fd5001;}.cls-44{fill:#b3b3b3;}.cls-38{stroke-width:.08px;}.cls-38,.cls-39{stroke-linecap:round;}.cls-45{fill:#1a1a1a;}.cls-46{fill:#d04200;}.cls-47{fill:#dff3fd;}.cls-48{fill:#2acfac;}.cls-39{opacity:.45;stroke:#732e0f;stroke-width:.36px;}.cls-49{fill:red;}.cls-50{fill:#cd8900;}.cls-51{fill:#fc7c00;}.cls-52{fill:#ff005c;}.cls-5{fill:#913911;}.cls-53{fill:#5c7daa;}</style></defs><g class="cls-13"><g id="Layer_2"><g id="Layer_1-2"><g><path class="cls-9" d="M62.99,9.09s1.04-4.29-1-5.35C51.42-1.77,21.88-1.67,14.12,7.23c-8.52,9.76-5.9,50.84-5.9,50.84h61.92S90.86,15.4,81.26,5.86c-3.24-3.23-18.27,3.23-18.27,3.23Z"/><path class="cls-9" d="M74.07,58.07H8.22S-3.53,40.16,1.07,35.39c11.43-11.88,66.95-18.83,79.29-7.45,6.5,5.99-6.28,30.13-6.28,30.13Z"/><circle class="cls-6" cx="40.95" cy="16" r="10.87"/><path class="cls-6" d="M64.81,18.89c4.29,0,7.78,3.49,7.78,7.78s-3.49,7.78-7.78,7.78-7.78-3.49-7.78-7.78,3.49-7.78,7.78-7.78m0-.21c-4.41,0-7.99,3.58-7.99,7.99s3.58,7.99,7.99,7.99,7.99-3.58,7.99-7.99-3.58-7.99-7.99-7.99h0Z"/><path class="cls-6" d="M35.17,29.75h0c2.79,0,5.09,2.1,5.36,4.87,.29,2.96-1.89,5.6-4.85,5.89-.18,.02-.35,.03-.53,.03-2.79,0-5.09-2.1-5.36-4.87-.29-2.96,1.89-5.6,4.85-5.89,.18-.02,.35-.03,.53-.03m0-.21c-.18,0-.36,0-.55,.03-3.08,.3-5.33,3.03-5.03,6.11,.28,2.89,2.72,5.06,5.57,5.06,.18,0,.36,0,.55-.03,3.08-.3,5.33-3.03,5.03-6.11-.28-2.89-2.72-5.06-5.57-5.06h0Z"/><path class="cls-6" d="M24.29,5.59c2.45,0,4.45,1.99,4.45,4.45s-1.99,4.45-4.45,4.45-4.45-1.99-4.45-4.45,1.99-4.45,4.45-4.45m0-.21c-2.57,0-4.65,2.08-4.65,4.65s2.08,4.65,4.65,4.65,4.65-2.08,4.65-4.65-2.08-4.65-4.65-4.65h0Z"/><path class="cls-6" d="M56.65,3.8h0c2.27,0,4.23,1.62,4.68,3.84,.51,2.58-1.17,5.1-3.75,5.61-.31,.06-.62,.09-.94,.09-2.27,0-4.23-1.62-4.68-3.84-.51-2.58,1.17-5.1,3.75-5.61,.31-.06,.62-.09,.94-.09m0-.21c-.32,0-.65,.03-.98,.1-2.7,.54-4.45,3.16-3.91,5.86,.47,2.37,2.55,4.01,4.88,4.01,.32,0,.65-.03,.98-.1,2.7-.54,4.45-3.16,3.91-5.86-.47-2.37-2.55-4.01-4.88-4.01h0Z"/><line class="cls-37" x1="31.33" y1="11.97" x2="28.79" y2="11.01"/><line class="cls-37" x1="41.16" y1="16.61" x2="36.98" y2="30.01"/><line class="cls-37" x1="50.42" y1="20.16" x2="57.6" y2="23.57"/><line class="cls-37" x1="49.5" y1="11.5" x2="52.04" y2="10.47"/><g><path class="cls-2" d="M43.78,18.19c-.9,.98-1.35,2.28-1.24,3.58h-3.19c.11-1.29-.31-2.58-1.21-3.54-.64-.69-1.03-1.61-1.03-2.62,0-2.1,1.71-3.82,3.81-3.84,2.13-.01,3.87,1.71,3.87,3.84,0,1-.38,1.9-1,2.59Z"/><ellipse class="cls-23" cx="40.94" cy="22.46" rx="1.6" ry="1.48"/><rect class="cls-44" x="39.26" y="20.61" width="3.36" height="2.52" rx=".46" ry=".46"/><path class="cls-27" d="M42.49,16s.04-.1,0-.14c-.04-.04-.1-.04-.14,0-.39,.4-.83,.01-.85,0l-.08-.07-.07,.09c-.09,.11-.18,.17-.3,.18-.25,.02-.49-.19-.49-.2l-.07-.07-.07,.07c-.11,.13-.24,.2-.39,.2-.28,.02-.54-.21-.54-.21-.04-.04-.1-.03-.14,0-.04,.04-.03,.1,0,.14,0,0,.03,.02,.07,.05l.78,2.93c-.06,.09-.1,.2-.1,.32v1.23h.28v-1.23c0-.16,.13-.29,.29-.29h.54c.16,0,.29,.13,.29,.29v1.23h.28v-1.23c0-.12-.04-.23-.1-.33l.74-2.95s.03-.02,.04-.04Zm-1.41,.25c.12-.01,.22-.05,.32-.13l-.24,1.44h-.36l-.23-1.46c.12,.08,.31,.17,.51,.15Zm-.34,1.7h.43v.79h-.43v-.79Zm-.22-1.88h0Zm-.18,2.8l-.72-2.71c.11,.05,.25,.1,.4,.1h.04c.13,0,.24-.05,.35-.12l.22,1.41h-.04c-.11,0-.2,.09-.2,.2s.09,.2,.2,.2h0v.8c-.1,.02-.19,.06-.26,.12Zm1.26,0c-.08-.06-.18-.11-.29-.12v-.79c.1,0,.18-.09,.18-.2s-.07-.18-.17-.19l.24-1.42c.19,.1,.46,.16,.72,.03l-.68,2.7Z"/><path class="cls-40" d="M43.1,20.92c0,.11-.04,.21-.11,.28-.07,.07-.17,.11-.28,.11h-3.53c-.2,0-.36-.15-.39-.34,0-.02,0-.04,0-.05,0-.11,.04-.21,.11-.28,.07-.07,.17-.11,.28-.11h3.53c.22,0,.39,.18,.39,.39Z"/><path class="cls-25" d="M41.85,20.79c0,.07-.03,.14-.08,.19-.05,.05-.11,.08-.19,.08h-2.61c-.08,0-.15-.03-.19-.09,0-.02,0-.04,0-.05,0-.11,.04-.21,.11-.28,.07-.07,.17-.11,.28-.11h2.41c.15,0,.27,.12,.27,.27Z"/><path class="cls-40" d="M42.93,21.87c0,.1-.04,.19-.11,.26-.07,.07-.16,.11-.26,.11h-3.25c-.17,0-.32-.12-.35-.28,0-.03,0-.06,0-.08,0-.1,.04-.19,.11-.26,.07-.07,.16-.11,.26-.11h3.25c.2,0,.36,.16,.36,.36Z"/><path class="cls-25" d="M41.71,21.73c0,.06-.03,.12-.07,.16-.04,.04-.1,.07-.16,.07h-2.53s0-.06,0-.08c0-.1,.04-.19,.11-.26,.07-.07,.16-.11,.26-.11h2.17c.12,0,.22,.1,.22,.22Z"/><path class="cls-40" d="M42.79,22.82c0,.09-.03,.16-.09,.22-.06,.06-.13,.09-.22,.09h-3.08c-.15,0-.28-.11-.3-.25,0-.02,0-.04,0-.06,0-.09,.03-.16,.09-.22,.06-.06,.13-.09,.22-.09h3.08c.17,0,.31,.14,.31,.31Z"/><path class="cls-25" d="M41.57,22.7c0,.05-.02,.1-.05,.13-.03,.03-.08,.05-.13,.05h-2.29s0-.04,0-.06c0-.09,.03-.16,.09-.22,.06-.06,.13-.09,.22-.09h1.99c.1,0,.18,.08,.18,.18Z"/><g><g><path class="cls-2" d="M35.26,19.95c.69-.56,1.41-1.09,2.14-1.6-.69,.56-1.41,1.09-2.14,1.6,0,0,.73-.51,0,0Z"/><path class="cls-2" d="M46.64,19.95c-.73-.51-1.45-1.04-2.14-1.6,.73,.51,1.45,1.04,2.14,1.6,0,0-.69-.56,0,0Z"/></g><g><path class="cls-2" d="M35.5,10.44c.68,.58,1.33,1.18,1.97,1.81-.68-.58-1.33-1.18-1.97-1.81,0,0,.64,.63,0,0Z"/><path class="cls-2" d="M46.4,10.44c-.64,.63-1.29,1.23-1.97,1.81,.64-.63,1.29-1.23,1.97-1.81,0,0-.68,.58,0,0Z"/></g><path class="cls-2" d="M40.91,8.05c.06,.89,.09,1.78,.09,2.67-.06-.89-.09-1.78-.09-2.67,0,0,0,.89,0,0Z"/><g><path class="cls-2" d="M48.27,15.45c-.89,0-1.78-.03-2.67-.09,.89,0,1.78,.03,2.67,.09,0,0-.89-.06,0,0Z"/><path class="cls-2" d="M36.3,15.45c-.89,0-1.78-.03-2.67-.09,.89,0,1.78,.03,2.67,.09,0,0-.89-.06,0,0Z"/></g></g></g><g><path class="cls-40" d="M60.15,24.94v6.64h9.08c.14,0,.26-.12,.26-.26h0c0-.14-.12-.26-.26-.26h-8.5v-6.12c0-.16-.13-.29-.29-.29h0c-.16,0-.29,.13-.29,.29Z"/><rect class="cls-52" x="61.48" y="28.45" width="1.04" height="2.25"/><rect class="cls-43" x="62.99" y="28.05" width="1.04" height="2.66"/><rect class="cls-51" x="64.51" y="27.35" width="1.04" height="3.37"/><rect class="cls-31" x="66.02" y="26.79" width="1.04" height="3.94"/><rect class="cls-29" x="67.54" y="25.6" width="1.04" height="5.14"/><path class="cls-48" d="M61.51,27.52c1.25-.38,3.43-1.34,5.1-3.67l-.94-.57c-.06-.04-.05-.12,0-.15l2.76-1.37c.06-.03,.12,.01,.12,.08v3.03c0,.07-.07,.11-.12,.07l-.91-.56s-2.16,2.8-5.99,3.3c-.1,.01-.13-.13-.03-.16Z"/><rect class="cls-14" x="61.48" y="30.05" width="1.04" height=".66"/><rect class="cls-46" x="62.99" y="29.79" width="1.04" height=".93"/><rect class="cls-36" x="64.51" y="29.38" width="1.04" height="1.35"/><rect class="cls-50" x="66.02" y="29.21" width="1.04" height="1.52"/><rect class="cls-17" x="67.54" y="28.45" width="1.04" height="2.29"/></g><g><rect class="cls-34" x="55.68" y="9.41" width="1.58" height=".6" transform="translate(17.58 51.79) rotate(-57.02)"/><rect class="cls-10" x="55.81" y="9.64" width="1.58" height=".3" transform="translate(17.57 51.93) rotate(-57.02)"/><circle class="cls-34" cx="57.92" cy="7.49" r="2.05"/><path class="cls-33" d="M59.55,7.14c.19,.9-.38,1.79-1.28,1.98-.46,.1-.91,0-1.27-.24-.35-.23-.61-.6-.71-1.04-.19-.9,.38-1.79,1.28-1.98,.45-.1,.89,0,1.25,.23,.36,.23,.63,.6,.73,1.05Z"/><circle class="cls-47" cx="57.92" cy="7.49" r="1.46"/><path class="cls-26" d="M59.55,7.14c.19,.9-.38,1.79-1.28,1.98-.46,.1-.91,0-1.27-.24l1.82-2.79c.36,.23,.63,.6,.73,1.05Z"/><path class="cls-30" d="M56.89,9.98l-1.33,2.05c-.15,.23-.46,.3-.7,.15-.12-.08-.19-.19-.22-.32s0-.26,.07-.38l1.33-2.05,.84,.55Z"/><path class="cls-18" d="M56.89,9.98l-1.33,2.05c-.15,.23-.46,.3-.7,.15l1.61-2.48,.42,.27Z"/></g><g><path class="cls-49" d="M27.3,10.04c0,1.66-1.34,3.01-2.99,3.01-1.68,0-3.03-1.34-3.04-3.01,0-1.68,1.35-3.03,3.05-3.03,1.64,0,2.98,1.36,2.98,3.02Zm-3.02-2.71c-1.44,0-2.69,1.21-2.7,2.64,0,1.54,1.18,2.77,2.68,2.78,1.49,.01,2.72-1.19,2.73-2.69,.02-1.5-1.19-2.72-2.71-2.73Z"/><path class="cls-49" d="M24.61,10.96s-.07,.01-.1,.01c-.17,0-.34,0-.51,0-.03-.33,0-.63,.24-.87,.12-.12,.25-.22,.35-.35,.09-.11,.18-.24,.21-.37,.06-.26-.12-.5-.36-.54-.3-.05-.56,.11-.63,.39-.01,.04-.02,.09-.03,.13-.08,0-.14,0-.21,0-.14-.01-.27-.03-.42-.04,.05-.4,.23-.72,.59-.91,.46-.25,1.12-.17,1.45,.16,.34,.34,.38,.92,.08,1.3-.07,.09-.14,.17-.23,.24-.27,.22-.52,.45-.44,.85Z"/><path class="cls-49" d="M24.31,11.29c.22,0,.41,.18,.41,.39,0,.23-.2,.42-.43,.41-.22,0-.41-.19-.41-.4,0-.23,.19-.4,.43-.4Z"/></g><g><rect class="cls-7" x="32.34" y="31.27" width="5.64" height="7.74" rx=".28" ry=".28"/><path class="cls-6" d="M35.16,32.01c.75,0,1.36,.62,1.36,1.37,0,.33-.12,.65-.34,.9-.26,.3-.63,.47-1.03,.47s-.77-.17-1.03-.47c-.22-.25-.34-.57-.34-.9,0-.76,.61-1.37,1.36-1.37m0-.08c-.8,0-1.45,.65-1.45,1.46,0,.37,.13,.7,.36,.96,.27,.31,.66,.5,1.09,.5s.83-.19,1.09-.5c.22-.26,.36-.59,.36-.96,0-.8-.65-1.46-1.45-1.46h0Z"/><path class="cls-6" d="M35.16,32.82c.21,0,.39,.17,.39,.39s-.17,.39-.39,.39-.39-.17-.39-.39,.17-.39,.39-.39m0-.08c-.26,0-.47,.21-.47,.47s.21,.47,.47,.47,.47-.21,.47-.47-.21-.47-.47-.47h0Z"/><path class="cls-6" d="M35.16,33.76c.43,0,.82,.22,.99,.56-.26,.28-.62,.43-.99,.43s-.74-.16-.99-.43c.17-.34,.56-.56,.99-.56m0-.08c-.5,0-.93,.28-1.09,.66,.27,.31,.66,.5,1.09,.5s.83-.19,1.09-.5c-.16-.39-.59-.66-1.09-.66h0Z"/><line class="cls-38" x1="32.84" y1="35.43" x2="37.47" y2="35.43"/><line class="cls-38" x1="32.84" y1="36.29" x2="37.47" y2="36.29"/><line class="cls-38" x1="32.84" y1="37.14" x2="37.47" y2="37.14"/><line class="cls-38" x1="32.84" y1="38" x2="35.79" y2="38"/></g><g><g><g><path class="cls-28" d="M36.86,50.25s2.26-.83,3.09-.89c.83-.06,2.14,.77,2.5,1.37,.36,.59-.89,.6-1.73,.6s-.3,1.31-3.87,.53v-1.61Z"/><path class="cls-1" d="M24.7,34.97c-2.71,1.76-.37,14.69,.11,16.39,.48,1.7,4.34,1.94,12.14,1.94,0,0,.6-2.32,0-4.7,0,0-3.37-.13-8.09-.57,0,0-.56-15.4-4.16-13.06Z"/></g><g><g><path class="cls-11" d="M27.71,54.6c0,.71,0,1.32,0,1.8H10c-.04-.47-.08-1.09-.12-1.8-.01-.22-.03-.46-.04-.7,0-.17-.02-.35-.03-.54-.02-.46-.05-.94-.07-1.44,0-.17-.02-.34-.02-.52-.23-6.2-.09-15.15,2.48-17.09,1.92-1.45,7.11-.86,7.99-.92,.51-.04,2.37,.1,3.96,.63,1.17,.39,2.19,1,2.42,1.91,.82,3.36,1.07,10.35,1.13,15.47,0,.18,0,.35,0,.52,0,.5,0,.99,.01,1.44,0,.18,0,.36,0,.54,0,.24,0,.47,0,.7Z"/><path class="cls-3" d="M24.14,34.03c-.11,.81-.63,2.12-2.84,2.83-2.81,.9-4.39-.77-4.81,.59-.27,.9-.59,7.68-.57,13.95,0,.17,0,.35,0,.52,0,.49,0,.97,.02,1.44,0,.18,0,.36,0,.54,0,.24,0,.47,.02,.7,.01,.62,.03,1.22,.06,1.8h-6.02c-.04-.47-.08-1.09-.12-1.8-.01-.22-.03-.46-.04-.7,0-.17-.02-.35-.03-.54-.02-.46-.05-.94-.07-1.44,0-.17-.02-.34-.02-.52-.23-6.2-.09-15.15,2.48-17.09,1.92-1.45,7.11-.86,7.99-.92,.51-.04,2.37,.1,3.96,.63Z"/></g><path class="cls-6" d="M16.45,33.3s-.44,0-.96,.16c0,0,.41,2.48,3.23,3.06,3.09,.63,4.91-1.39,5.07-2.63,0,0-.1-.19-.86-.33-.76-.14-6.48-.25-6.48-.25Z"/></g><g><path class="cls-28" d="M26.83,50.78c-.83,0-.3,1.31-3.87,.53v-1.61s.84-.31,1.69-.57c.54-.16,1.08-.3,1.41-.32,.79-.06,1.99,.68,2.43,1.26,.03,.04,.05,.07,.07,.11,.36,.59-.89,.6-1.73,.6Z"/><path class="cls-5" d="M26.83,50.78c-.83,0-.3,1.31-3.87,.53v-1.61s.84-.31,1.69-.57c-.17,.3-.24,.59,.05,.69,.52,.19,2.26,.15,3.79,.25,.03,.04,.05,.07,.07,.11,.36,.59-.89,.6-1.73,.6Z"/><path class="cls-15" d="M23.31,50.76c-.05,1.18-.26,2.01-.26,2.01-7.79,0-13.68-.24-14.16-1.99-.48-1.74-.02-14.43,2.69-16.23,1.01-.67,1.87,.02,2.38,1.39h0c.31,.82,.49,1.89,.51,3.04,.06,3.74-.19,8.48-.19,8.48,4.72,.45,8.76,.49,8.76,.49,.25,1,.29,1.99,.26,2.81Z"/><path class="cls-4" d="M23.31,50.76c-.05,1.18-.26,2.01-.26,2.01-7.79,0-13.68-.24-14.16-1.99-.48-1.74-.02-14.43,2.69-16.23,1.01-.67,1.87,.02,2.38,1.39-.64-1.14-2.47-1.81-2.62,5.56-.15,7.38-1.02,8.77,1.53,9.14,1.5,.22,6.54,.18,10.44,.11Z"/></g></g><g><g><path class="cls-28" d="M22.8,34.47h0c-.4,.67-1.26,1.51-2.83,1.46-2.45-.07-3.92-2.04-3.68-2.48,.24-.43,1.24-.23,1.36-.54,.13-.31-.21-4.53-.21-4.53,1.37,1.75,4.4,1.66,4.4,1.66,0,0-.02,.65-.01,1.36,.02,.85,.08,1.79,.3,1.87,.4,.15,.91,.24,.95,.44,.02,.07-.07,.39-.29,.75Z"/><path class="cls-5" d="M22.8,34.49c-.4,.66-1.26,1.5-2.83,1.45-2.45-.07-3.92-2.04-3.68-2.48,.24-.43,1.24-.23,1.36-.54,.13-.31-.21-4.53-.21-4.53,1.37,1.75,4.4,1.66,4.4,1.66,0,0-.02,.65-.01,1.36-.49-.05-1.19-.15-1.9-.4-1.31-.45-.89,.91-.95,1.63-.06,.71-.72,.97-.31,2.08,.41,1.1,3.06,1.3,4.13-.23Z"/></g><g><g><path class="cls-45" d="M29.13,23.42c-.51,1.2-1.87,1.5-1.87,1.5,0,0,.21-1.34,.09-1.9,0,0-1.52-.03-1.73-1.37,0,0-1.68,1.37-3.1-.51,0,0-.56,3.03-3.36,1.22,0,0,.04,.32,.02,.76-.06,.94-.43,2.43-2.21,2.58,0,0-.17-.54-.9-.72,0,0-1.16,.04-1.52-1.23-.36-1.27,.54-1.77,.54-1.77,0,0-.95-1.07-.36-2.23s1.62-1.01,1.62-1.01c0,0-.83-1.25,.31-2.17,1.14-.92,2-.3,2-.3,0,0,.13-1.1,1.52-1.25,1.39-.15,1.83,.92,1.83,.92,0,0,1.4-1.49,3.37-.68s1.9,2.38,1.9,2.38c0,0,1.37-.15,1.96,1.16,.6,1.31-.56,2.56-.56,2.56,0,0,.95,.87,.45,2.07Z"/><path d="M22.01,15.94s-1.36-.82-2.14,.09c-.77,.91,0,1.5,0,1.5,0,0-1.43-.98-2.14,.19-.71,1.17,.94,1.23,.94,1.23,0,0-2.31-.09-2.31,1.44,0,1.53,1.13,1.29,1.13,1.29,0,0-1.25,.24-1.13,1.55,.12,1.31,1.98,1.12,2.4,0,.06-.16,.22-.19,.42-.11-.06,.94-.43,2.43-2.21,2.58,0,0-.17-.54-.9-.72,0,0-1.16,.04-1.52-1.23-.36-1.27,.54-1.77,.54-1.77,0,0-.95-1.07-.36-2.23s1.62-1.01,1.62-1.01c0,0-.83-1.25,.31-2.17,1.14-.92,2-.3,2-.3,0,0,.13-1.1,1.52-1.25,1.39-.15,1.83,.92,1.83,.92Z"/></g><g><g><path class="cls-28" d="M27.08,28.85c-.49,1.16-1.49,1.75-2.68,2-1.12,.24-2.4,.18-3.57,.02-2.41-.33-4.19-2.06-3.81-5.51,0,0,2.08-.06,1.76-3.65,0,0,.86,1.25,2.29,.77,1.38-.46,1.15-1.99,1.13-2.08,.04,.09,.73,1.54,2.14,1.48,1.26-.05,1.37-.68,1.37-.85,.02,.28,.21,1.82,1.88,1.68,0,0,.44,3.87-.52,6.13Z"/><path class="cls-5" d="M27.59,22.72s-1.05,.64-2-.73c0,0-1.62,1.19-3.07-.54,0,0-.23,1.35-1.58,1.48-1.35,.13-.7,1.58-1.59,2.43-.89,.85-.71,6.02,5.06,5.49-1.12,.24-2.4,.18-3.57,.02-2.41-.33-4.19-2.06-3.81-5.51,0,0,2.08-.06,1.76-3.65,0,0,.86,1.25,2.29,.77,1.38-.46,1.15-1.99,1.13-2.08,.04,.09,.73,1.54,2.14,1.48,1.26-.05,1.37-.68,1.37-.85,.02,.28,.21,1.82,1.88,1.68Z"/></g><g><path class="cls-32" d="M17.02,25.36s-.53-.95-1.22-.36c-.82,.7,.22,3.29,1.39,2.93l-.17-2.57Z"/><path class="cls-20" d="M16.28,25.65c.39,.05,.54,1.22,.18,1.18-.36-.04-.57-1.23-.18-1.18Z"/></g></g><g><g><path class="cls-45" d="M25.97,25.65c0,.31,.13,.56,.29,.56s.29-.25,.29-.56-.13-.56-.29-.56-.29,.25-.29,.56Z"/><path class="cls-45" d="M22.01,25.65c0,.31,.13,.56,.29,.56s.29-.25,.29-.56-.13-.56-.29-.56-.29,.25-.29,.56Z"/></g><path class="cls-21" d="M24.48,25.36c-.3,0-.48,.97-.24,1.2,.24,.23,1.06,.04,1.01-.32-.04-.33-.58-.16-.58-.16,0,0,.03-.72-.19-.73Z"/><path class="cls-39" d="M24.83,28.04c0,.16-1,.51-1.87-.76"/><g><path class="cls-45" d="M22.52,23.66v-.02c-.02-.13-.12-.22-.23-.22-.2,0-.53,0-.83,.14-.1,.04-.17,.16-.17,.29h0c0,.18,.15,.31,.3,.27,.15-.04,.38-.09,.71-.13,.14-.02,.24-.16,.22-.32Z"/><path class="cls-45" d="M25.71,23.69v-.02c0-.13,.09-.23,.19-.24,.18-.02,.48-.03,.75,.08,.1,.04,.17,.15,.17,.28h0c0,.18-.11,.32-.24,.29-.13-.03-.35-.06-.65-.08-.12,0-.23-.15-.23-.31Z"/></g></g></g></g></g><g><g><path class="cls-41" d="M58.68,37.32l-5.14,14.39c-.04,.11-.14,.18-.26,.18l-14.99,.15c-.19,0-.32-.18-.27-.36l4.63-14.75c.04-.12,.15-.2,.27-.19l15.51,.2c.19,0,.32,.19,.26,.37Z"/><path class="cls-24" d="M27.57,51.96v-.92c0-.15,.13-.28,.28-.28h9.6c.12,0,.23-.08,.26-.19l4.51-13.98c.04-.11,.14-.19,.26-.19h15.78c.09,0,.17,.04,.22,.11h0c.13,.18,0,.44-.22,.44h-15c-.12,0-.23,.08-.26,.19l-4.76,14.89c0,.12-10.67,.06-10.67-.08Z"/><path class="cls-24" d="M50.72,45.2c-.18,.75-1.13,1.32-2.13,1.29s-1.67-.67-1.5-1.41c.18-.75,1.13-1.32,2.13-1.29,1,.04,1.67,.67,1.5,1.41Z"/></g><path class="cls-6" d="M38.24,52.04s-.02,0-.03,0c-.03-.02-.05-.08-.03-.13l4.77-14.85c.04-.11,.14-.19,.26-.19h15.26s.07,.04,.07,.1-.03,.1-.07,.1h-15.17c-.12,0-.23,.08-.26,.19l-4.74,14.74s-.04,.06-.06,.06Z"/></g><g><g><rect class="cls-35" x="8.07" y="52.9" width="23.71" height="5.26"/><rect class="cls-42" x="31.65" y="52.9" width="42.65" height="5.26"/></g><polygon class="cls-19" points="31.78 52.9 31.65 52.9 8.07 52.9 8.07 53.87 31.65 53.87 31.78 53.87 74.3 53.87 74.3 52.9 31.78 52.9"/><rect class="cls-53" x="6.93" y="51.87" width="25.89" height="1.29"/><rect class="cls-8" x="32.68" y="51.87" width="42.65" height="1.29"/></g><g><g><path class="cls-12" d="M57.84,49.76h14.28c.09,0,.17,.07,.17,.17v1.77c0,.09-.07,.17-.17,.17h-14.28c-.27,0-.49-.22-.49-.49v-1.12c0-.27,.22-.49,.49-.49Z"/><path class="cls-6" d="M72.29,51.41h-13.96c-.07,0-.13-.06-.13-.13v-.92c0-.07,.06-.13,.13-.13h13.96v1.19Z"/></g><rect class="cls-16" x="65.38" y="49.74" width="6.92" height="2.14"/></g><g><g><path class="cls-22" d="M58.83,47.58h14.28c.09,0,.17,.07,.17,.17v1.77c0,.09-.07,.17-.17,.17h-14.28c-.27,0-.49-.22-.49-.49v-1.12c0-.27,.22-.49,.49-.49Z"/><path class="cls-6" d="M73.28,49.22h-13.96c-.07,0-.13-.06-.13-.13v-.92c0-.07,.06-.13,.13-.13h13.96v1.19Z"/></g><rect class="cls-16" x="66.36" y="47.56" width="6.92" height="2.14"/></g></g></g></g></g></svg>