<?xml version="1.0" encoding="UTF-8"?><svg xmlns="http://www.w3.org/2000/svg" xmlns:xlink="http://www.w3.org/1999/xlink" viewBox="0 0 93.12 98.13"><defs><style>.cls-1{fill:url(#_åçûìÿííûé_ãðàäèåíò_13-2);}.cls-2{fill:url(#linear-gradient-4);}.cls-2,.cls-3,.cls-4,.cls-5,.cls-6,.cls-7,.cls-8,.cls-9,.cls-10,.cls-11,.cls-12,.cls-13,.cls-14,.cls-15,.cls-16,.cls-17,.cls-18,.cls-19,.cls-20,.cls-21,.cls-22,.cls-23,.cls-24,.cls-25,.cls-26,.cls-27,.cls-28,.cls-29,.cls-30,.cls-31,.cls-32,.cls-33,.cls-34,.cls-35,.cls-36,.cls-37,.cls-38,.cls-39,.cls-40,.cls-41,.cls-42,.cls-43,.cls-44,.cls-45{fill-rule:evenodd;}.cls-3{fill:url(#_åçûìÿííûé_ãðàäèåíò_70-15);}.cls-3,.cls-46,.cls-47,.cls-48,.cls-5,.cls-6,.cls-7,.cls-8,.cls-49,.cls-9,.cls-10,.cls-50,.cls-51,.cls-14,.cls-52,.cls-53,.cls-54,.cls-55,.cls-56,.cls-15,.cls-57,.cls-16,.cls-17,.cls-18,.cls-19,.cls-20,.cls-58,.cls-22,.cls-26,.cls-27,.cls-28,.cls-29,.cls-59,.cls-60,.cls-31,.cls-61,.cls-33,.cls-34,.cls-35,.cls-37,.cls-38,.cls-39,.cls-40,.cls-44,.cls-45{mix-blend-mode:multiply;}.cls-3,.cls-46,.cls-5,.cls-49,.cls-51,.cls-52,.cls-54,.cls-55,.cls-15,.cls-57,.cls-62,.cls-27,.cls-29,.cls-59,.cls-31,.cls-33,.cls-35,.cls-39,.cls-40,.cls-44{opacity:.5;}.cls-63,.cls-13{fill:#c44a4c;}.cls-46{fill:url(#_åçûìÿííûé_ãðàäèåíò_70-9);}.cls-64{fill:url(#_åçûìÿííûé_ãðàäèåíò_71-2);}.cls-65{fill:url(#_åçûìÿííûé_ãðàäèåíò_16);}.cls-66{fill:#fff;}.cls-67{fill:url(#_åçûìÿííûé_ãðàäèåíò_3-2);}.cls-47{fill:url(#_åçûìÿííûé_ãðàäèåíò_118);}.cls-48{fill:url(#_åçûìÿííûé_ãðàäèåíò_123-4);}.cls-48,.cls-10,.cls-16,.cls-60,.cls-37{opacity:.91;}.cls-4{fill:url(#_åçûìÿííûé_ãðàäèåíò_90-2);}.cls-68{fill:url(#_åçûìÿííûé_ãðàäèåíò_11-8);}.cls-5{fill:url(#_åçûìÿííûé_ãðàäèåíò_70-4);}.cls-6{fill:url(#_åçûìÿííûé_ãðàäèåíò_409-5);opacity:.4;}.cls-69{fill:url(#_åçûìÿííûé_ãðàäèåíò_11-3);}.cls-7{fill:url(#_åçûìÿííûé_ãðàäèåíò_69-3);}.cls-7,.cls-8,.cls-14,.cls-17,.cls-18,.cls-19,.cls-20,.cls-22,.cls-28,.cls-34,.cls-38,.cls-45{opacity:.6;}.cls-70{fill:url(#_åçûìÿííûé_ãðàäèåíò_115);}.cls-71{fill:url(#_åçûìÿííûé_ãðàäèåíò_12-2);}.cls-72{fill:url(#_åçûìÿííûé_ãðàäèåíò_66);}.cls-73{fill:url(#_åçûìÿííûé_ãðàäèåíò_7);}.cls-74{fill:url(#_åçûìÿííûé_ãðàäèåíò_11-9);}.cls-75{fill:#ffebed;}.cls-76{fill:#632d46;}.cls-77{fill:#f58e6f;}.cls-8{fill:url(#_åçûìÿííûé_ãðàäèåíò_69-4);}.cls-49{fill:url(#_åçûìÿííûé_ãðàäèåíò_70-7);}.cls-9{fill:url(#_åçûìÿííûé_ãðàäèåíò_70);}.cls-9,.cls-26{opacity:.2;}.cls-78{fill:url(#linear-gradient-6);}.cls-10{fill:url(#_åçûìÿííûé_ãðàäèåíò_123);}.cls-79{fill:url(#_åçûìÿííûé_ãðàäèåíò_4-4);}.cls-11{fill:#dd6668;}.cls-80{fill:url(#_åçûìÿííûé_ãðàäèåíò_11-4);}.cls-81{isolation:isolate;}.cls-82{fill:url(#_åçûìÿííûé_ãðàäèåíò_55);}.cls-83{fill:url(#_åçûìÿííûé_ãðàäèåíò_64);}.cls-50{fill:url(#_åçûìÿííûé_ãðàäèåíò_158);}.cls-84{fill:url(#_åçûìÿííûé_ãðàäèåíò_4-2);}.cls-51{fill:url(#_åçûìÿííûé_ãðàäèåíò_6);}.cls-12{fill:url(#linear-gradient-2);}.cls-85{fill:#ffe000;}.cls-86{fill:url(#_åçûìÿííûé_ãðàäèåíò_12-4);}.cls-14{fill:url(#_åçûìÿííûé_ãðàäèåíò_409-9);}.cls-52{fill:url(#_åçûìÿííûé_ãðàäèåíò_17-2);}.cls-87{fill:url(#_åçûìÿííûé_ãðàäèåíò_132-3);}.cls-88{fill:url(#linear-gradient-11);}.cls-53{fill:url(#_åçûìÿííûé_ãðàäèåíò_70-11);}.cls-53,.cls-58{opacity:.65;}.cls-89,.cls-23{fill:#cc5268;}.cls-54{fill:url(#_åçûìÿííûé_ãðàäèåíò_70-10);}.cls-90{fill:url(#_åçûìÿííûé_ãðàäèåíò_66-2);}.cls-55{fill:url(#_åçûìÿííûé_ãðàäèåíò_17);}.cls-91{fill:url(#_åçûìÿííûé_ãðàäèåíò_115-3);}.cls-56{fill:url(#_åçûìÿííûé_ãðàäèåíò_6-3);}.cls-56,.cls-61{opacity:.7;}.cls-92{fill:url(#_åçûìÿííûé_ãðàäèåíò_132-2);}.cls-93{fill:url(#_åçûìÿííûé_ãðàäèåíò_139);}.cls-94{fill:url(#_åçûìÿííûé_ãðàäèåíò_139-2);}.cls-95{fill:#333;}.cls-15{fill:url(#_åçûìÿííûé_ãðàäèåíò_70-5);}.cls-96{fill:url(#linear-gradient-10);}.cls-97{fill:url(#_åçûìÿííûé_ãðàäèåíò_75);}.cls-57{fill:url(#_åçûìÿííûé_ãðàäèåíò_6-5);}.cls-62{mix-blend-mode:soft-light;}.cls-16{fill:url(#_åçûìÿííûé_ãðàäèåíò_123-3);}.cls-98{fill:url(#_åçûìÿííûé_ãðàäèåíò_14-2);}.cls-99{fill:url(#_åçûìÿííûé_ãðàäèåíò_14);}.cls-100{fill:url(#radial-gradient);}.cls-17{fill:url(#_åçûìÿííûé_ãðàäèåíò_409-3);}.cls-18{fill:url(#_åçûìÿííûé_ãðàäèåíò_409-6);}.cls-101{fill:url(#_åçûìÿííûé_ãðàäèåíò_134);}.cls-19{fill:url(#_åçûìÿííûé_ãðàäèåíò_409-7);}.cls-20{fill:url(#_åçûìÿííûé_ãðàäèåíò_69);}.cls-21{fill:url(#linear-gradient-5);}.cls-102{fill:url(#_åçûìÿííûé_ãðàäèåíò_11-10);}.cls-58{fill:url(#_åçûìÿííûé_ãðàäèåíò_70-8);}.cls-103{fill:url(#_åçûìÿííûé_ãðàäèåíò_4-6);}.cls-104{fill:url(#_åçûìÿííûé_ãðàäèåíò_4-3);}.cls-22{fill:url(#_åçûìÿííûé_ãðàäèåíò_409-4);}.cls-105{fill:url(#_åçûìÿííûé_ãðàäèåíò_12-5);}.cls-106{fill:url(#_åçûìÿííûé_ãðàäèåíò_7-4);}.cls-107{fill:url(#_åçûìÿííûé_ãðàäèåíò_11-6);}.cls-108{fill:url(#_åçûìÿííûé_ãðàäèåíò_11-2);}.cls-24{fill:url(#_åçûìÿííûé_ãðàäèåíò_146);}.cls-25{fill:url(#_åçûìÿííûé_ãðàäèåíò_90);}.cls-109{fill:#77485e;}.cls-110{fill:url(#_åçûìÿííûé_ãðàäèåíò_26);}.cls-26{fill:url(#_åçûìÿííûé_ãðàäèåíò_70-6);}.cls-111{fill:url(#_åçûìÿííûé_ãðàäèåíò_147);}.cls-27{fill:url(#_åçûìÿííûé_ãðàäèåíò_70-3);}.cls-28{fill:url(#_åçûìÿííûé_ãðàäèåíò_409);}.cls-112{fill:url(#_åçûìÿííûé_ãðàäèåíò_97-2);}.cls-113{fill:url(#linear-gradient-7);}.cls-114{fill:url(#_åçûìÿííûé_ãðàäèåíò_11-7);}.cls-115{fill:url(#_åçûìÿííûé_ãðàäèåíò_13);}.cls-29{fill:url(#_åçûìÿííûé_ãðàäèåíò_70-17);}.cls-59{fill:url(#_åçûìÿííûé_ãðàäèåíò_6-4);}.cls-116{fill:#ef4700;}.cls-117{fill:url(#_åçûìÿííûé_ãðàäèåíò_12-3);}.cls-118{fill:url(#_åçûìÿííûé_ãðàäèåíò_4-5);}.cls-60{fill:url(#_åçûìÿííûé_ãðàäèåíò_123-2);}.cls-119{fill:url(#_åçûìÿííûé_ãðàäèåíò_7-3);}.cls-30{fill:url(#_åçûìÿííûé_ãðàäèåíò_11);}.cls-31{fill:url(#_åçûìÿííûé_ãðàäèåíò_70-12);}.cls-120{fill:#ff3c00;}.cls-121{fill:url(#_åçûìÿííûé_ãðàäèåíò_26-2);}.cls-122{fill:url(#_åçûìÿííûé_ãðàäèåíò_4);}.cls-123{fill:url(#linear-gradient-9);}.cls-124{fill:url(#_åçûìÿííûé_ãðàäèåíò_7-2);}.cls-61{fill:url(#_åçûìÿííûé_ãðàäèåíò_6-2);}.cls-32{fill:url(#_åçûìÿííûé_ãðàäèåíò_67-2);}.cls-33{fill:url(#_åçûìÿííûé_ãðàäèåíò_70-13);}.cls-34{fill:url(#_åçûìÿííûé_ãðàäèåíò_69-2);}.cls-125{fill:url(#linear-gradient);}.cls-126{fill:url(#_åçûìÿííûé_ãðàäèåíò_3);}.cls-35{fill:url(#_åçûìÿííûé_ãðàäèåíò_70-18);}.cls-127{fill:url(#_åçûìÿííûé_ãðàäèåíò_87);}.cls-128{fill:url(#_åçûìÿííûé_ãðàäèåíò_26-3);}.cls-129{fill:url(#_åçûìÿííûé_ãðàäèåíò_12);}.cls-130{fill:url(#_åçûìÿííûé_ãðàäèåíò_134-2);}.cls-131{fill:url(#_åçûìÿííûé_ãðàäèåíò_97);}.cls-36{fill:url(#linear-gradient-3);}.cls-132{fill:#522f2e;}.cls-37{fill:url(#_åçûìÿííûé_ãðàäèåíò_123-5);}.cls-38{fill:url(#_åçûìÿííûé_ãðàäèåíò_409-2);}.cls-39{fill:url(#_åçûìÿííûé_ãðàäèåíò_70-16);}.cls-40{fill:url(#_åçûìÿííûé_ãðàäèåíò_70-14);}.cls-133{fill:url(#_åçûìÿííûé_ãðàäèåíò_71);}.cls-41{fill:url(#_åçûìÿííûé_ãðàäèåíò_67);}.cls-42{fill:url(#_åçûìÿííûé_ãðàäèåíò_11-5);}.cls-134{fill:url(#linear-gradient-8);}.cls-43{fill:url(#_åçûìÿííûé_ãðàäèåíò_146-2);}.cls-44{fill:url(#_åçûìÿííûé_ãðàäèåíò_70-2);}.cls-135{fill:#ff6100;}.cls-136{fill:url(#_åçûìÿííûé_ãðàäèåíò_115-2);}.cls-137{fill:url(#linear-gradient-12);}.cls-45{fill:url(#_åçûìÿííûé_ãðàäèåíò_409-8);}.cls-138{fill:url(#linear-gradient-13);}.cls-139{fill:url(#_åçûìÿííûé_ãðàäèåíò_132);}</style><linearGradient id="_åçûìÿííûé_ãðàäèåíò_11" x1="10.85" y1="26.66" x2="28.91" y2="26.66" gradientTransform="matrix(1, 0, 0, 1, 0, 0)" gradientUnits="userSpaceOnUse"><stop offset=".02" stop-color="#ffae78"/><stop offset="1" stop-color="#ff957c"/></linearGradient><linearGradient id="_åçûìÿííûé_ãðàäèåíò_90" x1="21.21" y1="29.31" x2="28.64" y2="29.31" gradientTransform="matrix(1, 0, 0, 1, 0, 0)" gradientUnits="userSpaceOnUse"><stop offset="0" stop-color="#d6023e"/><stop offset=".99" stop-color="#ff432c"/></linearGradient><linearGradient id="_åçûìÿííûé_ãðàäèåíò_70" x1="1130.25" y1="650.33" x2="1130.25" y2="646.73" gradientTransform="translate(1301.28 287.12) rotate(-138.82) scale(1 -1)" gradientUnits="userSpaceOnUse"><stop offset=".01" stop-color="#be6888"/><stop offset="1" stop-color="#8e81f4"/></linearGradient><linearGradient id="_åçûìÿííûé_ãðàäèåíò_11-2" x1="13.97" y1="-37.35" x2="13.97" y2="-51.47" gradientTransform="translate(9.17 64.94) rotate(-21.58)" xlink:href="#_åçûìÿííûé_ãðàäèåíò_11"/><linearGradient id="_åçûìÿííûé_ãðàäèåíò_67" x1="26.66" y1="95.18" x2="26.66" y2="51.31" gradientTransform="matrix(1, 0, 0, 1, 0, 0)" gradientUnits="userSpaceOnUse"><stop offset="0" stop-color="#724fa5"/><stop offset="1" stop-color="#721fb1"/></linearGradient><linearGradient id="_åçûìÿííûé_ãðàäèåíò_6" x1="26.66" y1="95.18" x2="26.66" y2="51.31" gradientTransform="matrix(1, 0, 0, 1, 0, 0)" gradientUnits="userSpaceOnUse"><stop offset=".01" stop-color="#63517c"/><stop offset="1" stop-color="#8e72b3"/></linearGradient><linearGradient id="linear-gradient" x1="30.12" y1="14.71" x2="30.12" y2="10.48" gradientTransform="matrix(1, 0, 0, 1, 0, 0)" gradientUnits="userSpaceOnUse"><stop offset=".01" stop-color="#512438"/><stop offset=".99" stop-color="#5e1a31"/></linearGradient><linearGradient id="_åçûìÿííûé_ãðàäèåíò_118" x1="25.3" y1="53.14" x2="25.3" y2="51.31" gradientTransform="matrix(1, 0, 0, 1, 0, 0)" gradientUnits="userSpaceOnUse"><stop offset="0" stop-color="#8e81bf"/><stop offset=".99" stop-color="#be6888"/></linearGradient><linearGradient id="_åçûìÿííûé_ãðàäèåíò_6-2" x1="31.25" y1="76.31" x2="31.25" y2="74.24" xlink:href="#_åçûìÿííûé_ãðàäèåíò_6"/><linearGradient id="_åçûìÿííûé_ãðàäèåíò_6-3" x1="18.32" y1="74.91" x2="18.32" y2="73.06" xlink:href="#_åçûìÿííûé_ãðàäèåíò_6"/><linearGradient id="_åçûìÿííûé_ãðàäèåíò_158" x1="24.13" y1="61.56" x2="24.13" y2="56.4" gradientTransform="matrix(1, 0, 0, 1, 0, 0)" gradientUnits="userSpaceOnUse"><stop offset="0" stop-color="#8e81f4"/><stop offset=".99" stop-color="#be6888"/></linearGradient><linearGradient id="_åçûìÿííûé_ãðàäèåíò_90-2" x1="27.54" y1="52.17" x2="27.54" y2="25.66" xlink:href="#_åçûìÿííûé_ãðàäèåíò_90"/><linearGradient id="_åçûìÿííûé_ãðàäèåíò_4" x1="32.17" y1="28.93" x2="32.17" y2="22.31" gradientTransform="matrix(1, 0, 0, 1, 0, 0)" gradientUnits="userSpaceOnUse"><stop offset=".02" stop-color="#ff8359"/><stop offset="1" stop-color="#ff8b7c"/></linearGradient><linearGradient id="_åçûìÿííûé_ãðàäèåíò_123" x1="32.82" y1="24.89" x2="32.82" y2="22.45" gradientTransform="matrix(1, 0, 0, 1, 0, 0)" gradientUnits="userSpaceOnUse"><stop offset=".02" stop-color="#f0c2d6"/><stop offset=".99" stop-color="#bd89c4"/></linearGradient><linearGradient id="_åçûìÿííûé_ãðàäèåíò_11-3" x1="32.75" y1="24.52" x2="32.75" y2="12.13" xlink:href="#_åçûìÿííûé_ãðàäèåíò_11"/><linearGradient id="_åçûìÿííûé_ãðàäèåíò_7" x1="14.92" y1="97.62" x2="14.92" y2="92.63" gradientTransform="matrix(1, 0, 0, 1, 0, 0)" gradientUnits="userSpaceOnUse"><stop offset=".01" stop-color="#680e38"/><stop offset=".99" stop-color="#832e31"/></linearGradient><linearGradient id="_åçûìÿííûé_ãðàäèåíò_7-2" x1="36.83" y1="97.49" x2="36.83" y2="92.13" xlink:href="#_åçûìÿííûé_ãðàäèåíò_7"/><linearGradient id="_åçûìÿííûé_ãðàäèåíò_4-2" x1="8.84" y1="97.01" x2="21" y2="97.01" xlink:href="#_åçûìÿííûé_ãðàäèåíò_4"/><linearGradient id="_åçûìÿííûé_ãðàäèåíò_4-3" x1="32.14" y1="96.75" x2="41.52" y2="96.75" xlink:href="#_åçûìÿííûé_ãðàäèåíò_4"/><linearGradient id="_åçûìÿííûé_ãðàäèåíò_17" x1="10.78" y1="94.9" x2="21.01" y2="94.9" gradientTransform="matrix(1, 0, 0, 1, 0, 0)" gradientUnits="userSpaceOnUse"><stop offset=".01" stop-color="#be6888"/><stop offset="1" stop-color="#8ea6ba"/></linearGradient><linearGradient id="_åçûìÿííûé_ãðàäèåíò_17-2" x1="32.14" y1="94.81" x2="38.13" y2="94.81" xlink:href="#_åçûìÿííûé_ãðàäèåíò_17"/><linearGradient id="_åçûìÿííûé_ãðàäèåíò_4-4" x1="36.8" y1="23.28" x2="36.8" y2="20.03" xlink:href="#_åçûìÿííûé_ãðàäèåíò_4"/><linearGradient id="_åçûìÿííûé_ãðàäèåíò_26" x1="35.51" y1="20.83" x2="35.51" y2="8.09" gradientTransform="matrix(1, 0, 0, 1, 0, 0)" gradientUnits="userSpaceOnUse"><stop offset=".01" stop-color="#512438"/><stop offset=".99" stop-color="#832e31"/></linearGradient><linearGradient id="_åçûìÿííûé_ãðàäèåíò_70-2" x1="26.56" y1="51.04" x2="26.56" y2="35.54" gradientTransform="matrix(1, 0, 0, 1, 0, 0)" xlink:href="#_åçûìÿííûé_ãðàäèåíò_70"/><linearGradient id="_åçûìÿííûé_ãðàäèåíò_409" x1="33.26" y1="10.73" x2="33.26" y2="8.12" gradientTransform="matrix(1, 0, 0, 1, 0, 0)" gradientUnits="userSpaceOnUse"><stop offset="0" stop-color="#ffeadb"/><stop offset=".99" stop-color="#b060f4"/></linearGradient><linearGradient id="_åçûìÿííûé_ãðàäèåíò_409-2" x1="36.26" y1="12.49" x2="36.26" y2="8.7" xlink:href="#_åçûìÿííûé_ãðàäèåíò_409"/><linearGradient id="_åçûìÿííûé_ãðàäèåíò_115" x1="33.85" y1="14.16" x2="33.85" y2="9.62" gradientTransform="matrix(1, 0, 0, 1, 0, 0)" gradientUnits="userSpaceOnUse"><stop offset="0" stop-color="#6f2e45"/><stop offset=".99" stop-color="#a6453d"/></linearGradient><linearGradient id="_åçûìÿííûé_ãðàäèåíò_16" x1="39.17" y1="15.5" x2="39.17" y2="12.69" gradientTransform="matrix(1, 0, 0, 1, 0, 0)" gradientUnits="userSpaceOnUse"><stop offset=".01" stop-color="#a6453d"/><stop offset=".99" stop-color="#6f2e45"/></linearGradient><linearGradient id="_åçûìÿííûé_ãðàäèåíò_70-3" x1="23.97" y1="44.81" x2="23.97" y2="28.35" gradientTransform="matrix(1, 0, 0, 1, 0, 0)" xlink:href="#_åçûìÿííûé_ãðàäèåíò_70"/><linearGradient id="_åçûìÿííûé_ãðàäèåíò_11-4" x1="33.53" y1="38.9" x2="33.53" y2="31.82" xlink:href="#_åçûìÿííûé_ãðàäèåíò_11"/><linearGradient id="_åçûìÿííûé_ãðàäèåíò_409-3" x1="32.61" y1="38.44" x2="32.61" y2="32.25" xlink:href="#_åçûìÿííûé_ãðàäèåíò_409"/><linearGradient id="_åçûìÿííûé_ãðàäèåíò_14" x1="33.07" y1="18.19" x2="33.07" y2="16.45" gradientTransform="matrix(1, 0, 0, 1, 0, 0)" gradientUnits="userSpaceOnUse"><stop offset="0" stop-color="#d0c7f8"/><stop offset="1" stop-color="#fff"/></linearGradient><linearGradient id="_åçûìÿííûé_ãðàäèåíò_14-2" x1="29.2" y1="17.63" x2="29.2" y2="15.71" xlink:href="#_åçûìÿííûé_ãðàäèåíò_14"/><linearGradient id="_åçûìÿííûé_ãðàäèåíò_132" x1="33.9" y1="16.46" x2="33.9" y2="14.3" gradientTransform="matrix(1, 0, 0, 1, 0, 0)" gradientUnits="userSpaceOnUse"><stop offset="0" stop-color="#4f223a"/><stop offset=".99" stop-color="#7d363d"/></linearGradient><linearGradient id="_åçûìÿííûé_ãðàäèåíò_132-2" x1="29.64" y1="15.53" x2="29.64" y2="14.09" xlink:href="#_åçûìÿííûé_ãðàäèåíò_132"/><linearGradient id="_åçûìÿííûé_ãðàäèåíò_13" x1="83.33" y1="201.18" x2="83.33" y2="199.53" gradientTransform="translate(1.1 -171.39) rotate(16.29) scale(1 .86)" gradientUnits="userSpaceOnUse"><stop offset="0" stop-color="#c2862e"/><stop offset=".98" stop-color="#74422f"/></linearGradient><linearGradient id="_åçûìÿííûé_ãðàäèåíò_13-2" x1="-169.02" y1="201.24" x2="-169.02" y2="199.59" gradientTransform="translate(189.86 -115.98) rotate(16.29) scale(.69 .86)" xlink:href="#_åçûìÿííûé_ãðàäèåíò_13"/><linearGradient id="_åçûìÿííûé_ãðàäèåíò_139" x1="30.04" y1="22.45" x2="30.04" y2="20.16" gradientTransform="matrix(1, 0, 0, 1, 0, 0)" gradientUnits="userSpaceOnUse"><stop offset="0" stop-color="#bd5042"/><stop offset=".99" stop-color="#812545"/></linearGradient><linearGradient id="_åçûìÿííûé_ãðàäèåíò_123-2" x1="28.07" y1="20.86" x2="32" y2="20.86" xlink:href="#_åçûìÿííûé_ãðàäèåíò_123"/><linearGradient id="_åçûìÿííûé_ãðàäèåíò_69" x1="35.67" y1="21.79" x2="37.8" y2="21.79" gradientTransform="matrix(1, 0, 0, 1, 0, 0)" gradientUnits="userSpaceOnUse"><stop offset="0" stop-color="#b060f4"/><stop offset="1" stop-color="#ffeadb"/></linearGradient><radialGradient id="_åçûìÿííûé_ãðàäèåíò_3" cx="30.34" cy="17.66" fx="30.34" fy="17.66" r=".61" gradientTransform="matrix(1, 0, 0, 1, 0, 0)" gradientUnits="userSpaceOnUse"><stop offset="0" stop-color="#ffbd0c"/><stop offset="1" stop-color="#ff9036"/></radialGradient><linearGradient id="_åçûìÿííûé_ãðàäèåíò_409-4" x1="33.85" y1="13.87" x2="33.85" y2="10.27" xlink:href="#_åçûìÿííûé_ãðàäèåíò_409"/><linearGradient id="_åçûìÿííûé_ãðàäèåíò_70-4" x1="29.03" y1="51.78" x2="29.03" y2="50.83" gradientTransform="matrix(1, 0, 0, 1, 0, 0)" xlink:href="#_åçûìÿííûé_ãðàäèåíò_70"/><linearGradient id="_åçûìÿííûé_ãðàäèåíò_70-5" x1="25.82" y1="46.39" x2="25.82" y2="39.2" gradientTransform="matrix(1, 0, 0, 1, 0, 0)" xlink:href="#_åçûìÿííûé_ãðàäèåíò_70"/><linearGradient id="_åçûìÿííûé_ãðàäèåíò_12" x1="45.34" y1="81.22" x2="45.34" y2="79.4" gradientTransform="translate(-53.94 -58.34) rotate(-7.56)" gradientUnits="userSpaceOnUse"><stop offset="0" stop-color="#ffb195"/><stop offset=".98" stop-color="#ffae78"/></linearGradient><linearGradient id="_åçûìÿííûé_ãðàäèåíò_12-2" x1="10.2" y1="-46.35" x2="10.2" y2="-48.84" gradientTransform="translate(9.17 64.94) rotate(-21.58)" xlink:href="#_åçûìÿííûé_ãðàäèåíò_12"/><linearGradient id="_åçûìÿííûé_ãðàäèåíò_12-3" x1="9.78" y1="-45.28" x2="9.78" y2="-46.99" gradientTransform="translate(9.17 64.94) rotate(-21.58)" xlink:href="#_åçûìÿííûé_ãðàäèåíò_12"/><linearGradient id="_åçûìÿííûé_ãðàäèåíò_12-4" x1="9.44" y1="-44.21" x2="9.44" y2="-45.38" gradientTransform="translate(9.17 64.94) rotate(-21.58)" xlink:href="#_åçûìÿííûé_ãðàäèåíò_12"/><linearGradient id="_åçûìÿííûé_ãðàäèåíò_12-5" x1="14.81" y1="-47.33" x2="14.81" y2="-51.47" gradientTransform="translate(9.17 64.94) rotate(-21.58)" xlink:href="#_åçûìÿííûé_ãðàäèåíò_12"/><linearGradient id="_åçûìÿííûé_ãðàäèåíò_11-5" x1="36.07" y1="34.64" x2="44.23" y2="34.64" xlink:href="#_åçûìÿííûé_ãðàäèåíò_11"/><linearGradient id="linear-gradient-2" x1="34.06" y1="30.34" x2="40.99" y2="30.34" gradientTransform="matrix(1, 0, 0, 1, 0, 0)" gradientUnits="userSpaceOnUse"><stop offset="0" stop-color="#ff432c"/><stop offset="1" stop-color="#d6023e"/></linearGradient><linearGradient id="_åçûìÿííûé_ãðàäèåíò_70-6" x1="36.94" y1="32.81" x2="36.94" y2="31.78" gradientTransform="matrix(1, 0, 0, 1, 0, 0)" xlink:href="#_åçûìÿííûé_ãðàäèåíò_70"/><linearGradient id="_åçûìÿííûé_ãðàäèåíò_409-5" x1="40" y1="36.06" x2="40" y2="35.61" xlink:href="#_åçûìÿííûé_ãðàäèåíò_409"/><linearGradient id="linear-gradient-3" x1="74.08" y1="29.34" x2="74.08" y2="20.7" gradientTransform="matrix(1, 0, 0, 1, 0, 0)" gradientUnits="userSpaceOnUse"><stop offset="0" stop-color="#ff957c"/><stop offset=".98" stop-color="#ffae78"/></linearGradient><linearGradient id="_åçûìÿííûé_ãðàäèåíò_11-6" x1="82.9" y1="24.04" x2="82.9" y2="9.61" xlink:href="#_åçûìÿííûé_ãðàäèåíò_11"/><linearGradient id="_åçûìÿííûé_ãðàäèåíò_69-2" x1="40.68" y1="54.78" x2="40.68" y2="52.54" xlink:href="#_åçûìÿííûé_ãðàäèåíò_69"/><linearGradient id="_åçûìÿííûé_ãðàäèåíò_123-3" x1="69.9" y1="28.15" x2="71.9" y2="28.15" xlink:href="#_åçûìÿííûé_ãðàäèåíò_123"/><linearGradient id="linear-gradient-4" x1="65.46" y1="29.94" x2="71.45" y2="29.94" gradientTransform="matrix(1, 0, 0, 1, 0, 0)" gradientUnits="userSpaceOnUse"><stop offset="0" stop-color="#ff434f"/><stop offset="1" stop-color="#c4023e"/></linearGradient><linearGradient id="_åçûìÿííûé_ãðàäèåíò_26-2" x1="56.53" y1="34.02" x2="56.53" y2="12.22" xlink:href="#_åçûìÿííûé_ãðàäèåíò_26"/><linearGradient id="_åçûìÿííûé_ãðàäèåíò_4-5" x1="63.29" y1="31.11" x2="63.29" y2="25.94" xlink:href="#_åçûìÿííûé_ãðàäèåíò_4"/><linearGradient id="_åçûìÿííûé_ãðàäèåíò_11-7" x1="47.92" y1="97.7" x2="47.92" y2="80.8" xlink:href="#_åçûìÿííûé_ãðàäèåíò_11"/><linearGradient id="_åçûìÿííûé_ãðàäèåíò_11-8" x1="70.16" y1="92.83" x2="70.16" y2="82.93" xlink:href="#_åçûìÿííûé_ãðàäèåíò_11"/><linearGradient id="_åçûìÿííûé_ãðàäèåíò_67-2" x1="58.56" y1="87.42" x2="58.56" y2="47.28" xlink:href="#_åçûìÿííûé_ãðàäèåíò_67"/><linearGradient id="_åçûìÿííûé_ãðàäèåíò_7-3" x1="48.12" y1="98.11" x2="48.12" y2="89.41" xlink:href="#_åçûìÿííûé_ãðàäèåíò_7"/><linearGradient id="_åçûìÿííûé_ãðàäèåíò_7-4" x1="71.84" y1="95.16" x2="71.84" y2="91.31" xlink:href="#_åçûìÿííûé_ãðàäèåíò_7"/><linearGradient id="_åçûìÿííûé_ãðàäèåíò_6-4" x1="51.58" y1="87.21" x2="51.58" y2="62.13" xlink:href="#_åçûìÿííûé_ãðàäèåíò_6"/><linearGradient id="_åçûìÿííûé_ãðàäèåíò_70-7" x1="56.03" y1="73.08" x2="56.03" y2="65.01" gradientTransform="matrix(1, 0, 0, 1, 0, 0)" xlink:href="#_åçûìÿííûé_ãðàäèåíò_70"/><linearGradient id="_åçûìÿííûé_ãðàäèåíò_6-5" x1="62.88" y1="87.42" x2="62.88" y2="47.28" xlink:href="#_åçûìÿííûé_ãðàäèåíò_6"/><linearGradient id="_åçûìÿííûé_ãðàäèåíò_70-8" x1="62.79" y1="56.72" x2="62.79" y2="53.56" gradientTransform="matrix(1, 0, 0, 1, 0, 0)" xlink:href="#_åçûìÿííûé_ãðàäèåíò_70"/><linearGradient id="_åçûìÿííûé_ãðàäèåíò_70-9" x1="53.71" y1="73.91" x2="53.71" y2="71.48" gradientTransform="matrix(1, 0, 0, 1, 0, 0)" xlink:href="#_åçûìÿííûé_ãðàäèåíò_70"/><linearGradient id="_åçûìÿííûé_ãðàäèåíò_70-10" x1="67.87" y1="74.23" x2="67.87" y2="72.3" gradientTransform="matrix(1, 0, 0, 1, 0, 0)" xlink:href="#_åçûìÿííûé_ãðàäèåíò_70"/><linearGradient id="_åçûìÿííûé_ãðàäèåíò_134" x1="65.91" y1="94.34" x2="77.77" y2="94.34" gradientTransform="matrix(1, 0, 0, 1, 0, 0)" gradientUnits="userSpaceOnUse"><stop offset=".02" stop-color="#c76834"/><stop offset="1" stop-color="#c96152"/></linearGradient><linearGradient id="_åçûìÿííûé_ãðàäèåíò_134-2" x1="43.46" y1="95.3" x2="52.81" y2="95.3" xlink:href="#_åçûìÿííûé_ãðàäèåíò_134"/><linearGradient id="_åçûìÿííûé_ãðàäèåíò_70-11" x1="59.97" y1="55.83" x2="59.97" y2="51.3" gradientTransform="matrix(1, 0, 0, 1, 0, 0)" xlink:href="#_åçûìÿííûé_ãðàäèåíò_70"/><linearGradient id="_åçûìÿííûé_ãðàäèåíò_11-9" x1="61.85" y1="26.62" x2="61.85" y2="14.77" xlink:href="#_åçûìÿííûé_ãðàäèåíò_11"/><linearGradient id="_åçûìÿííûé_ãðàäèåíò_4-6" x1="1291.98" y1="-167.55" x2="1291.98" y2="-170.83" gradientTransform="translate(1340.43 -205.85) rotate(162.34) scale(1 -1)" xlink:href="#_åçûìÿííûé_ãðàäèåíò_4"/><linearGradient id="_åçûìÿííûé_ãðàäèåíò_69-3" x1="1290.83" y1="-169.06" x2="1292.98" y2="-169.06" gradientTransform="translate(1340.43 -205.85) rotate(162.34) scale(1 -1)" xlink:href="#_åçûìÿííûé_ãðàäèåíò_69"/><linearGradient id="_åçûìÿííûé_ãðàäèåíò_11-10" x1="44.41" y1="55.48" x2="44.41" y2="45.62" xlink:href="#_åçûìÿííûé_ãðàäèåíò_11"/><radialGradient id="_åçûìÿííûé_ãðàäèåíò_146" cx="67.69" cy="-876.48" fx="67.69" fy="-876.48" r="10.11" gradientTransform="translate(0 1020.54) scale(1 1.13)" gradientUnits="userSpaceOnUse"><stop offset="0" stop-color="#ff434f"/><stop offset="1" stop-color="#c4023e"/></radialGradient><linearGradient id="_åçûìÿííûé_ãðàäèåíò_64" x1="64.62" y1="19.06" x2="64.62" y2="16.67" gradientTransform="matrix(1, 0, 0, 1, 0, 0)" gradientUnits="userSpaceOnUse"><stop offset=".01" stop-color="#d65b3d"/><stop offset=".99" stop-color="#4f223a"/></linearGradient><linearGradient id="_åçûìÿííûé_ãðàäèåíò_132-3" x1="60.68" y1="20.7" x2="60.68" y2="17.62" xlink:href="#_åçûìÿííûé_ãðàäèåíò_132"/><linearGradient id="_åçûìÿííûé_ãðàäèåíò_66" x1="61.48" y1="22.56" x2="61.48" y2="19.93" gradientTransform="matrix(1, 0, 0, 1, 0, 0)" gradientUnits="userSpaceOnUse"><stop offset="0" stop-color="#e1dbfb"/><stop offset="1" stop-color="#fff"/></linearGradient><linearGradient id="_åçûìÿííûé_ãðàäèåíò_66-2" x1="65.55" y1="20.75" x2="65.55" y2="18.59" xlink:href="#_åçûìÿííûé_ãðàäèåíò_66"/><linearGradient id="_åçûìÿííûé_ãðàäèåíò_71" x1="1328.66" y1="84.52" x2="1328.66" y2="82.65" gradientTransform="translate(1364.63 -252.91) rotate(164.53)" gradientUnits="userSpaceOnUse"><stop offset=".02" stop-color="#74422f"/><stop offset=".99" stop-color="#c2862e"/></linearGradient><linearGradient id="_åçûìÿííûé_ãðàäèåíò_71-2" x1="1776.08" y1="120.08" x2="1776.08" y2="118.21" gradientTransform="translate(1083.31 -188.89) rotate(162.3) scale(.58 .93)" xlink:href="#_åçûìÿííûé_ãðàäèåíò_71"/><linearGradient id="_åçûìÿííûé_ãðàäèåíò_75" x1="65.01" y1="25" x2="65.01" y2="22.91" gradientTransform="matrix(1, 0, 0, 1, 0, 0)" gradientUnits="userSpaceOnUse"><stop offset="0" stop-color="#bd5042"/><stop offset=".99" stop-color="#5d0c30"/></linearGradient><linearGradient id="_åçûìÿííûé_ãðàäèåíò_409-6" x1="64.36" y1="21.79" x2="66.3" y2="21.79" xlink:href="#_åçûìÿííûé_ãðàäèåíò_409"/><linearGradient id="_åçûìÿííûé_ãðàäèåíò_123-4" x1="63.49" y1="23.54" x2="66.51" y2="23.54" xlink:href="#_åçûìÿííûé_ãðàäèåíò_123"/><linearGradient id="_åçûìÿííûé_ãðàäèåíò_409-7" x1="63.13" y1="23.81" x2="63.84" y2="23.81" xlink:href="#_åçûìÿííûé_ãðàäèåíò_409"/><linearGradient id="_åçûìÿííûé_ãðàäèåíò_139-2" x1="65.09" y1="23.82" x2="65.09" y2="22.66" xlink:href="#_åçûìÿííûé_ãðàäèåíò_139"/><linearGradient id="_åçûìÿííûé_ãðàäèåíò_87" x1="65.09" y1="25.33" x2="65.09" y2="22.79" gradientTransform="matrix(1, 0, 0, 1, 0, 0)" gradientUnits="userSpaceOnUse"><stop offset="0" stop-color="#e76c42"/><stop offset=".99" stop-color="#ae2545"/></linearGradient><linearGradient id="_åçûìÿííûé_ãðàäèåíò_409-8" x1="66.72" y1="23.24" x2="66.72" y2="22.3" xlink:href="#_åçûìÿííûé_ãðàäèåíò_409"/><linearGradient id="_åçûìÿííûé_ãðàäèåíò_409-9" x1="64.76" y1="16.94" x2="64.76" y2="16.39" xlink:href="#_åçûìÿííûé_ãðàäèåíò_409"/><linearGradient id="_åçûìÿííûé_ãðàäèåíò_26-3" x1="58.06" y1="23.96" x2="58.06" y2="21.79" xlink:href="#_åçûìÿííûé_ãðàäèåíò_26"/><linearGradient id="_åçûìÿííûé_ãðàäèåíò_115-2" x1="53.94" y1="31.48" x2="53.94" y2="12.56" xlink:href="#_åçûìÿííûé_ãðàäèåíò_115"/><linearGradient id="_åçûìÿííûé_ãðàäèåíò_123-5" x1="62.18" y1="27.22" x2="62.18" y2="25.94" xlink:href="#_åçûìÿííûé_ãðàäèåíò_123"/><linearGradient id="_åçûìÿííûé_ãðàäèåíò_97" x1="54.25" y1="30.22" x2="54.25" y2="16.67" gradientTransform="matrix(1, 0, 0, 1, 0, 0)" gradientUnits="userSpaceOnUse"><stop offset="0" stop-color="#952e45"/><stop offset=".99" stop-color="#b05f4a"/></linearGradient><linearGradient id="_åçûìÿííûé_ãðàäèåíò_97-2" x1="52.05" y1="15.61" x2="61.43" y2="15.61" xlink:href="#_åçûìÿííûé_ãðàäèåíò_97"/><radialGradient id="_åçûìÿííûé_ãðàäèåíò_3-2" cx="71.45" cy="25.09" fx="71.45" fy="25.09" r=".6" gradientTransform="translate(134.07 -9.98) rotate(175.15) scale(1 -1)" xlink:href="#_åçûìÿííûé_ãðàäèåíò_3"/><linearGradient id="_åçûìÿííûé_ãðàäèåíò_115-3" x1="54.56" y1="32.84" x2="54.56" y2="21.26" xlink:href="#_åçûìÿííûé_ãðàäèåíò_115"/><linearGradient id="_åçûìÿííûé_ãðàäèåíò_70-12" x1="64.68" y1="32.3" x2="64.68" y2="27.06" gradientTransform="matrix(1, 0, 0, 1, 0, 0)" xlink:href="#_åçûìÿííûé_ãðàäèåíò_70"/><linearGradient id="_åçûìÿííûé_ãðàäèåíò_70-13" x1="66.54" y1="51.33" x2="66.54" y2="48.16" gradientTransform="matrix(1, 0, 0, 1, 0, 0)" xlink:href="#_åçûìÿííûé_ãðàäèåíò_70"/><linearGradient id="_åçûìÿííûé_ãðàäèåíò_70-14" x1="67.14" y1="37.45" x2="67.14" y2="35.64" gradientTransform="matrix(1, 0, 0, 1, 0, 0)" xlink:href="#_åçûìÿííûé_ãðàäèåíò_70"/><linearGradient id="_åçûìÿííûé_ãðàäèåíò_70-15" x1="65.84" y1="47.85" x2="65.84" y2="43.49" gradientTransform="matrix(1, 0, 0, 1, 0, 0)" xlink:href="#_åçûìÿííûé_ãðàäèåíò_70"/><linearGradient id="_åçûìÿííûé_ãðàäèåíò_69-4" x1="87.72" y1="14.12" x2="83.31" y2="15.53" xlink:href="#_åçûìÿííûé_ãðàäèåíò_69"/><linearGradient id="linear-gradient-5" x1="53.19" y1="46.54" x2="53.19" y2="34.02" xlink:href="#linear-gradient-3"/><radialGradient id="_åçûìÿííûé_ãðàäèåíò_146-2" cx="59.39" cy="33.34" fx="59.39" fy="33.34" r="2.83" gradientTransform="matrix(1, 0, 0, 1, 0, 0)" xlink:href="#_åçûìÿííûé_ãðàäèåíò_146"/><linearGradient id="_åçûìÿííûé_ãðàäèåíò_70-16" x1="64.91" y1="52.76" x2="64.91" y2="29.88" gradientTransform="matrix(1, 0, 0, 1, 0, 0)" xlink:href="#_åçûìÿííûé_ãðàäèåíò_70"/><linearGradient id="_åçûìÿííûé_ãðàäèåíò_70-17" x1="69.47" y1="28.29" x2="71.26" y2="28.29" gradientTransform="matrix(1, 0, 0, 1, 0, 0)" xlink:href="#_åçûìÿííûé_ãðàäèåíò_70"/><linearGradient id="_åçûìÿííûé_ãðàäèåíò_70-18" x1="57.43" y1="35.05" x2="59.72" y2="35.05" gradientTransform="matrix(1, 0, 0, 1, 0, 0)" xlink:href="#_åçûìÿííûé_ãðàäèåíò_70"/><linearGradient id="linear-gradient-6" x1="-2575.01" y1="-1518.01" x2="-2572.95" y2="-1518.57" gradientTransform="translate(2929.2 -918.42) rotate(12.42) scale(1 -1)" gradientUnits="userSpaceOnUse"><stop offset=".02" stop-color="#999"/><stop offset=".28" stop-color="#bdbebd"/><stop offset=".58" stop-color="#e0e1df"/><stop offset=".83" stop-color="#f6f7f5"/><stop offset=".99" stop-color="#fefffd"/></linearGradient><linearGradient id="linear-gradient-7" x1="-2576.84" y1="-1519.51" x2="-2575.48" y2="-1520.34" gradientTransform="translate(2438.19 -1836.62) rotate(-7.63) scale(1 -1)" gradientUnits="userSpaceOnUse"><stop offset="0" stop-color="#e4e4e4"/><stop offset=".58" stop-color="#f6f7f5"/><stop offset=".99" stop-color="#fefffd"/></linearGradient><linearGradient id="linear-gradient-8" x1="-2575.27" y1="-1520.01" x2="-2573.32" y2="-1520.01" gradientTransform="translate(-1877.66 2265.85) rotate(161.65) scale(1 -1)" xlink:href="#linear-gradient-7"/><radialGradient id="radial-gradient" cx="-2576.34" cy="-1522.12" fx="-2576.34" fy="-1522.12" r=".59" gradientTransform="translate(2929.2 -918.42) rotate(12.42) scale(1 -1)" gradientUnits="userSpaceOnUse"><stop offset="0" stop-color="#fefffd"/><stop offset="1" stop-color="#b3b3b3"/></radialGradient><linearGradient id="linear-gradient-9" x1="-2575.19" y1="-1509.18" x2="-2574.43" y2="-1509.38" gradientTransform="translate(2929.2 -918.42) rotate(12.42) scale(1 -1)" gradientUnits="userSpaceOnUse"><stop offset=".02" stop-color="#999"/><stop offset=".04" stop-color="#a1a2a1"/><stop offset=".12" stop-color="#bebebd"/><stop offset=".22" stop-color="#d5d6d5"/><stop offset=".33" stop-color="#e7e8e7"/><stop offset=".46" stop-color="#f4f5f3"/><stop offset=".63" stop-color="#fbfcfa"/><stop offset=".99" stop-color="#fefffd"/></linearGradient><linearGradient id="linear-gradient-10" x1="-2572.02" y1="-1509.95" x2="-2571.27" y2="-1510.15" xlink:href="#linear-gradient-9"/><linearGradient id="linear-gradient-11" x1="-2577.5" y1="-1519.21" x2="-2576.26" y2="-1519.55" xlink:href="#linear-gradient-6"/><linearGradient id="linear-gradient-12" x1="-2575.49" y1="-1519.33" x2="-2574.81" y2="-1519.51" xlink:href="#linear-gradient-6"/><linearGradient id="linear-gradient-13" x1="-2576.99" y1="-1517.69" x2="-2576.01" y2="-1517.69" xlink:href="#linear-gradient-6"/><linearGradient id="_åçûìÿííûé_ãðàäèåíò_55" x1="87.38" y1="16.63" x2="87.38" y2="12.41" gradientTransform="matrix(1, 0, 0, 1, 0, 0)" gradientUnits="userSpaceOnUse"><stop offset=".02" stop-color="#ffae78"/><stop offset="1" stop-color="#ffb17c"/></linearGradient><linearGradient id="_åçûìÿííûé_ãðàäèåíò_147" x1="84.51" y1="13.24" x2="84.51" y2="9.58" gradientTransform="matrix(1, 0, 0, 1, 0, 0)" gradientUnits="userSpaceOnUse"><stop offset="0" stop-color="#ff957c"/><stop offset=".98" stop-color="#ffae78"/></linearGradient></defs><g class="cls-81"><g id="Layer_2"><g id="Layer_1-2"><g><g><path class="cls-30" d="M12.37,21.42s5.46,4.65,6.95,6.53c.06,.08,.15,.12,.25,.13,1.48,.03,9.34-1.5,9.34-1.5l-1.31,4.2s-8.29,1.63-9.68,.94c-2.75-1.35-7.06-7.61-7.06-7.61l1.52-2.69Z"/><path class="cls-25" d="M28.64,26.26s-6.53,1.01-6.84,1.13-.27-.38-.49-.15-.05,4.35,.28,5.09c0,0,.2,.03,.22-.14s3.7,.31,4.56,.14,2.27-6.06,2.27-6.06Z"/><path class="cls-9" d="M21.59,28.12l.06,1.5,.08,2.13s3.53-.6,4.37-.29c.73,.27,1.17,.4,1.27,.43-.19-.07-1.73-.61-3.14-1.3l-.98-1.37,.31,1.47s-1.33-1.62-1.55-2.1c-.14-.08-.41-.47-.41-.47Z"/><path class="cls-108" d="M12.37,21.42s-4.01-3.1-4.96-4.36c0,0,.16-1.45-.48-2.34-.15-.21-1.87-.87-2.16-1.17-.29-.3-1.75-1.54-1.75-1.54,0,0,0,.27-.11,.5s.28,.79,.58,1.28c.3,.49,1.48,.69,1.59,.8,.11,.11,0,.55,0,.55,0,0-1.16-.16-1.99-.43-1.36-.45-2.03-.27-2.03-.27,0,0-.31,.55,.18,1.28,0,0,1.13-.26,2.04,.36l-.1,.1s-1.78-.49-2.68-.34c0,0-.18,.21-.34,.55-.16,.34,.14,1.02,.14,1.02l.34,.24-.16,.33s-.12,.42,.18,1.09c0,0,.8,.3,1.38,.19l-.77,.15s-.42,.29-.02,1.08c0,0,1.65-.39,2.36-.47,.71-.07,1.68,.21,2.11,.25s1.51-.64,1.51-.64c0,0,2.47,3.32,3.61,4.48,0,0,1.41-1.51,1.52-2.69Z"/><path class="cls-41" d="M38.37,92.88l-.26,.45-1.18-1.02c-.8,.16-3.71,1.69-3.71,1.69l-.64,1.18c-.16-.8-.26-3.07-.26-3.07l.59-.73c-.45-5.45-2.76-15.39-2.76-15.39-.2-.28-.37-.55-.5-.79-.43-.77-.57-1.32-.57-1.32-1.28-2.89-2.84-10.83-3.47-14.21-.18-.96-.28-1.56-.28-1.56-3.14,5.82-3.71,16.85-3.71,16.85,.29,1.22,1.08,4.45,1.08,4.45-.09,3.46-1.82,11.66-1.79,11.85,.03,.19,.54,.64,.51,.92-.03,.28-.7,2.09-.7,2.09-2.37-1.63-5.34-1.6-5.34-1.6l-.33,.42s-.11-1.61-.09-2.38c.01-.25,.03-.42,.07-.47,.16-.19,.93,0,.93,0,1.25-5.37,1.18-15.7,1.18-15.7-.29-.9-.32-1.5-.32-1.5,0,0-.03-2.52,.96-9.53,.84-5.94,2.21-10.2,2.61-11.36l.11-.31,9.43-.54s.8,4.77,1.69,11.93c.89,7.16,1.79,9.82,1.79,9.82,.9,.9,2.33,2.98,2.33,2.98,1.25,4.86,1.28,13.53,1.28,13.53l.64,.48c.02,.06,.05,.14,.07,.22,.26,.85,.63,2.63,.63,2.63Z"/><path class="cls-51" d="M38.37,92.88l-.26,.45-1.18-1.02c-.8,.16-3.71,1.69-3.71,1.69l-.64,1.18c-.16-.8-.26-3.07-.26-3.07l.59-.73c-.45-5.45-2.76-15.39-2.76-15.39-.2-.28-.37-.55-.5-.79,0,0,2.31-.42,2.52-2.34,.2-1.92-2.24-15.65-2.24-15.65-1.12-.75-3.47-.28-3.47-.28l-.79,1.99-.07,.76c-.18-.96-.28-1.56-.28-1.56-3.14,5.82-3.71,16.85-3.71,16.85,.29,1.22,1.08,4.45,1.08,4.45-.09,3.46-1.82,11.66-1.79,11.85,.03,.19,.54,.64,.51,.92-.03,.28-.7,2.09-.7,2.09-2.37-1.63-5.34-1.6-5.34-1.6l-.33,.42s-.11-1.61-.09-2.38l4.63,1.24c-.65-.85-3.63-1.71-3.63-1.71,1.25-5.37,1.18-15.7,1.18-15.7-.29-.9-.32-1.5-.32-1.5,0,0,2.95,.92,3.98-.72,1.02-1.64,2.71-14.09,2.71-14.09l-.57-1.55-.44-1.6-2.11-2.92,.11-.31,9.43-.54s.8,4.77,1.69,11.93c.89,7.16,1.79,9.82,1.79,9.82,.9,.9,2.33,2.98,2.33,2.98,1.25,4.86,1.28,13.53,1.28,13.53l-3.44,1.98c1.82-.82,3.34-1.16,4.15-1.28,.26,.85,.63,2.63,.63,2.63Z"/><path class="cls-125" d="M31.72,10.54s-1.76-.42-3.2,.99c0,0,.59-.14,1.31,0,0,0-1.09,1.38-.62,3.18,0,0,1.1-1.65,1.96-1.84l.54-2.33Z"/><path class="cls-47" d="M20.5,51.85l-.11,.31s2.75,.81,5.43,.92c2.8,.11,4.39,0,4.39,0l-.28-1.77-9.43,.54Z"/><path class="cls-61" d="M29.66,75.21l.58,1.11s2.11-.65,2.61-2.07c0,0-2.24,1.04-3.19,.97Z"/><polygon class="cls-56" points="16.82 73.06 17.14 74.56 18.39 74.91 19.83 74.53 16.82 73.06"/><polygon class="cls-50" points="25.33 58.12 25.07 56.94 22.94 56.4 23.5 58.24 23.91 61.56 25.33 58.12"/><g class="cls-62"><path class="cls-66" d="M27.72,51.82s1.81,3.49,2.03,3.69,.86,.27,.86,.27l.06,.4s-.95-.11-1.37-.44c-.42-.34-1.89-3.84-1.89-3.84l.3-.08Z"/><path class="cls-66" d="M29.32,51.47s.32,1.65,.51,2.77,2.01,18.29,2.24,19.1c.22,.81,2.52,2.07,3.11,3.26s1.79,10.64,1.79,10.64l-.19-3.73s-.96-6.84-1.27-7.35c-.31-.51-2.93-2.81-3.04-3.24-.11-.43-2.36-18.78-2.47-19.71-.11-.93-.41-1.82-.41-1.82l-.27,.1Z"/><polygon class="cls-66" points="19.73 54.27 21.46 51.99 21.81 52.05 19.59 54.77 19.73 54.27"/></g><path class="cls-4" d="M35.16,26.64l-.3,1.97-1.14,7.61c-.13,.18-.32,.55-.54,1.06-.3,.69-.66,1.63-1.03,2.66-1.14,3.13-2.39,7.06-2.42,7.19-.03,.2,.7,1.01,.73,1.16,.02,.15-.14,.78-.32,.93-.18,.16,0,1.39,0,1.39l-.23,.23v.48c-.6,.2-1.19,.35-1.8,.47h0c-4.21,.85-8.27,.05-8.22-.12,.05-.19,.65-.99,.65-.99,0,0-.73-.73-.64-.99,.09-.26,1.41-1.95,1.41-1.95,0,0,.05-1.2,.15-2.92v-.03s0-.02,0-.02c.09-1.62,.23-3.69,.41-5.65,.18-1.95,.41-3.78,.68-4.98,.06-.28,.13-.52,.2-.73,.5-1.47,2.18-3.46,3.69-5.05,.34-.36,.68-.71,1-1.02,1-.99,1.03-1.08,1.03-1.08l1.44-.6h.52l.04,.02,1.11,.03,1.07,.03,.94,.02h.32l.14,.02,.73,.02h0l.36,.85Z"/><path class="cls-122" d="M35.14,22.31s-1.64,2.87-2.22,4.49c0,0-2.17,1.92-3.71,2.13,0,0-.09-1.09,.19-1.64,0,0,.87-1.46,1.45-3.2l4.29-1.78Z"/><path class="cls-10" d="M30.58,24.85s1.72,.28,3.57-.72l.91-1.68-4.31,1.95-.17,.45Z"/><path class="cls-69" d="M38.32,16.52c0,.37-.04,.75-.15,1.11-.33,1.12-1.02,2.38-1.85,3.45-.76,.99-1.63,1.83-2.42,2.26h0c-2.18,1.2-5,1.39-5.65,.96-.17-.12-.27-.67-.36-1.06-.09-.38-.82-1.7-.71-2.98,.1-1.28,.77-2.07,1.13-2.69h0c.34-.6,.64-3.25,1.82-4.43l.02-.02c.07-.07,.15-.14,.23-.2,.7-.53,2.02-.72,3.14-.78,1.09-.06,2,.01,2,.01,.58,.14,1.24,.67,1.78,1.42,.2,.28,.38,.59,.53,.91h0c.15,.33,.28,.68,.36,1.04,.08,.32,.12,.65,.12,.98Z"/><path class="cls-73" d="M21,97.18c0,.18-.01,.29-.01,.29l-12.15,.15s.21-1.34,.51-1.53c.3-.19,1.94-.34,3.52-1.19,.32-.18,.62-.37,.89-.58h0s.07-.06,.16-.13c.93-.74,1.46-1.49,1.46-1.49,2.73-.43,5.34,1.6,5.34,1.6,.3,.96,.3,2.3,.28,2.89Z"/><path class="cls-124" d="M41.51,97.49h-9.37c.19-1.76,.9-3.4,.9-3.4,1.52-1.23,4.25-1.96,4.25-1.96l.47,.5c.11,.23,.24,.45,.38,.65,1.11,1.61,3.04,2.46,3.04,2.46,.48,.75,.34,1.74,.34,1.74Z"/><path class="cls-84" d="M8.96,96.99s4.33,.19,5.52,.2c1.19,0,2.9-.59,3.41-.65,.51-.06,3.11-.13,3.11-.13l-.02,1.07-12.15,.15,.13-.63Z"/><path class="cls-104" d="M32.41,96.01s1.48,.64,1.73,1h.72s5.29-.94,6.6-.5c0,0,.09,.51,.04,.98h-9.37s.18-1.14,.27-1.48Z"/><path class="cls-55" d="M21,97.18c-.12-.03-1.96-.46-2.65-.48-.7-.02-2.81,.49-3.65,.48-.74-.01-3.37-.1-3.93-.12,.54,.02,3.1,.09,3.96-.05,.96-.16,2.91-.7,2.84-1.22-.06-.51-1.44-2.25-2.05-2.33-.47-.06-1.27,.48-1.61,.73,.93-.74,1.46-1.49,1.46-1.49,2.73-.43,5.34,1.6,5.34,1.6,.3,.96,.3,2.3,.28,2.89Z"/><path class="cls-52" d="M34.14,97.01h.73l1.25-.2-.11,.68h-3.87c.19-1.76,.9-3.4,.9-3.4,1.52-1.23,4.25-1.96,4.25-1.96l.47,.5c.11,.23,.24,.45,.38,.65v.05s-1.53,.47-2.9,1.62c-1.36,1.15-1.09,2.06-1.09,2.06Z"/><path class="cls-79" d="M35.93,20.63s.92-.77,1.94-.58c1.02,.19,.6,2.22-.75,2.94s-1.94-.08-1.96-.44c-.02-.36,.77-1.92,.77-1.92Z"/><path class="cls-110" d="M37.15,20.06s.3-.72,1.17-1.54c.87-.82,1.64-2.56,1.47-3.55,0,0,.83,.23,1.15,.81,0,0-.07-.59-1.1-1.21-1.02-.62-1.3-.98-1.3-.98,0,0,1.04-1.53,1.79-1.81,0,0-1.06,.24-1.46,.66-.4,.42-.44,1.06-.44,1.06,0,0-.48-.43-.87-1.71-.38-1.28-1.5-2.77-2.03-3.1,0,0,.51,1.04,.37,1.78,0,0-.48-1.33-1.54-1.89-1.24-.66-3.13-.47-3.13-.47l1.18,1.91s.62-.16,1.15,.38c.53,.54,.77,1.07,.77,1.07l-1.69-1.28s-1.93,.03-2.32,.82c-.38,.78-.49,2.5,.82,3.35,0,0,1.69-1.4,2.41-1.57,.72-.18,1.6,.43,1.6,.43,0,0-1.51-.05-2.68,.83,0,0,2.26-.58,4.31-.37,0,0,.56,.98,.45,1.73-.11,.75-.61,1.58-.61,1.58,0,0,.26,1.04,.16,1.84-.11,.8-.97,1.99-.97,1.99,0,0,.76-.74,1.32-.77Z"/><path class="cls-44" d="M32.17,39.94c-1.14,3.13-2.39,7.06-2.42,7.19-.03,.2,.7,1.01,.73,1.16,.02,.15-.14,.78-.32,.93-.18,.16,0,1.39,0,1.39l-.23,.23s-2.64,.14-5.96,.2c-3.33,.07-3.41-.36-3.41-.36,0,0-.73-.73-.64-.99,0,0,2.43,.46,3.79,.39,1.37-.06,4.13-1.11,4.13-1.11-1.89,.13-5.54,.32-5.75,.11-.21-.2-.73-1.27-.76-1.34,.06,.06,1.07,1,1.41,1.04,.34,.05,3.84,.11,4.86-.72,1.02-.83,2.51-5.34,2.51-6.35,0-1.34-1.48-6.15-1.48-6.15l1.53,.67,3.04,1.06c-.3,.69-.66,1.63-1.03,2.66Z"/><path class="cls-28" d="M31.24,8.12s2.04-.03,2.9,.64c.86,.67,1.14,1.97,1.14,1.97l-3.02-.97-1.02-1.65Z"/><path class="cls-38" d="M35.54,8.7s.93,1.07,1.22,2.14c.29,1.07,.22,1.64,.22,1.64l-.99-1.05s.39-.99-.44-2.74Z"/><path class="cls-70" d="M37.3,12.89s-1.79-2.41-3.45-3.08c-1.11-.45-3.02,.04-3.02,.04,0,0-.9,2.37-.07,4.09l.27-.75s-.03,.45,.17,.97c0,0,1.51-1.75,2.47-1.9,.96-.15,3.63,.63,3.63,.63Z"/><path class="cls-65" d="M37.53,12.69s-.15,1.27,.41,2.03c.56,.76,2.2,.37,2.89,.79,0,0-.16-.91-1.32-1.34-1.16-.43-1.98-1.48-1.98-1.48Z"/><path class="cls-27" d="M26.46,28.35v.58s-4.05,7.67-4.18,9.12c-.12,1.39-.77,6.44-.81,6.75v-.04l.41-5.65c.18-1.95,.41-3.79,.68-4.98,.06-.28,.13-.52,.2-.73,.51-1.47,2.18-3.46,3.69-5.05Z"/><g><path class="cls-80" d="M38.57,38.9c-.7-.1-1.47-.27-2.18-.46-1.36-.36-2.5-.76-2.5-.76,0,0-1.7,.5-2.07,.25-.37-.25-1.23-1.35-1.23-1.35-.23,.21-.51,.35-.51,.35-.99-.41-1.55-1.56-1.59-1.63h0c.04-.35,.57-.84,.67-.94,.1-.09,.35-.51,.44-.61,.08-.11,.33-.7,.49-.86,.17-.16,.51-.4,.51-.4,.14-.42,.32-.66,.32-.66,1.14-.06,2.03,.42,2.03,.42,.4,1.53,1.34,3.44,1.34,3.44,.4,.24,.92,.31,1.35,.32,.45,.01,.79-.04,.79-.04,.67,.35,2.15,2.94,2.15,2.94Z"/><path class="cls-17" d="M36.72,37.06l-.33,1.38c-1.36-.36-2.5-.76-2.5-.76,0,0-1.7,.5-2.07,.25-.37-.25-1.23-1.35-1.23-1.35-.23,.21-.51,.35-.51,.35-.99-.41-1.55-1.56-1.59-1.63,.86,.46,2.41,.48,2.41,.48l.06-.55,.95-1.45s.42-.67,.5-.74c.07-.08,.53-.78,.53-.78,.4,1.53,1.34,3.44,1.34,3.44,0,0-1.06,.82-.7,1.24,.36,.42,1.54,.34,1.54,.34,.4-.29,.5-1.26,.5-1.26l1.09,1.06Z"/><path class="cls-23" d="M30.59,36.58l-.97-.63s.72,.6,.75,.81c0,0,.13-.03,.22-.18Z"/><polygon class="cls-23" points="30.75 32.1 30.85 32.4 30.59 32.48 30.75 32.1"/></g><path class="cls-99" d="M31.87,17.74c0,.28,.22,.35,.69,.32,.59-.03,1.18,.04,1.68,.12,.14-.16-.23-1.59-1.03-1.72-.86-.14-1.34,.81-1.34,1.28Z"/><path class="cls-98" d="M28.52,17.43c.04,.08,.35,.1,.65,.1,.18,0,.32,.17,.47,.05,.41-.31,.2-1.8-.19-1.87-.37-.07-.98,1.04-.93,1.71Z"/><path class="cls-109" d="M32.2,16.9s.32-.54,.61-.65c.29-.11,1.22,.17,1.43,1.5,0,0-.45-1.23-1.17-1.29-.55-.05-.87,.44-.87,.44Z"/><path class="cls-63" d="M29.64,15.02s.49,.59,.44,1.64c-.05,1.05-.88,1.24-.88,1.24,0,0,.69-.07,.93-1.05,.23-.99,0-2,0-2l-.49,.17Z"/><path class="cls-139" d="M32.94,14.3s-.33,.54-.18,1.03c0,0,1.09,.18,1.86,.72,.21,.14,.47,.42,.47,.42,0,0,.08-.47-.3-.96-.17-.23-1.47-1.16-1.85-1.21Z"/><path class="cls-92" d="M29.12,14.97s.19-.09,.51,.05c.23,.1,.49,.5,.49,.5,0,0,.1-.59-.05-.98,0,0-.2-.46-.58-.45,0,0-.44,.49-.37,.88Z"/><path class="cls-115" d="M33.42,17.63c-.11,.38-.5,.59-.88,.48-.37-.11-.59-.5-.48-.88,.11-.38,.5-.59,.88-.48,.37,.11,.59,.5,.48,.88Z"/><path class="cls-132" d="M32.92,17.5c-.08,.26-.33,.42-.56,.35-.23-.07-.36-.34-.28-.6,.08-.26,.33-.42,.56-.35,.23,.07,.36,.34,.28,.6Z"/><path class="cls-1" d="M29.61,16.82c-.11,.38-.41,.62-.67,.54-.26-.08-.38-.44-.27-.82,.11-.38,.41-.62,.67-.54,.26,.08,.38,.44,.27,.82Z"/><path class="cls-132" d="M29.21,16.73c-.07,.23-.24,.38-.39,.34-.15-.04-.21-.26-.15-.49,.07-.23,.24-.38,.39-.34,.15,.04,.21,.26,.15,.49Z"/><path class="cls-66" d="M33.55,17.65c0,.07-.06,.13-.13,.13s-.13-.06-.13-.13,.06-.13,.13-.13,.13,.06,.13,.13Z"/><path class="cls-66" d="M29.62,16.99c0,.07-.06,.13-.13,.13s-.13-.06-.13-.13,.06-.13,.13-.13,.13,.06,.13,.13Z"/><path class="cls-109" d="M28.84,16.12s.26-.51,.48-.59c.22-.08,.75,.85,.52,1.7,0,0,.14-1.22-.52-1.4,0,0-.24-.13-.48,.29Z"/><path class="cls-11" d="M31.87,18.11s1.2-.39,2.29,.15c0,0-1.39-.15-2.29-.15Z"/><path class="cls-11" d="M28.44,17.52s.16-.21,.6-.16c.43,.05,.45,.32,.45,.32v.07s-.47-.22-1.05-.23Z"/><path class="cls-11" d="M28.27,18.63s-.15,.43,.69,.99c0,0,.28,.12,.6,0,0,0,.29-.21,.56-.21s.47,.05,.47,.05c0,0,.24-.07,.39-.31,0,0-1.53-.03-2.72-.52Z"/><path class="cls-63" d="M29.72,19.53s.33-.23,.76-.09c0,0-.47,.11-.76,.09Z"/><path class="cls-11" d="M28.27,20.03s-.29,.18-.32,.27c0,0,.17,.05,.26,.17v-.08s.83,.26,1.9,.3c1.06,.05,1.74-.33,1.74-.33l.16-.11s.13,.02,.2,.13c0,0-.11-.38-.33-.54l-.13,.14,.09,.13s-.45,.84-2.47,.72c-1.36-.08-1.09-.8-1.09-.8Z"/><path class="cls-77" d="M28.27,18.63s.5-.87,1.52-.78c1.02,.1,1.19,1.3,1.19,1.3,0,0-1.79,.12-2.72-.52Z"/><path class="cls-93" d="M32,20.16c-.09,.11-.48,.6-.74,.95h0c-.06,.09-.12,.17-.16,.23-.23,.35-.91,1.05-1.43,1.1-.52,.05-1-.06-1.08-.25-.04-.1-.07-.36-.09-.62-.02-.26-.04-.52-.06-.64-.05-.3-.36-.6-.36-.6l.04-.05s.23,.06,.4,.12c.17,.05,.38,.15,.83,.21,.45,.06,1.73-.07,2.16-.21,.32-.1,.44-.19,.48-.23Z"/><path class="cls-60" d="M32,20.16c-.09,.11-.48,.6-.74,.95h0s-.32-.26-1.55,0c-.81,.17-1.1,.35-1.21,.46-.02-.26-.04-.52-.06-.64-.05-.3-.36-.6-.36-.6l.04-.05s.23,.06,.4,.12c.17,.05,.38,.15,.83,.21,.45,.06,1.73-.07,2.16-.21,.32-.1,.44-.19,.48-.23Z"/><path class="cls-75" d="M28.65,20.43s.13,.35,.31,.5c0,0,1.02,.17,1.9-.41,0,0-.94,.12-1.45,.08-.47-.04-.76-.17-.76-.17Z"/><path class="cls-75" d="M28.72,22.31s.08-.09,.37-.13c.29-.04,.96,0,.99,0s.08,.06,.08,.06c0,0-.19,.2-.68,.2s-.76-.14-.76-.14Z"/><path class="cls-20" d="M35.73,21.57s.8-.76,1.56-.7c.76,.05,.44,1.31,.44,1.31,0,0-.06-.17-.33-.18,0,0-.39,.48-1.11,.73,0,0,.89-.5,1-.93,0,0-.62,.81-1.23,.67-.62-.14-.33-.88-.33-.88Z"/><path class="cls-23" d="M35.71,22.17s.79,.04,1.03-.29c.24-.34,0-.65,0-.65,0,0-.62,.05-.92,.43,0,0-.16,.27-.11,.51Z"/><path class="cls-126" d="M30.44,17.22s-.17-.03-.36,.17c-.19,.2-1.08,.64-1.08,.64,0,0,.68-.33,.97-.81,0,0,.26-.09,.47,0Z"/><path class="cls-22" d="M30.72,13.87s.18-1.9,.5-2.55c.32-.65,2.06-1.45,3.46-.85,1.41,.6,2.29,2,2.29,2,0,0-1.43-1.78-2.41-1.93-.98-.15-1.98,.34-2.46,.88-.48,.53-1.38,2.44-1.38,2.44Z"/><path class="cls-5" d="M28.14,51.78c1.01-.42,1.8-.95,1.8-.95v.48c-.6,.2-1.19,.35-1.8,.47Z"/><polygon class="cls-15" points="28.14 39.2 25.29 44.81 23.5 46.39 26.19 44.81 28.14 39.2"/><g><rect class="cls-85" x="1.17" y=".09" width="3.01" height="24.5" transform="translate(-1.17 .31) rotate(-5.51)"/><g><rect x=".19" y=".7" width="1.84" height=".17" transform="translate(-.07 .11) rotate(-5.51)"/><rect x=".47" y="3.6" width="1.84" height=".17" transform="translate(-.35 .15) rotate(-5.51)"/><rect x=".25" y="1.38" width=".99" height=".09" transform="translate(-.13 .08) rotate(-5.51)"/><rect x=".31" y="1.94" width=".99" height=".09" transform="translate(-.19 .09) rotate(-5.51)"/><rect x=".36" y="2.51" width=".99" height=".09" transform="translate(-.24 .09) rotate(-5.51)"/><rect x=".42" y="3.07" width=".99" height=".09" transform="translate(-.29 .1) rotate(-5.51)"/><rect x=".75" y="6.5" width="1.84" height=".17" transform="translate(-.62 .19) rotate(-5.51)"/><rect x=".53" y="4.28" width=".99" height=".09" transform="translate(-.41 .12) rotate(-5.51)"/><rect x=".59" y="4.84" width=".99" height=".09" transform="translate(-.46 .13) rotate(-5.51)"/><rect x=".64" y="5.41" width=".99" height=".09" transform="translate(-.52 .13) rotate(-5.51)"/><rect x=".69" y="5.97" width=".99" height=".09" transform="translate(-.57 .14) rotate(-5.51)"/><rect x="1.03" y="9.4" width="1.84" height=".17" transform="translate(-.9 .23) rotate(-5.51)"/><rect x=".81" y="7.18" width=".99" height=".09" transform="translate(-.69 .16) rotate(-5.51)"/><rect x=".87" y="7.74" width=".99" height=".09" transform="translate(-.74 .17) rotate(-5.51)"/><rect x=".92" y="8.31" width=".99" height=".09" transform="translate(-.79 .17) rotate(-5.51)"/><rect x=".97" y="8.87" width=".99" height=".09" transform="translate(-.85 .18) rotate(-5.51)"/><rect x="1.31" y="12.3" width="1.84" height=".17" transform="translate(-1.18 .27) rotate(-5.51)"/><rect x="1.09" y="10.08" width=".99" height=".09" transform="translate(-.96 .2) rotate(-5.51)"/><rect x="1.14" y="10.64" width=".99" height=".09" transform="translate(-1.02 .21) rotate(-5.51)"/><rect x="1.2" y="11.21" width=".99" height=".09" transform="translate(-1.07 .21) rotate(-5.51)"/><rect x="1.25" y="11.77" width=".99" height=".09" transform="translate(-1.13 .22) rotate(-5.51)"/><rect x="1.59" y="15.2" width="1.84" height=".17" transform="translate(-1.45 .31) rotate(-5.51)"/><rect x="1.37" y="12.98" width=".99" height=".09" transform="translate(-1.24 .24) rotate(-5.51)"/><rect x="1.42" y="13.55" width=".99" height=".09" transform="translate(-1.29 .25) rotate(-5.51)"/><rect x="1.48" y="14.11" width=".99" height=".09" transform="translate(-1.35 .25) rotate(-5.51)"/><rect x="1.53" y="14.67" width=".99" height=".09" transform="translate(-1.4 .26) rotate(-5.51)"/><rect x="1.87" y="18.1" width="1.84" height=".17" transform="translate(-1.73 .35) rotate(-5.51)"/><rect x="1.65" y="15.88" width=".99" height=".09" transform="translate(-1.52 .28) rotate(-5.51)"/><rect x="1.7" y="16.45" width=".99" height=".09" transform="translate(-1.57 .29) rotate(-5.51)"/><rect x="1.76" y="17.01" width=".99" height=".09" transform="translate(-1.63 .29) rotate(-5.51)"/><rect x="1.81" y="17.57" width=".99" height=".09" transform="translate(-1.68 .3) rotate(-5.51)"/><rect x="2.15" y="21" width="1.84" height=".17" transform="translate(-2.01 .39) rotate(-5.51)"/><rect x="1.93" y="18.78" width=".99" height=".09" transform="translate(-1.79 .32) rotate(-5.51)"/><rect x="1.98" y="19.35" width=".99" height=".09" transform="translate(-1.85 .33) rotate(-5.51)"/><rect x="2.04" y="19.91" width=".99" height=".09" transform="translate(-1.9 .34) rotate(-5.51)"/><rect x="2.09" y="20.48" width=".99" height=".09" transform="translate(-1.96 .34) rotate(-5.51)"/><rect x="2.43" y="23.9" width="1.84" height=".17" transform="translate(-2.29 .43) rotate(-5.51)"/><rect x="2.21" y="21.68" width=".99" height=".09" transform="translate(-2.07 .36) rotate(-5.51)"/><rect x="2.26" y="22.25" width=".99" height=".09" transform="translate(-2.13 .37) rotate(-5.51)"/><rect x="2.32" y="22.81" width=".99" height=".09" transform="translate(-2.18 .38) rotate(-5.51)"/><rect x="2.37" y="23.38" width=".99" height=".09" transform="translate(-2.23 .38) rotate(-5.51)"/></g></g><path class="cls-129" d="M2.37,15.16c-.26-.38-.88-.64-1.3-.71,0,0-.94,.47-.1,1.44,0,0,.98,.37,1.4,.22,0,0,.4-.43,0-.94Z"/><path class="cls-71" d="M.51,15.85S0,16.16,.04,16.71c.04,.55,.34,.86,.34,.86,0,0,.73,.3,1.89,.26,0,0,.28-.34,.04-.71-.24-.37-1.82-.94-1.82-.94,0,0-.09-.18,.02-.33Z"/><path class="cls-117" d="M.67,19.08s.66,.14,1.33,0c0,0,.38-.18,.08-.91,0,0-1.06-.37-1.51-.36,0,0-.33,.57,.1,1.27Z"/><path class="cls-86" d="M1.02,19.37s-.34,.68,.25,1.12c0,0,.87-.16,.84-.61-.05-.61-1.09-.51-1.09-.51Z"/><path class="cls-105" d="M6.93,14.73s-.54,.84-1.85,.42c0,0,0-.47-.09-.55-.09-.08-.94-.25-1.39-.55-.45-.3-.9-1.43-.9-1.43,0,0,.08-.46,.32-.59,0,0,1.05,.86,1.35,1.02,.39,.19,2.35,1.32,2.56,1.69Z"/><path class="cls-42" d="M39.36,30.34s5.17,6.01,4.85,6.99c-.45,1.39-3.79,1.7-5.64,1.57l-2.15-2.94s1.46-.13,2.77-.01l-3.12-2.88,3.29-2.73Z"/><path class="cls-12" d="M34.8,25.79s4.3,3.85,5.98,5.93c0,0,.23-.07,.2,.14l-3.42,3.01s-.29,.12-.26-.22c0,0-2.36-2.16-2.93-2.74s-.31-5.68,.43-6.12Z"/><path class="cls-26" d="M34.7,31.78s2.21,.67,4.48,.9c0,0-1.43,.23-2.58,.09-.61-.08-1.89-.98-1.89-.98Z"/><path class="cls-6" d="M39.18,36.06l.59-.46s.7,.21,1.07,.4c0,0-.66-.26-1.05-.26l-.09,.22-.51,.1Z"/></g><g><path class="cls-36" d="M77.91,20.7s-2.93,2.67-3.91,3.76c0,0-3.36,1.9-4.38,2.61l1.65,2.28s3.48-2.27,4.65-2.99l2.62-2.31-.63-3.35Z"/><path class="cls-107" d="M77.91,20.7s2.79-2.48,3.44-4.05c.65-1.58,.56-3.41,.98-3.94,.42-.52,1.93-.92,2.4-1.15,.47-.23,1.29-1.85,1.45-1.92,.16-.07,.38,0,.38,0,0,0,.23,.75,0,1.48-.23,.73-.99,.92-.99,.92,0,0-.92,.4-1.11,1.03,0,0,1.47,.16,2.21,.09,.74-.07,1.29-.23,1.29-.23,0,0,.14,2.39-.59,3.83,0,0-1.34,.66-2.25,.75s-1.65-.12-1.93,.02c-.28,.14-2.14,4.2-4.63,6.51,0,0-.94-2.69-.63-3.35Z"/><path class="cls-34" d="M39.82,54.78h-1.4c-.15-.22-.1-.5-.1-.5,.57-.32,1.26-.79,1.72-1.11l-.05,.04s.21,.11,.35,.09c.13-.02,1.42-.67,1.58-.76l-1.42,.86s.23,.08,.58,.06c.34-.02,1.89-.87,1.98-.92-.79,.7-3.09,1.49-3.34,1.6-.24,.11,.11,.65,.11,.65Z"/><path class="cls-23" d="M39.82,54.78s-.12-.31,0-.52c0,0,.83-.31,1.81-.84,.98-.52,1.43-.89,1.43-.89,0,0-.86,.64-1.89,1.01-1.02,.37-1.57,.64-1.57,.64,0,0-.15,.51,.22,.6Z"/><polygon class="cls-16" points="69.9 26.87 71.9 28.94 71.19 29.42 69.9 26.87"/><path class="cls-2" d="M65.46,28.21c.81-.41,1.47-.62,1.94-.74,.47-.12,1.57-.35,1.85-.71,.03-.03,.13-.18,.27-.17,.11,0,.23,.1,.25,.11,.05,.04,.08,.08,.09,.1,.29,.46,.59,.95,.88,1.47,.2,.36,.36,.75,.59,1.1,.02,.04,.13,.19,.12,.39,0,.05,0,.15-.07,.23-.1,.13-.3,.13-.33,.13-.22,0-.9,.74-2.57,3.18-.49-.45-1.07-1.06-3.01-5.09Z"/><path class="cls-121" d="M61.85,15.45s1.36-.64,.94-2.1c-.42-1.46-2.28-1.39-3.6-.37l.26,.16s1.11-.91,1.93-.6c.81,.3,.74,.63,.74,.63,0,0-1.68-.79-3.58,0-1.9,.79-3.06,3.07-5.36,4.3-2.3,1.23-4.34,1.76-5.57,4.46,0,0,.81-1.56,2.72-2.28s2.74-.7,3.74-1.02c0,0-.88,1.23-2.95,2.88-2.07,1.65-3.07,2.93-3.02,4.6,0,0,.07-1.03,1-1.87,0,0-.7,2.92,.39,4.96s2.11,2.46,2.21,2.65c.09,.19,.3,1.3-2.09,1.16,0,0,1.09,1,3.44,.23,2.35-.77,3.32-2.28,3.32-2.28,0,0-1.21,2.06-2.35,2.57-1.14,.5-2.6-.2-2.6-.2,0,0,1,.88,2.97,.67,1.97-.21,2.73-3.02,3.5-3.48,.77-.46,4.39-2.74,6.46-3.32,2.07-.58,.62-10.1,.62-10.1,0,0,.19-1.14-.46-2.16-.65-1.02-2.38-1.51-2.66-1.09-.29,.42,0,1.62,0,1.62Z"/><path class="cls-118" d="M64.69,28.25s-.81-.83-1.3-2.31h-2.91s1.03,1.31,1.15,2.8c0,0,2.22,2.6,3.83,2.36s-.34-2.82-.34-2.82l-.43-.03Z"/><g><path class="cls-114" d="M48.65,80.8s.66,6.27,.42,7.56c-.24,1.29-1.85,4.7-2.96,6.03-1.11,1.32-2.16,1.78-2.44,2.58,0,0,2.09,.94,3.59,.7,1.5-.24,2.09-2.79,3.1-4.04s1.81-3.8,1.81-3.8c0,0-.91-1.01-.7-3.34l-2.82-5.68Z"/><path class="cls-68" d="M65.79,86.65s1.11,2.26,1.18,2.89c.07,.63-.59,1.81-.59,1.81,0,0,1.64,.07,3.76,.84,2.12,.77,4.39,.63,4.39,.63,0,0-4.18-1.64-5.12-4.11-.94-2.47-1.15-5.78-1.15-5.78l-2.47,3.73Z"/><path class="cls-32" d="M68.41,80.36c.21,3.58,.79,5.6,.79,5.6-1.67,1.25-3.41,1.46-3.41,1.46,0,0-2.13-5.05-2.23-6.9-.11-1.84,.59-5.19,.77-7.63,.18-2.44-3.34-17.07-3.34-17.07h-.31s-2.97,4.54-3.76,8.47c-.03,.13-.05,.26-.07,.38-.02,.11-.04,.22-.06,.33-.56,3.35-1.28,6.99-1.48,7.98h0s-.01,.07-.02,.09c-.02,.11-.03,.17-.03,.17-.28,.18-1.21,.65-1.21,.65-1.76,3.71-1.59,13.24-1.59,13.24-1.84,.28-3.46-.42-3.46-.42,0,0-1.17-6.6-1.06-8.87,.1-2.28,2.49-5.53,3.01-7.57,.28-1.1,.39-4.51,.72-8.15,.28-3.12,.72-6.41,1.56-8.57,.89-2.3,2.23-3.85,3.37-4.84,1.18-1.03,2.15-1.45,2.15-1.45l7.83,5.04h0l.22,.14c.08,.22,.15,.47,.23,.74h0c1.44,5.38,2.21,20.21,2.21,20.21l-.4,.81s-.6,2.55-.39,6.13Z"/><path class="cls-119" d="M51.91,89.41s.94,.99,.9,3.06c0,0-.3,.91-1.79,1.95,0,0-.56,.44-.91,1.38-.35,.94-.73,1.53-1.03,1.74-.3,.21-2.99,1.18-5.42,0,0,0-.37-.62-.2-1.04,0,0,2.47-1.7,3.1-2.74,0,0-1.04,1.36-.88,1.62,.16,.26,1.88,.4,2.94-.47,1.06-.87,2.16-2.75,2.77-3.62s.51-1.87,.51-1.87Z"/><path class="cls-106" d="M77.77,94.28c-2.2,1.25-6.13,.8-6.13,.8-.73-.42-1.39-.7-1.39-.7l-.09,.7h-4.09c-.13-.58-.16-1.1-.16-1.57,.02-1.35,.47-2.16,.47-2.16,0,0,.75-.28,3.22,.52,2.47,.8,4.68,.94,4.68,.94l-.25-.18c1.25,.26,2.18,.34,3.34,.18,.29,.26,.36,.86,.38,1.2,0,.15,0,.25,0,.25Z"/><path class="cls-59" d="M52.95,72.55c.37,.31,2.3,.71,2.3,.71-.28,.18-1.21,.65-1.21,.65-1.76,3.71-1.59,13.24-1.59,13.24-1.84,.28-3.46-.42-3.46-.42,0,0-1.17-6.6-1.06-8.87,.1-2.28,2.49-5.53,3.01-7.57,.28-1.1,.39-4.51,.72-8.15h0s.21,2.96,.1,6.13c-.11,3.17,.84,3.97,1.21,4.28Z"/><path class="cls-49" d="M55.28,73.08c.17-.88,.95-4.97,1.5-8.07-.58,3.46-1.33,7.23-1.5,8.07Z"/><path class="cls-57" d="M68.41,80.36c.21,3.58,.79,5.6,.79,5.6-1.67,1.25-3.41,1.46-3.41,1.46,0,0-2.13-5.05-2.23-6.9-.11-1.84,.59-5.19,.77-7.63,.18-2.44-3.34-17.07-3.34-17.07h-.31s-2.97,4.54-3.76,8.47c.66-3.53,2.2-8.77,2.26-9.36,.07-.61-1.66-3.64-1.66-3.64,1.15,.88,2.45,2.51,2.53,2.61-.98-2.23-3.18-4.83-3.47-5.18,1.18-1.03,2.15-1.45,2.15-1.45l7.83,5.04h0l.45,.89h0c-2.6,.35-4.89,3.52-4.89,3.52,0,0,3.22,13.89,4.19,15.28s2.9,1.42,2.9,1.42l-.4,.81s-.6,2.55-.39,6.13Z"/><polygon class="cls-58" points="60.66 55.83 64.91 53.56 62.1 56.72 61.19 56.72 60.98 55.83 60.66 55.83"/><path class="cls-46" d="M52.17,71.48s.38,1.78,1.87,2.43l1.21-.65s-1.65,.44-3.08-1.78Z"/><path class="cls-54" d="M66.54,72.3s.82,1.42,2.26,1.93l.4-.81s-1.07-.12-2.66-1.11Z"/><polygon class="cls-89" points="66.79 88.93 68.89 86.99 68.73 86.28 66.12 87.36 66.79 88.93"/><path class="cls-89" d="M49.07,88.36s1.94-.03,2.39-.75v-.4l-2.34-.43s.08,1.1-.04,1.59Z"/><path class="cls-101" d="M77.77,94.28c-2.2,1.25-6.13,.8-6.13,.8-.73-.42-1.39-.7-1.39-.7l-.09,.7h-4.09c-.13-.58-.16-1.1-.16-1.57,0,0,3.93-.18,5.93,1.04,0,0,3.41,.41,5.92-.53,0,.15,0,.25,0,.25Z"/><path class="cls-130" d="M43.46,97.02s.41-.03,1.38,.18c.98,.21,1.42,.67,2.83,.5,1.41-.16,1.91-.79,2.38-1.75,.47-.96,.25-1.06,1.3-1.77,1.04-.71,1.46-1.71,1.46-1.71v.82s-.17,.91-2.13,1.48c0,0-.61,1.03-.94,1.88-.33,.85-.89,1.14-1.17,1.21-.28,.08-3.21,.71-4.9-.33,0,0-.22,0-.21-.52Z"/><g class="cls-62"><path class="cls-66" d="M48.81,85.72s1.68,.97,3.63,1.06v.37s-2.01,.31-3.46-.42l-.17-1.01Z"/><path class="cls-66" d="M65.47,86.46s2.22-.49,3.57-1.18l.16,.67s-1.5,1.25-3.41,1.46l-.32-.96Z"/><path class="cls-66" d="M59,48.16s-.3,.99-3.73,2.02l-.62,.65s2.58-.31,4.46-2.38l-.12-.29Z"/><path class="cls-66" d="M61.62,55.31s3.9,15.9,3.84,16.69c-.05,.79-.38,5.09-.84,7.48-.46,2.38,1.5,6.87,1.5,6.87l.42-.16s-1.92-4.34-1.57-6.78c.35-2.44,.9-5.77,.81-7.31-.09-1.54-3.84-16.95-3.84-16.95l-.32,.17Z"/></g><path class="cls-53" d="M60.66,55.83s-2.18-4.01-3.16-4.53c0,0,2.31,2.15,3.16,3.84l1.78-.2-1.46,.89h-.31Z"/></g><path class="cls-74" d="M66.9,25.3c-.07,.44-.02,.84-1.18,1.09-.36,.08-.82,.16-1.36,.2h-.08c-1.2,.08-2.77-.06-4.4-.94-2.39-1.3-4.26-4.26-3.9-6.76,.49-3.39,4.69-4.22,5.57-4.11,0,0,1.84,.03,2.74,1.14,.12,.14,.22,.3,.32,.47,.11,.18,.2,.36,.28,.55,.47,1.03,.75,2.24,1.23,2.9,.22,.31,.45,.54,.65,.75,.41,.42,.77,.78,.93,1.55,.23,1.16-.74,2.72-.81,3.16Z"/><g><path class="cls-103" d="M58.5,23.67s-1.11-.46-2.04,.04c-.92,.5,.11,2.32,1.61,2.59s1.84-.67,1.75-1.02c-.09-.35-1.32-1.61-1.32-1.61Z"/><path class="cls-7" d="M58.98,24.51s-1-.48-1.71-.2c-.71,.28-.02,1.39-.02,1.39,0,0,0-.18,.26-.28,0,0,.52,.34,1.29,.36,0,0-1.01-.21-1.24-.58,0,0,.84,.59,1.39,.26,.55-.33,.04-.95,.04-.95Z"/><path class="cls-23" d="M59.19,25.08s-.74,.28-1.07,.03c-.33-.25-.2-.62-.2-.62,0,0,.61-.14,1.01,.13,0,0,.24,.21,.26,.46Z"/></g><path class="cls-102" d="M47.45,49.41c-.01,.44,1.07,1.36,1.02,1.72-.04,.36-.65,1.04-1.16,1.66-.51,.62-1.4,2.66-1.4,2.66-.26,.08-.43,0-.43,0,0,0-.3-.76-.13-1.14,.17-.38,.61-.67,.88-1.08,.27-.41,.2-1.15-.08-1.17-.28-.02-1.97,.79-2.68,1.27-.71,.48-.92,.87-1.65,1.23-.73,.36-2,.23-2,.23h-1.4c-.15-.22-.1-.5-.1-.5,.57-.32,1.26-.79,1.72-1.11l.53-.37c-.34,.13-.79,.16-1.16,.15h-.01c-.33,0-.57-.03-.57-.03v-.26s1.64-.57,2.59-1.01c.96-.43,2.94-1.6,3.62-2.33,.68-.73,1.78-2.78,1.78-2.78l3.68-.92s-3.04,3.34-3.05,3.78Z"/><path class="cls-24" d="M69.86,37.44l-.03,.03s-.95,2-1.62,4.81c-.36,1.51-.67,3.93-.88,5.84,0,.01,0,.03,0,.04-.18,1.63-.28,2.89-.28,2.89,0,0,.49,.37,.47,.54-.02,.17-.35,.66-.35,.66,0,0-1.2,.92-4.21,.28-3.01-.64-4.4-5.41-4.33-5.75,.07-.33,.31-.37,.31-.37,0,0,.16-.38,.5-.45,.35-.07,1.25-.77,1.78-3.1,.52-2.33-.44-5.4-.44-5.4-.41-1.98-.59-4.22-.67-5.71-.06-1.03-.06-1.71-.06-1.71,0,0,1.37-.62,1.46-1.06,.09-.43-.24-1.11-.24-1.11l.12-.25s.94,.32,1.79,.13c.86-.19,.7-.69,.7-.69l.32,.16,.49,1.02,.77-.04s.27,.92,1.39,2.12c.16,.16,.33,.33,.51,.5,1.55,1.43,3.55,3.58,3.71,3.95,.04,.1,.07,.2,.09,.3,.17,1.08-1.09,2.18-1.31,2.36Z"/><path class="cls-83" d="M64.18,19.06s-.28-2.04,.59-2.39c0,0,.3,.21,.33,.74,0,0-.19-.2-.42,.09-.23,.28-.41,.56-.49,1.57Z"/><path class="cls-87" d="M61.85,17.62s.17,.45-.09,1c0,0-.5,.21-1.2,.67-.57,.38-1.1,1.41-1.1,1.41,0,0,.03-.52,.58-1.46,.55-.94,1.69-1.35,1.81-1.62Z"/><path class="cls-72" d="M60.13,22.02c0,.39,.61,.63,1.27,.51,.66-.12,1.2-.47,1.39-.87,.19-.4-.23-1.65-1.07-1.72-.84-.07-1.59,1.06-1.59,2.09Z"/><path class="cls-90" d="M65.1,18.64c-.35,.33-.42,1.62,0,1.95,.42,.33,1.17,.08,1.18-.23s-.76-2.12-1.18-1.72Z"/><path class="cls-76" d="M60.13,21.9s.29-1.81,1.43-1.96c.82-.11,1.19,.97,1.19,.97,0,0-.32-1.15-1.1-1.25-.9-.11-1.68,1.08-1.52,2.23Z"/><path class="cls-133" d="M61.13,21.24c-.14-.5,.1-1,.52-1.11,.43-.12,.88,.19,1.02,.69,.14,.5-.1,1-.52,1.11-.43,.12-.88-.19-1.02-.69Z"/><path class="cls-132" d="M61.49,21.15c-.1-.35,.07-.7,.36-.78,.3-.08,.62,.13,.71,.48,.1,.35-.07,.7-.36,.78-.3,.08-.62-.13-.71-.48Z"/><path class="cls-64" d="M65.1,19.8c-.15-.46-.07-.89,.18-.97,.24-.08,.56,.23,.71,.69,.15,.46,.07,.89-.18,.97-.24,.08-.56-.23-.71-.69Z"/><path class="cls-132" d="M65.26,19.75c-.1-.32-.05-.62,.13-.68,.17-.05,.39,.16,.5,.48,.1,.32,.05,.62-.13,.68-.17,.05-.39-.16-.5-.48Z"/><path class="cls-76" d="M64.89,20.27s-.34-1.48,.1-1.93c.46-.48,1,1.24,1,1.24,0,0-.49-1.22-.89-.93-.4,.3-.25,1.32-.21,1.62Z"/><path class="cls-13" d="M64.81,22.3s.28-.25,.57-.17c0,0,0,.07-.11,.12,0,0-.23-.04-.47,.04Z"/><path class="cls-97" d="M66.53,24.45s-.42,.58-1.2,.55c-.49-.02-1.1-.5-1.48-.84-.22-.2-.36-.35-.36-.35l.66-.1,1.84-.72,.51-.08c0,.18,0,.67,.01,1.05,0,.28,.02,.5,.02,.5Z"/><path class="cls-18" d="M64.36,22.12s.07,.1,.45,.18c.38,.09,.98,0,.98,0,0,0,.62-.38,.5-1.06,0,0-.12,.29-.87,.49-.76,.2-1.05,.38-1.05,.38Z"/><path class="cls-11" d="M64.77,20.52s.3,.32,.61,.4c.31,.08,.87,.1,.99,.19,.12,.09,.14,1-.76,1.31,0,0,.4-.2,.56-.65,.17-.45,.06-.55,0-.59-.05-.03-.26-.03-.72-.13-.46-.09-.69-.54-.69-.54Z"/><path class="cls-48" d="M66.51,23.95c-.62-.3-2.54,.22-2.54,.22h-.13c-.22-.21-.36-.36-.36-.36l.66-.1,1.84-.72,.51-.08c0,.18,0,.67,.01,1.05Z"/><path class="cls-19" d="M63.39,23.43s-.2,.33-.26,.79c0,0,.29-.45,.71-.68,0,0-.12-.21-.45-.11Z"/><path class="cls-75" d="M63.84,23.82l.28,.24,.14,.34s.29,.6,1.12,.6c.83,0,1.12-.78,1.12-.78,0,0-.18-.46-.2-.63l.13-.67s-1.61,.76-2.59,.9Z"/><path class="cls-94" d="M63.39,23.79s.43,.01,.96-.23c.53-.24,1.71-.93,2.17-.76,0,0,.1,.02,.26-.15,0,0,.03,.15-1,.57-1.03,.42-1.56,.66-2.4,.56Z"/><path class="cls-127" d="M63.6,23.81s.85,.96,1.65,1.02c.8,.07,1.21-.41,1.25-.61,.03-.2-.18-.96,0-1.32l.18-.11s-.31,.47-.06,1.43c0,0,.12,.28,.06,.61,0,0-.57,.59-1.43,.48-.86-.11-1.76-1.5-1.76-1.5h.11Z"/><path class="cls-45" d="M66.5,22.42s.42,.36,.42,.82c0,0,.11-.63-.13-.94l-.29,.12Z"/><path class="cls-14" d="M64.62,16.39c.11,.18,.2,.36,.28,.55l-.28-.55Z"/><path class="cls-128" d="M57.78,21.79s.49,1.61,.99,2.17c0,0-.46-.07-1.43-.42l.44-1.75Z"/><path class="cls-136" d="M61.76,15.3s.51-1.52-.45-2.39c-.96-.87-3.53-.01-4.78,1.47-1.25,1.48-1.44,2.02-4.19,3.34-2.75,1.32-4.09,2.44-4.74,4.19s-1.62,2.31-1.62,2.31c0,0,1.92-.58,2.58-2.09,.66-1.52,1.58-3.01,3.08-3.45,1.5-.44,3.03-.4,3.54-.59,0,0-2.82,2.29-4.62,3.86s-3.09,3.37-2.41,5.79c.68,2.42,2.63,3.27,2.63,3.27,0,0-1.56-1-2.12-2.96-.56-1.96,.61-3.71,.61-3.71,0,0-.93,2.55,.02,4.39,.95,1.84,2,2.74,2,2.74,0,0-1.01-1.56-.71-3.2,.3-1.64,4.55-2.9,5.97-3.82,1.42-.93,1.25-3.19,1.25-3.19l-.11,.41s0-1.08-.1-1.88c0,0-.11,.32-.3,.49,0,0,.14-1.83,1.03-3.13,1.04-1.52,3.13-1.85,3.13-1.85l-.14-.26,.47,.26Z"/><path class="cls-37" d="M60.92,26.62s1.83,.98,2.95,.44l-.22-.44s-1.47,.08-3.17-.68l.44,.68Z"/><path class="cls-131" d="M58.63,16.67s-1.89,.51-2.68,2.79c-.79,2.28-4.27,3.81-5.57,5.55-1.3,1.74,.35,5.22,.35,5.22,0,0-.61-2.06,1.16-3.64s4.36-2.15,5.06-5.11c.7-2.96,1.15-4.41,1.68-4.81Z"/><path class="cls-112" d="M60.28,15.65s-.73-1.19-2.39-.87-3.19,2.5-5.83,3.09c0,0,2.29-.78,4.89-3.5,2.6-2.72,4.49,.93,4.49,.93l-1.15,.35Z"/><path class="cls-67" d="M64.86,20.63s.16-.04,.37,.14c.21,.18,1.12,.54,1.12,.54,0,0-.7-.27-1.02-.72,0,0-.27-.07-.46,.04Z"/><path class="cls-91" d="M57.16,23.12s1.1,1.23-1.54,3.09c-2.65,1.86-4.25,3.67-4.41,4.6-.16,.93,.39,1.64-.11,2.04,0,0,.56-.24,.51-.67-.05-.43-.26-.84-.17-1.35,.09-.51,1.37-2.65,3.83-3.97,2.46-1.32,3.2-1.94,2.52-5.59l-.62,1.86Z"/><path class="cls-31" d="M68.09,32.3c-1.23-.48-2.63-2.17-2.63-2.17,0,0-.14,.7-.93,.68-.78-.01-3.03-1.82-3.03-1.82,.09-.43-.24-1.11-.24-1.11l.12-.25s.94,.32,1.79,.13c.86-.19,.7-.69,.7-.69l.32,.16,.49,1.02,.77-.04s.27,.92,1.39,2.12l1.24,1.97Z"/><path class="cls-33" d="M65.76,51.33s1.27-.94,1.55-3.17c-.18,1.63-.28,2.89-.28,2.89,0,0-.67,.28-1.28,.28Z"/><path class="cls-40" d="M65.17,37.45s2.54-1.7,3.93-1.81c0,0-.82,.86-1.97,1.32-1.14,.46-1.97,.49-1.97,.49Z"/><path class="cls-3" d="M67.32,43.49s-.53,2.83-2.96,4.37c0,0,2.64-.19,2.96-4.37Z"/><path class="cls-8" d="M84.44,13.07s-.68,1.19-1.21,1.45v.75s.86,.16,1.81,.6c.95,.44,1.37,.76,1.37,.76,0,0,1-.32,1.14-.66,.14-.35-.16-2.9-.16-2.9,0,0-2.15,.19-2.95,0Z"/><polygon class="cls-21" points="46.82 46.54 52.05 40.05 57.34 34.02 59.56 36.54 53.94 41.32 50.51 45.62 46.82 46.54"/><path class="cls-43" d="M60.04,30.05c-.41,.21-.67,.44-.83,.6-.95,.97-1.55,2.89-1.85,2.87-.02,0-.1-.01-.16,.04-.06,.05-.09,.13-.07,.2,.01,.05,.06,.1,.1,.17,.02,.03,.38,.62,.79,1.13,.64,.78,1.44,1.41,1.63,1.56,.07,0,.17,0,.24-.05,.07-.07,.07-.17,.07-.19,0-.32,1.3-1.47,1.5-1.7,.39-.43,.41-1.54-1.42-4.63Z"/><path class="cls-39" d="M69.86,37.44l-.03,.03s-2.16-.12-4.37,.42c-2.2,.54-3.52,5.26-3.56,8.22-.04,2.96,.57,5.02,2,5.49,0,0-1.86-.08-2.62-3.21,0,0-.22,2.12,1.19,3.21,1.41,1.1,4.19,.6,5.05,0-.02,.17-.35,.66-.35,.66,0,0-1.2,.92-4.21,.28-3.01-.64-4.4-5.41-4.33-5.75,.07-.33,.31-.37,.31-.37,0,0,.16-.38,.5-.45,.35-.07,1.25-.77,1.78-3.1,.52-2.33-.44-5.4-.44-5.4-.41-1.98-.59-4.22-.67-5.71l1.17-1.88s2,3.54,4.42,4.14c0,0-1.3,.02-2.56-.54,0,0,.43,1.51,1.23,1.88,.8,.37,3.66-.49,4.47-.49s2.34,.21,2.34,.21c.17,1.08-1.09,2.18-1.31,2.36Z"/><path class="cls-29" d="M69.47,26.82s1.14,2.31,1.78,2.94c0,0-1.32-2.54-1.78-2.94Z"/><path class="cls-35" d="M57.43,33.76s1.49,2.28,2.29,2.58c0,0-1.97-2.32-2.29-2.58Z"/><g><g><path class="cls-120" d="M89.75,2.42l-.5-.22c-.13-.06-.28,0-.33,.13l-3.55,9.73,.61,.22,3.77-9.87Z"/><path class="cls-120" d="M92.13,3.57l.45,.21c.14,.06,.19,.23,.11,.36l-5.29,8.88-.55-.33,5.29-9.12Z"/><polygon class="cls-116" points="92.78 4.29 92.72 3.96 92.57 3.97 92.61 4.45 92.78 4.29"/><circle class="cls-120" cx="85.77" cy="13.8" r="1.39"/><path class="cls-120" d="M86.25,13.8l-.77-.36-1.46,3.07c-.1,.21,.02,.46,.23,.57h0c.21,.1,.54-.2,.64-.41l1.36-2.86Z"/><path class="cls-95" d="M86.3,14.05c.14-.29,.01-.65-.28-.79-.29-.14-.65-.01-.79,.28-.14,.29-.01,.65,.28,.79s.65,.01,.79-.28Z"/></g><g><path class="cls-135" d="M89.65,2.67l-.34-.16c-.13-.06-.28,0-.33,.13l-3.55,9.73,.61,.22,3.61-9.92Z"/><path class="cls-135" d="M92.19,3.88l.45,.21c.14,.06,.19,.23,.11,.36l-5.29,8.88-.55-.33,5.29-9.12Z"/><polygon class="cls-78" points="88.13 10.28 88.21 10.32 88.27 10.63 88.85 10.98 88.93 10.86 88.94 11.03 88.19 10.59 88.13 10.28"/><rect class="cls-113" x="85.61" y="9.79" width=".87" height="3.58" transform="translate(9.18 -28.79) rotate(20.05)"/><rect class="cls-134" x="87.21" y="10.56" width=".87" height="3.58" transform="translate(156.64 67.8) rotate(-149.23)"/><path class="cls-135" d="M87.09,14.7c.33-.7,.03-1.53-.66-1.86-.7-.33-1.53-.03-1.86,.66-.33,.7-.03,1.53,.66,1.86,.7,.33,1.53,.03,1.86-.66Z"/><path class="cls-135" d="M86.31,14.11l-.77-.36-1.36,2.86c-.1,.21-.01,.47,.2,.57h0c.21,.1,.47,.01,.57-.2l1.36-2.86Z"/><path class="cls-100" d="M86.36,14.36c.14-.29,.01-.65-.28-.79-.29-.14-.65-.01-.79,.28-.14,.29-.01,.65,.28,.79s.65,.01,.79-.28Z"/><path class="cls-123" d="M89.64,2.5l.56-1.45-.83,1.32c-.05,.08,.24,.22,.27,.14Z"/><path class="cls-96" d="M92.57,3.93l.56-1.45-.83,1.32c-.05,.08,.24,.22,.27,.14Z"/></g><polygon class="cls-88" points="85.08 12.93 85.03 12.61 86.19 9.44 86.28 9.77 85.08 12.93"/><polygon class="cls-137" points="86.73 13.03 86.66 12.75 88.13 10.28 88.19 10.59 86.73 13.03"/><polygon class="cls-138" points="86.19 9.44 86.28 9.77 87.06 10.05 87 9.98 86.38 9.75 86.31 9.49 86.19 9.44"/></g><path class="cls-82" d="M86.72,12.88c.03-.17,1.57-.56,1.86-.45,.3,.1,.19,.63,.1,.79s-.46,.29-.46,.29c0,0,.29,.48-.02,.85,0,0,.2,.65-.24,.88,0,0,.18,.89-.21,1.21-.39,.32-.59,.17-.72,0s-.06-.7,.17-.77l.33-.12s-.69-.01-.96-.1c-.28-.09-.36-.56-.14-.75,0,0-.43-.12-.43-.39,0-.55,1.14-.79,1.14-.79,0,0-.55,.07-.41-.64Z"/><path class="cls-111" d="M82.32,12.71s.73,.89,2.12,.37c0,0,.28-.63,.85-.89s1.07-.45,1.09-.52c.02-.07,.57-1.29,.16-2.02,0,0-.27-.13-.48,0,0,0-.66,1.29-1.09,1.69-.43,.41-2.09,.77-2.66,1.37Z"/></g></g></g></g></g></svg>