<?xml version="1.0" encoding="UTF-8"?><svg xmlns="http://www.w3.org/2000/svg" xmlns:xlink="http://www.w3.org/1999/xlink" viewBox="0 0 83.69 85.44"><defs><style>.cls-1{fill:url(#_åçûìÿííûé_ãðàäèåíò_13-2);}.cls-2{fill:url(#_åçûìÿííûé_ãðàäèåíò_70-9);}.cls-2,.cls-3,.cls-4,.cls-5,.cls-6,.cls-7,.cls-8,.cls-9,.cls-10,.cls-11,.cls-12,.cls-13,.cls-14,.cls-15,.cls-16,.cls-17,.cls-18,.cls-19,.cls-20,.cls-21,.cls-22,.cls-23,.cls-24,.cls-25,.cls-26,.cls-27,.cls-28,.cls-29,.cls-30,.cls-31,.cls-32,.cls-33,.cls-34,.cls-35,.cls-36,.cls-37,.cls-38,.cls-39,.cls-40,.cls-41,.cls-42,.cls-43,.cls-44,.cls-45,.cls-46,.cls-47,.cls-48,.cls-49,.cls-50,.cls-51,.cls-52,.cls-53,.cls-54,.cls-55,.cls-56,.cls-57,.cls-58,.cls-59,.cls-60,.cls-61,.cls-62,.cls-63,.cls-64,.cls-65,.cls-66,.cls-67,.cls-68,.cls-69,.cls-70,.cls-71,.cls-72,.cls-73,.cls-74,.cls-75,.cls-76,.cls-77,.cls-78,.cls-79,.cls-80,.cls-81,.cls-82,.cls-83{fill-rule:evenodd;}.cls-2,.cls-4,.cls-84,.cls-85,.cls-86,.cls-5,.cls-6,.cls-7,.cls-8,.cls-87,.cls-10,.cls-11,.cls-12,.cls-88,.cls-89,.cls-18,.cls-90,.cls-20,.cls-91,.cls-92,.cls-93,.cls-94,.cls-95,.cls-27,.cls-29,.cls-31,.cls-34,.cls-35,.cls-96,.cls-97,.cls-37,.cls-39,.cls-40,.cls-42,.cls-98,.cls-51,.cls-99,.cls-54,.cls-55,.cls-56,.cls-57,.cls-58,.cls-59,.cls-62,.cls-100,.cls-66,.cls-69,.cls-74,.cls-75,.cls-76,.cls-79,.cls-80,.cls-82,.cls-83{mix-blend-mode:multiply;}.cls-2,.cls-86,.cls-6,.cls-87,.cls-10,.cls-89,.cls-18,.cls-91,.cls-92,.cls-94,.cls-101,.cls-96,.cls-97,.cls-37,.cls-98,.cls-54,.cls-55,.cls-56,.cls-59,.cls-62,.cls-66,.cls-74,.cls-75,.cls-76,.cls-80,.cls-83{opacity:.5;}.cls-3{fill:url(#_åçûìÿííûé_ãðàäèåíò_84-4);}.cls-102,.cls-19{fill:#c44a4c;}.cls-103{fill:url(#_åçûìÿííûé_ãðàäèåíò_71-2);}.cls-4{fill:url(#_åçûìÿííûé_ãðàäèåíò_271-2);}.cls-4,.cls-5{opacity:.3;}.cls-104{fill:url(#_åçûìÿííûé_ãðàäèåíò_16);}.cls-105,.cls-9,.cls-70{fill:#fff;}.cls-106{fill:url(#_åçûìÿííûé_ãðàäèåíò_3-2);}.cls-84{fill:url(#_åçûìÿííûé_ãðàäèåíò_118);}.cls-85{fill:url(#_åçûìÿííûé_ãðàäèåíò_123-4);}.cls-85,.cls-7,.cls-27,.cls-100{opacity:.91;}.cls-86{fill:url(#_åçûìÿííûé_ãðàäèåíò_70-4);}.cls-107{fill:url(#_åçûìÿííûé_ãðàäèåíò_11-8);}.cls-5{fill:url(#_åçûìÿííûé_ãðàäèåíò_271);}.cls-6{fill:url(#_åçûìÿííûé_ãðàäèåíò_70-8);}.cls-7{fill:url(#_åçûìÿííûé_ãðàäèåíò_123-2);}.cls-108{fill:url(#_åçûìÿííûé_ãðàäèåíò_11-3);}.cls-8{fill:url(#_åçûìÿííûé_ãðàäèåíò_69-3);}.cls-8,.cls-11,.cls-12,.cls-20,.cls-29,.cls-31,.cls-34,.cls-35,.cls-40,.cls-42,.cls-51,.cls-69,.cls-79,.cls-82{opacity:.6;}.cls-87{fill:url(#_åçûìÿííûé_ãðàäèåíò_6-2);}.cls-109{fill:url(#_åçûìÿííûé_ãðàäèåíò_115);}.cls-110{fill:url(#_åçûìÿííûé_ãðàäèåíò_12-2);}.cls-111{fill:url(#_åçûìÿííûé_ãðàäèåíò_66);}.cls-112{fill:url(#_åçûìÿííûé_ãðàäèåíò_7);}.cls-113{fill:#ffebed;}.cls-10{fill:url(#_åçûìÿííûé_ãðàäèåíò_70-11);}.cls-114{fill:#632d46;}.cls-115{fill:#f58e6f;}.cls-11{fill:url(#_åçûìÿííûé_ãðàäèåíò_409-5);}.cls-12{fill:url(#_åçûìÿííûé_ãðàäèåíò_69-4);}.cls-13{fill:url(#_åçûìÿííûé_ãðàäèåíò_21);}.cls-116{fill:url(#_åçûìÿííûé_ãðàäèåíò_4-4);}.cls-14{fill:#dd6668;}.cls-117{fill:url(#_åçûìÿííûé_ãðàäèåíò_11-4);}.cls-118{isolation:isolate;}.cls-15{fill:#2aff3c;}.cls-16{fill:url(#_åçûìÿííûé_ãðàäèåíò_58);}.cls-17{fill:url(#_åçûìÿííûé_ãðàäèåíò_108-8);}.cls-119{fill:url(#_åçûìÿííûé_ãðàäèåíò_55);}.cls-120{fill:url(#_åçûìÿííûé_ãðàäèåíò_64);}.cls-88{fill:url(#_åçûìÿííûé_ãðàäèåíò_158);}.cls-121{fill:url(#_åçûìÿííûé_ãðàäèåíò_4-2);}.cls-89{fill:url(#_åçûìÿííûé_ãðàäèåíò_6);}.cls-18{fill:url(#_åçûìÿííûé_ãðàäèåíò_99);}.cls-90{fill:url(#_åçûìÿííûé_ãðàäèåíò_70-3);}.cls-90,.cls-93{opacity:.65;}.cls-122{fill:url(#_åçûìÿííûé_ãðàäèåíò_12-4);}.cls-20{fill:url(#_åçûìÿííûé_ãðàäèåíò_409-9);}.cls-91{fill:url(#_åçûìÿííûé_ãðàäèåíò_17-2);}.cls-123{fill:url(#_åçûìÿííûé_ãðàäèåíò_132-3);}.cls-92{fill:url(#_åçûìÿííûé_ãðàäèåíò_70-5);}.cls-21{fill:url(#_åçûìÿííûé_ãðàäèåíò_191-2);}.cls-21,.cls-38{opacity:.42;}.cls-124,.cls-44{fill:#cc5268;}.cls-22{fill:url(#_åçûìÿííûé_ãðàäèåíò_108-7);}.cls-93{fill:url(#_åçûìÿííûé_ãðàäèåíò_70-6);}.cls-125{fill:url(#_åçûìÿííûé_ãðàäèåíò_66-2);}.cls-23{fill:url(#_åçûìÿííûé_ãðàäèåíò_84-3);}.cls-94{fill:url(#_åçûìÿííûé_ãðàäèåíò_17);}.cls-24{fill:url(#_åçûìÿííûé_ãðàäèåíò_72-3);}.cls-126{fill:url(#_åçûìÿííûé_ãðàäèåíò_115-3);}.cls-25{fill:url(#_åçûìÿííûé_ãðàäèåíò_108-2);}.cls-127{fill:url(#_åçûìÿííûé_ãðàäèåíò_11-5);}.cls-128{fill:url(#_åçûìÿííûé_ãðàäèåíò_132-2);}.cls-129{fill:url(#_åçûìÿííûé_ãðàäèåíò_139);}.cls-130{fill:url(#_åçûìÿííûé_ãðàäèåíò_139-2);}.cls-95{fill:url(#_åçûìÿííûé_ãðàäèåíò_6-5);}.cls-95,.cls-99{opacity:.7;}.cls-26{fill:url(#_åçûìÿííûé_ãðàäèåíò_72-2);}.cls-131{fill:url(#_åçûìÿííûé_ãðàäèåíò_75);}.cls-101,.cls-70{mix-blend-mode:soft-light;}.cls-27{fill:url(#_åçûìÿííûé_ãðàäèåíò_123-3);}.cls-132{fill:url(#_åçûìÿííûé_ãðàäèåíò_14-2);}.cls-133{fill:url(#_åçûìÿííûé_ãðàäèåíò_14);}.cls-28{fill:url(#_åçûìÿííûé_ãðàäèåíò_84-6);}.cls-29{fill:url(#_åçûìÿííûé_ãðàäèåíò_409-3);}.cls-30{fill:url(#_åçûìÿííûé_ãðàäèåíò_84);}.cls-31{fill:url(#_åçûìÿííûé_ãðàäèåíò_409-6);}.cls-32{fill:url(#_åçûìÿííûé_ãðàäèåíò_52-3);}.cls-33{fill:url(#_åçûìÿííûé_ãðàäèåíò_84-7);}.cls-134{fill:url(#_åçûìÿííûé_ãðàäèåíò_134);}.cls-34{fill:url(#_åçûìÿííûé_ãðàäèåíò_409-7);}.cls-35{fill:url(#_åçûìÿííûé_ãðàäèåíò_69);}.cls-96{fill:url(#_åçûìÿííûé_ãðàäèåíò_70-22);}.cls-97{fill:url(#_åçûìÿííûé_ãðàäèåíò_70-2);}.cls-135{fill:#d0e2fe;}.cls-36{fill:url(#_åçûìÿííûé_ãðàäèåíò_108-3);}.cls-37{fill:url(#_åçûìÿííûé_ãðàäèåíò_70-19);}.cls-38{fill:url(#_åçûìÿííûé_ãðàäèåíò_191);}.cls-39{fill:url(#_åçûìÿííûé_ãðàäèåíò_70-21);}.cls-39,.cls-57,.cls-58{opacity:.2;}.cls-136{fill:url(#_åçûìÿííûé_ãðàäèåíò_4-6);}.cls-137{fill:url(#_åçûìÿííûé_ãðàäèåíò_4-3);}.cls-40{fill:url(#_åçûìÿííûé_ãðàäèåíò_69-5);}.cls-41{fill:url(#_åçûìÿííûé_ãðàäèåíò_100);}.cls-42{fill:url(#_åçûìÿííûé_ãðàäèåíò_409-4);}.cls-43{fill:url(#_åçûìÿííûé_ãðàäèåíò_108-5);}.cls-138{fill:url(#_åçûìÿííûé_ãðàäèåíò_12-5);}.cls-139{fill:url(#_åçûìÿííûé_ãðàäèåíò_125);}.cls-140{fill:url(#_åçûìÿííûé_ãðàäèåíò_7-4);}.cls-141{fill:url(#_åçûìÿííûé_ãðàäèåíò_11-6);}.cls-142{fill:url(#_åçûìÿííûé_ãðàäèåíò_11-2);}.cls-45{fill:url(#_åçûìÿííûé_ãðàäèåíò_52-2);}.cls-98{fill:url(#_åçûìÿííûé_ãðàäèåíò_6-3);}.cls-46{fill:url(#_åçûìÿííûé_ãðàäèåíò_146);}.cls-47{fill:url(#_åçûìÿííûé_ãðàäèåíò_90);}.cls-143{fill:#77485e;}.cls-48{fill:url(#_åçûìÿííûé_ãðàäèåíò_108-6);}.cls-144{fill:url(#_åçûìÿííûé_ãðàäèåíò_26);}.cls-145{fill:url(#_åçûìÿííûé_ãðàäèåíò_147);}.cls-49{fill:url(#_åçûìÿííûé_ãðàäèåíò_323-2);}.cls-49,.cls-61{mix-blend-mode:screen;}.cls-50{fill:url(#_åçûìÿííûé_ãðàäèåíò_108-9);}.cls-51{fill:url(#_åçûìÿííûé_ãðàäèåíò_409);}.cls-146{fill:url(#_åçûìÿííûé_ãðàäèåíò_11);}.cls-52{fill:url(#_åçûìÿííûé_ãðàäèåíò_72);}.cls-99{fill:url(#_åçûìÿííûé_ãðàäèåíò_6-4);}.cls-147{fill:url(#_åçûìÿííûé_ãðàäèåíò_97-2);}.cls-53{fill:url(#_åçûìÿííûé_ãðàäèåíò_47);}.cls-54{fill:url(#_åçûìÿííûé_ãðàäèåíò_70-10);}.cls-55{fill:url(#_åçûìÿííûé_ãðàäèåíò_70-23);}.cls-148{fill:url(#_åçûìÿííûé_ãðàäèåíò_11-7);}.cls-149{fill:url(#_åçûìÿííûé_ãðàäèåíò_13);}.cls-56{fill:url(#_åçûìÿííûé_ãðàäèåíò_70-17);}.cls-57{fill:url(#_åçûìÿííûé_ãðàäèåíò_70-16);}.cls-58{fill:url(#_åçûìÿííûé_ãðàäèåíò_70-15);}.cls-59{fill:url(#_åçûìÿííûé_ãðàäèåíò_70-7);}.cls-150{fill:url(#_åçûìÿííûé_ãðàäèåíò_12-3);}.cls-151{fill:url(#_åçûìÿííûé_ãðàäèåíò_4-5);}.cls-152{fill:url(#_åçûìÿííûé_ãðàäèåíò_7-3);}.cls-60{fill:url(#_åçûìÿííûé_ãðàäèåíò_59);}.cls-61{fill:url(#_åçûìÿííûé_ãðàäèåíò_323);}.cls-62{fill:url(#_åçûìÿííûé_ãðàäèåíò_70-12);}.cls-153{fill:url(#_åçûìÿííûé_ãðàäèåíò_26-2);}.cls-154{fill:url(#_åçûìÿííûé_ãðàäèåíò_4);}.cls-155{fill:url(#_åçûìÿííûé_ãðàäèåíò_7-2);}.cls-156{fill:url(#_åçûìÿííûé_ãðàäèåíò_31);}.cls-100{fill:url(#_åçûìÿííûé_ãðàäèåíò_123);}.cls-63{fill:url(#_åçûìÿííûé_ãðàäèåíò_108-4);}.cls-64{fill:url(#_åçûìÿííûé_ãðàäèåíò_160);}.cls-65{fill:url(#_åçûìÿííûé_ãðàäèåíò_67-2);}.cls-66{fill:url(#_åçûìÿííûé_ãðàäèåíò_70-13);}.cls-67{fill:url(#_åçûìÿííûé_ãðàäèåíò_84-5);}.cls-68{fill:url(#_åçûìÿííûé_ãðàäèåíò_50-2);}.cls-69{fill:url(#_åçûìÿííûé_ãðàäèåíò_69-2);}.cls-71{fill:url(#_åçûìÿííûé_ãðàäèåíò_84-2);}.cls-72{fill:url(#_åçûìÿííûé_ãðàäèåíò_108);}.cls-73{fill:#c7ff00;}.cls-157{fill:url(#_åçûìÿííûé_ãðàäèåíò_3);}.cls-74{fill:url(#_åçûìÿííûé_ãðàäèåíò_70-18);}.cls-158{fill:url(#_åçûìÿííûé_ãðàäèåíò_87);}.cls-159{fill:url(#_åçûìÿííûé_ãðàäèåíò_26-3);}.cls-75{fill:url(#_åçûìÿííûé_ãðàäèåíò_70-20);}.cls-76{fill:#7e3781;}.cls-160{fill:url(#_åçûìÿííûé_ãðàäèåíò_12);}.cls-77{fill:url(#_åçûìÿííûé_ãðàäèåíò_50);}.cls-161{fill:url(#_åçûìÿííûé_ãðàäèåíò_134-2);}.cls-162{fill:url(#_åçûìÿííûé_ãðàäèåíò_97);}.cls-78{fill:url(#_åçûìÿííûé_ãðàäèåíò_52);}.cls-163{fill:#522f2e;}.cls-79{fill:url(#_åçûìÿííûé_ãðàäèåíò_409-2);}.cls-80{fill:url(#_åçûìÿííûé_ãðàäèåíò_70-14);}.cls-164{fill:url(#_åçûìÿííûé_ãðàäèåíò_71);}.cls-81{fill:url(#_åçûìÿííûé_ãðàäèåíò_67);}.cls-165{fill:url(#_åçûìÿííûé_ãðàäèåíò_115-2);}.cls-82{fill:url(#_åçûìÿííûé_ãðàäèåíò_409-8);}.cls-166{fill:url(#_åçûìÿííûé_ãðàäèåíò_132);}.cls-83{fill:url(#_åçûìÿííûé_ãðàäèåíò_70);}</style><linearGradient id="_åçûìÿííûé_ãðàäèåíò_108" x1="-441.14" y1="64.53" x2="-441.14" y2="25.25" gradientTransform="translate(489.29)" gradientUnits="userSpaceOnUse"><stop offset="0" stop-color="#bdb3e7"/><stop offset=".65" stop-color="#b2adea"/><stop offset="1" stop-color="#aae"/></linearGradient><linearGradient id="_åçûìÿííûé_ãðàäèåíò_70" x1="-441.56" y1="62.18" x2="-441.56" y2="28.49" gradientTransform="translate(489.29)" gradientUnits="userSpaceOnUse"><stop offset=".01" stop-color="#be6888"/><stop offset="1" stop-color="#8e81f4"/></linearGradient><linearGradient id="_åçûìÿííûé_ãðàäèåíò_108-2" x1="-413.42" y1="15.18" x2="-413.42" y2="9.73" xlink:href="#_åçûìÿííûé_ãðàäèåíò_108"/><linearGradient id="_åçûìÿííûé_ãðàäèåíò_108-3" x1="-431.49" y1="22.23" x2="-431.49" y2="20.1" xlink:href="#_åçûìÿííûé_ãðàäèåíò_108"/><linearGradient id="_åçûìÿííûé_ãðàäèåíò_26" x1="-436.36" y1="25.25" x2="-436.36" y2="4.79" gradientTransform="translate(489.29)" gradientUnits="userSpaceOnUse"><stop offset=".01" stop-color="#512438"/><stop offset=".99" stop-color="#832e31"/></linearGradient><linearGradient id="_åçûìÿííûé_ãðàäèåíò_4" x1="-430.01" y1="22.52" x2="-430.01" y2="17.67" gradientTransform="translate(489.29)" gradientUnits="userSpaceOnUse"><stop offset=".02" stop-color="#ff8359"/><stop offset="1" stop-color="#ff8b7c"/></linearGradient><linearGradient id="_åçûìÿííûé_ãðàäèåíò_11" x1="-444.45" y1="85.04" x2="-444.45" y2="69.18" gradientTransform="translate(489.29)" gradientUnits="userSpaceOnUse"><stop offset=".02" stop-color="#ffae78"/><stop offset="1" stop-color="#ff957c"/></linearGradient><linearGradient id="_åçûìÿííûé_ãðàäèåíò_11-2" x1="-423.56" y1="80.47" x2="-423.56" y2="71.17" xlink:href="#_åçûìÿííûé_ãðàäèåíò_11"/><linearGradient id="_åçûìÿííûé_ãðàäèåíò_67" x1="-434.46" y1="75.39" x2="-434.46" y2="37.7" gradientTransform="translate(489.29)" gradientUnits="userSpaceOnUse"><stop offset="0" stop-color="#724fa5"/><stop offset="1" stop-color="#721fb1"/></linearGradient><linearGradient id="_åçûìÿííûé_ãðàäèåíò_7" x1="-444.26" y1="85.43" x2="-444.26" y2="77.26" gradientTransform="translate(489.29)" gradientUnits="userSpaceOnUse"><stop offset=".01" stop-color="#680e38"/><stop offset=".99" stop-color="#832e31"/></linearGradient><linearGradient id="_åçûìÿííûé_ãðàäèåíò_7-2" x1="-421.99" y1="82.66" x2="-421.99" y2="79.04" xlink:href="#_åçûìÿííûé_ãðàäèåíò_7"/><linearGradient id="_åçûìÿííûé_ãðàäèåíò_6" x1="-441.01" y1="75.19" x2="-441.01" y2="51.64" gradientTransform="translate(489.29)" gradientUnits="userSpaceOnUse"><stop offset=".01" stop-color="#63517c"/><stop offset="1" stop-color="#8e72b3"/></linearGradient><linearGradient id="_åçûìÿííûé_ãðàäèåíò_70-2" x1="-436.83" y1="61.93" x2="-436.83" y2="54.35" xlink:href="#_åçûìÿííûé_ãðàäèåíò_70"/><linearGradient id="_åçûìÿííûé_ãðàäèåíò_6-2" x1="-430.39" y1="75.39" x2="-430.39" y2="37.7" xlink:href="#_åçûìÿííûé_ãðàäèåíò_6"/><linearGradient id="_åçûìÿííûé_ãðàäèåíò_70-3" x1="-430.49" y1="46.57" x2="-430.49" y2="43.6" xlink:href="#_åçûìÿííûé_ãðàäèåíò_70"/><linearGradient id="_åçûìÿííûé_ãðàäèåíò_70-4" x1="-439.01" y1="62.7" x2="-439.01" y2="60.42" xlink:href="#_åçûìÿííûé_ãðàäèåíò_70"/><linearGradient id="_åçûìÿííûé_ãðàäèåíò_70-5" x1="-425.71" y1="63.01" x2="-425.71" y2="61.2" xlink:href="#_åçûìÿííûé_ãðàäèåíò_70"/><linearGradient id="_åçûìÿííûé_ãðàäèåíò_134" x1="-427.55" y1="81.88" x2="-416.42" y2="81.88" gradientTransform="translate(489.29)" gradientUnits="userSpaceOnUse"><stop offset=".02" stop-color="#c76834"/><stop offset="1" stop-color="#c96152"/></linearGradient><linearGradient id="_åçûìÿííûé_ãðàäèåíò_134-2" x1="-448.63" y1="82.79" x2="-439.85" y2="82.79" xlink:href="#_åçûìÿííûé_ãðàäèåíò_134"/><linearGradient id="_åçûìÿííûé_ãðàäèåíò_70-6" x1="-433.13" y1="45.73" x2="-433.13" y2="41.47" xlink:href="#_åçûìÿííûé_ãðàäèåíò_70"/><linearGradient id="_åçûìÿííûé_ãðàäèåíò_11-3" x1="-431.37" y1="18.3" x2="-431.37" y2="7.18" xlink:href="#_åçûìÿííûé_ãðàäèåíò_11"/><linearGradient id="_åçûìÿííûé_ãðàäèåíò_4-2" x1="2100.41" y1="-378.04" x2="2100.41" y2="-381.12" gradientTransform="translate(2170.93 -258.86) rotate(162.34) scale(1 -1)" xlink:href="#_åçûìÿííûé_ãðàäèåíò_4"/><linearGradient id="_åçûìÿííûé_ãðàäèåíò_69" x1="2099.34" y1="-379.46" x2="2101.36" y2="-379.46" gradientTransform="translate(2170.93 -258.86) rotate(162.34) scale(1 -1)" gradientUnits="userSpaceOnUse"><stop offset="0" stop-color="#b060f4"/><stop offset="1" stop-color="#ffeadb"/></linearGradient><linearGradient id="_åçûìÿííûé_ãðàäèåíò_11-4" x1="-411.6" y1="15.88" x2="-411.6" y2="2.33" xlink:href="#_åçûìÿííûé_ãðàäèåíò_11"/><linearGradient id="_åçûìÿííûé_ãðàäèåíò_11-5" x1="-447.74" y1="45.4" x2="-447.74" y2="36.14" xlink:href="#_åçûìÿííûé_ãðàäèåíò_11"/><radialGradient id="_åçûìÿííûé_ãðàäèåíò_146" cx="-425.88" cy="-885.71" fx="-425.88" fy="-885.71" r="9.5" gradientTransform="translate(489.29 1022.15) scale(1 1.13)" gradientUnits="userSpaceOnUse"><stop offset="0" stop-color="#ff434f"/><stop offset="1" stop-color="#c4023e"/></radialGradient><linearGradient id="_åçûìÿííûé_ãðàäèåíò_70-7" x1="-428.5" y1="42.85" x2="-428.5" y2="21.37" xlink:href="#_åçûìÿííûé_ãðàäèåíò_70"/><linearGradient id="_åçûìÿííûé_ãðàäèåíò_72" x1="-420.78" y1="24.52" x2="-420.78" y2="9.41" gradientTransform="translate(489.29)" gradientUnits="userSpaceOnUse"><stop offset="0" stop-color="#dedfff"/><stop offset="1" stop-color="#fff"/></linearGradient><linearGradient id="_åçûìÿííûé_ãðàäèåíò_70-8" x1="-420.74" y1="24.52" x2="-420.74" y2="10.37" xlink:href="#_åçûìÿííûé_ãðàäèåíò_70"/><linearGradient id="_åçûìÿííûé_ãðàäèåíò_84" x1="-439.9" y1="39.52" x2="-439.9" y2="39.46" gradientTransform="translate(489.29)" gradientUnits="userSpaceOnUse"><stop offset="0" stop-color="#e8e9ff"/><stop offset="1" stop-color="#fff"/></linearGradient><linearGradient id="_åçûìÿííûé_ãðàäèåíò_84-2" x1="-439.72" y1="39.46" x2="-439.72" y2="39.24" xlink:href="#_åçûìÿííûé_ãðàäèåíò_84"/><linearGradient id="_åçûìÿííûé_ãðàäèåíò_84-3" x1="-439.73" y1="40.43" x2="-439.73" y2="20.33" xlink:href="#_åçûìÿííûé_ãðàäèåíò_84"/><linearGradient id="_åçûìÿííûé_ãðàäèåíò_52" x1="-450.78" y1="69.18" x2="-450.78" y2="41.76" gradientTransform="translate(489.29)" gradientUnits="userSpaceOnUse"><stop offset="0" stop-color="#fff"/><stop offset="1" stop-color="#fff"/></linearGradient><linearGradient id="_åçûìÿííûé_ãðàäèåíò_52-2" x1="-426.47" y1="24.51" x2="-426.47" y2="19.19" xlink:href="#_åçûìÿííûé_ãðàäèåíò_52"/><linearGradient id="_åçûìÿííûé_ãðàäèåíò_409" x1="-427.97" y1="12.89" x2="-427.97" y2="9.22" gradientTransform="translate(489.29)" gradientUnits="userSpaceOnUse"><stop offset="0" stop-color="#ffeadb"/><stop offset=".99" stop-color="#b060f4"/></linearGradient><linearGradient id="_åçûìÿííûé_ãðàäèåíò_64" x1="-428.76" y1="11.2" x2="-428.76" y2="8.96" gradientTransform="translate(489.29)" gradientUnits="userSpaceOnUse"><stop offset=".01" stop-color="#d65b3d"/><stop offset=".99" stop-color="#4f223a"/></linearGradient><linearGradient id="_åçûìÿííûé_ãðàäèåíò_132" x1="-432.46" y1="12.74" x2="-432.46" y2="9.85" gradientTransform="translate(489.29)" gradientUnits="userSpaceOnUse"><stop offset="0" stop-color="#4f223a"/><stop offset=".99" stop-color="#7d363d"/></linearGradient><linearGradient id="_åçûìÿííûé_ãðàäèåíò_66" x1="-431.71" y1="14.49" x2="-431.71" y2="12.02" gradientTransform="translate(489.29)" gradientUnits="userSpaceOnUse"><stop offset="0" stop-color="#e1dbfb"/><stop offset="1" stop-color="#fff"/></linearGradient><linearGradient id="_åçûìÿííûé_ãðàäèåíò_66-2" x1="-427.89" y1="12.79" x2="-427.89" y2="10.76" xlink:href="#_åçûìÿííûé_ãðàäèåíò_66"/><linearGradient id="_åçûìÿííûé_ãðàäèåíò_71" x1="2144.52" y1="244.55" x2="2144.52" y2="242.79" gradientTransform="translate(2189.65 -324.28) rotate(164.53)" gradientUnits="userSpaceOnUse"><stop offset=".02" stop-color="#74422f"/><stop offset=".99" stop-color="#c2862e"/></linearGradient><linearGradient id="_åçûìÿííûé_ãðàäèåíò_71-2" x1="3042.56" y1="319.99" x2="3042.56" y2="318.24" gradientTransform="translate(1837.38 -243.7) rotate(162.3) scale(.58 .93)" xlink:href="#_åçûìÿííûé_ãðàäèåíò_71"/><linearGradient id="_åçûìÿííûé_ãðàäèåíò_75" x1="-428.4" y1="16.79" x2="-428.4" y2="14.82" gradientTransform="translate(489.29)" gradientUnits="userSpaceOnUse"><stop offset="0" stop-color="#bd5042"/><stop offset=".99" stop-color="#5d0c30"/></linearGradient><linearGradient id="_åçûìÿííûé_ãðàäèåíò_409-2" x1="-429.01" y1="13.77" x2="-427.18" y2="13.77" xlink:href="#_åçûìÿííûé_ãðàäèåíò_409"/><linearGradient id="_åçûìÿííûé_ãðàäèåíò_123" x1="-429.83" y1="15.41" x2="-426.99" y2="15.41" gradientTransform="translate(489.29)" gradientUnits="userSpaceOnUse"><stop offset=".02" stop-color="#f0c2d6"/><stop offset=".99" stop-color="#bd89c4"/></linearGradient><linearGradient id="_åçûìÿííûé_ãðàäèåíò_409-3" x1="-430.16" y1="15.67" x2="-429.49" y2="15.67" xlink:href="#_åçûìÿííûé_ãðàäèåíò_409"/><linearGradient id="_åçûìÿííûé_ãðàäèåíò_139" x1="-428.32" y1="15.67" x2="-428.32" y2="14.59" gradientTransform="translate(489.29)" gradientUnits="userSpaceOnUse"><stop offset="0" stop-color="#bd5042"/><stop offset=".99" stop-color="#812545"/></linearGradient><linearGradient id="_åçûìÿííûé_ãðàäèåíò_87" x1="-428.32" y1="17.09" x2="-428.32" y2="14.71" gradientTransform="translate(489.29)" gradientUnits="userSpaceOnUse"><stop offset="0" stop-color="#e76c42"/><stop offset=".99" stop-color="#ae2545"/></linearGradient><linearGradient id="_åçûìÿííûé_ãðàäèåíò_409-4" x1="-426.79" y1="15.13" x2="-426.79" y2="14.25" xlink:href="#_åçûìÿííûé_ãðàäèåíò_409"/><linearGradient id="_åçûìÿííûé_ãðàäèåíò_409-5" x1="-428.63" y1="9.22" x2="-428.63" y2="8.7" xlink:href="#_åçûìÿííûé_ãðàäèåíò_409"/><linearGradient id="_åçûìÿííûé_ãðàäèåíò_26-2" x1="-434.92" y1="15.81" x2="-434.92" y2="13.77" xlink:href="#_åçûìÿííûé_ãðàäèåíò_26"/><linearGradient id="_åçûìÿííûé_ãðàäèåíò_115" x1="-438.79" y1="22.86" x2="-438.79" y2="5.11" gradientTransform="translate(489.29)" gradientUnits="userSpaceOnUse"><stop offset="0" stop-color="#6f2e45"/><stop offset=".99" stop-color="#a6453d"/></linearGradient><linearGradient id="_åçûìÿííûé_ãðàäèåíò_123-2" x1="-431.06" y1="18.87" x2="-431.06" y2="17.67" xlink:href="#_åçûìÿííûé_ãðàäèåíò_123"/><linearGradient id="_åçûìÿííûé_ãðàäèåíò_97" x1="-438.5" y1="21.69" x2="-438.5" y2="8.96" gradientTransform="translate(489.29)" gradientUnits="userSpaceOnUse"><stop offset="0" stop-color="#952e45"/><stop offset=".99" stop-color="#b05f4a"/></linearGradient><linearGradient id="_åçûìÿííûé_ãðàäèåíò_97-2" x1="-440.56" y1="7.97" x2="-431.76" y2="7.97" xlink:href="#_åçûìÿííûé_ãðàäèåíò_97"/><radialGradient id="_åçûìÿííûé_ãðàäèåíò_3" cx="908.35" cy="-39.19" fx="908.35" fy="-39.19" r=".57" gradientTransform="translate(969.26 -24.62) rotate(175.15) scale(1 -1)" gradientUnits="userSpaceOnUse"><stop offset="0" stop-color="#ffbd0c"/><stop offset="1" stop-color="#ff9036"/></radialGradient><linearGradient id="_åçûìÿííûé_ãðàäèåíò_115-2" x1="-438.21" y1="24.15" x2="-438.21" y2="13.28" xlink:href="#_åçûìÿííûé_ãðàäèåíò_115"/><linearGradient id="_åçûìÿííûé_ãðàäèåíò_70-9" x1="-428.71" y1="23.63" x2="-428.71" y2="18.72" xlink:href="#_åçûìÿííûé_ãðàäèåíò_70"/><linearGradient id="_åçûìÿííûé_ãðàäèåíò_70-10" x1="-426.96" y1="41.51" x2="-426.96" y2="38.53" xlink:href="#_åçûìÿííûé_ãðàäèåíò_70"/><linearGradient id="_åçûìÿííûé_ãðàäèåíò_70-11" x1="-426.4" y1="28.47" x2="-426.4" y2="26.77" xlink:href="#_åçûìÿííûé_ãðàäèåíò_70"/><linearGradient id="_åçûìÿííûé_ãðàäèåíò_108-4" x1="-433.6" y1="29.34" x2="-433.6" y2="21.3" xlink:href="#_åçûìÿííûé_ãðàäèåíò_108"/><linearGradient id="_åçûìÿííûé_ãðàäèåíò_52-3" x1="-435.45" y1="39.02" x2="-435.45" y2="19.95" xlink:href="#_åçûìÿííûé_ãðàäèåíò_52"/><linearGradient id="_åçûìÿííûé_ãðàäèåíò_70-12" x1="-440.86" y1="40.43" x2="-440.86" y2="28.91" xlink:href="#_åçûìÿííûé_ãðàäèåíò_70"/><linearGradient id="_åçûìÿííûé_ãðàäèåíò_21" x1="-413.03" y1="13.59" x2="-413.03" y2="9.11" gradientTransform="translate(489.29)" gradientUnits="userSpaceOnUse"><stop offset="0" stop-color="#c4023e"/><stop offset=".99" stop-color="#ff434f"/></linearGradient><linearGradient id="_åçûìÿííûé_ãðàäèåíò_70-13" x1="-427.62" y1="38.24" x2="-427.62" y2="34.14" xlink:href="#_åçûìÿííûé_ãðàäèåíò_70"/><linearGradient id="_åçûìÿííûé_ãðàäèåíò_69-2" x1="-407.08" y1="6.57" x2="-411.22" y2="7.89" gradientTransform="translate(489.29)" xlink:href="#_åçûìÿííûé_ãðàäèåíò_69"/><radialGradient id="_åçûìÿííûé_ãðàäèåíò_191" cx="-408.3" cy="15.8" fx="-408.3" fy="15.8" r="4.17" gradientTransform="translate(489.29 -8.62) scale(1 1.16)" gradientUnits="userSpaceOnUse"><stop offset="0" stop-color="#7f68e5"/><stop offset=".13" stop-color="#836de4"/><stop offset=".3" stop-color="#917ee3"/><stop offset=".5" stop-color="#a898e1"/><stop offset=".71" stop-color="#c8bedf"/><stop offset=".93" stop-color="#f0eddc"/><stop offset="1" stop-color="#ffffdb"/></radialGradient><linearGradient id="_åçûìÿííûé_ãðàäèåíò_323" x1="-409.03" y1="9.57" x2="-409.03" y2="1.65" gradientTransform="translate(489.29)" gradientUnits="userSpaceOnUse"><stop offset="0" stop-color="#000"/><stop offset="1" stop-color="#705aa4"/></linearGradient><linearGradient id="_åçûìÿííûé_ãðàäèåíò_271" x1="-411.24" y1="13.92" x2="-405.66" y2="13.92" gradientTransform="translate(489.29)" gradientUnits="userSpaceOnUse"><stop offset="0" stop-color="#5c317e"/><stop offset="1" stop-color="#979cba"/></linearGradient><linearGradient id="_åçûìÿííûé_ãðàäèåíò_55" x1="-407.39" y1="8.93" x2="-407.39" y2="4.96" gradientTransform="translate(489.29)" gradientUnits="userSpaceOnUse"><stop offset=".02" stop-color="#ffae78"/><stop offset="1" stop-color="#ffb17c"/></linearGradient><linearGradient id="_åçûìÿííûé_ãðàäèåíò_147" x1="-410.09" y1="5.74" x2="-410.09" y2="2.31" gradientTransform="translate(489.29)" gradientUnits="userSpaceOnUse"><stop offset="0" stop-color="#ff957c"/><stop offset=".98" stop-color="#ffae78"/></linearGradient><linearGradient id="_åçûìÿííûé_ãðàäèåíò_69-3" x1="-451.29" y1="43.03" x2="-451.29" y2="42.21" gradientTransform="translate(489.29)" xlink:href="#_åçûìÿííûé_ãðàäèåíò_69"/><linearGradient id="_åçûìÿííûé_ãðàäèåíò_69-4" x1="-451.24" y1="44.74" x2="-451.24" y2="42.64" gradientTransform="translate(489.29)" xlink:href="#_åçûìÿííûé_ãðàäèåíò_69"/><linearGradient id="_åçûìÿííûé_ãðàäèåíò_108-5" x1="95.98" y1="50.36" x2="95.98" y2="48.19" gradientTransform="translate(-60.87)" xlink:href="#_åçûìÿííûé_ãðàäèåíò_108"/><linearGradient id="_åçûìÿííûé_ãðàäèåíò_108-6" x1="83.86" y1="63.73" x2="83.86" y2="16.93" gradientTransform="translate(-60.87)" xlink:href="#_åçûìÿííûé_ãðàäèåíò_108"/><linearGradient id="_åçûìÿííûé_ãðàäèåíò_70-14" x1="82.88" y1="54.44" x2="82.88" y2="19.32" gradientTransform="translate(-60.87)" xlink:href="#_åçûìÿííûé_ãðàäèåíò_70"/><linearGradient id="_åçûìÿííûé_ãðàäèåíò_108-7" x1="82.29" y1="-88.1" x2="82.29" y2="-94.03" gradientTransform="translate(-34.85 127.57) rotate(-21.58)" xlink:href="#_åçûìÿííûé_ãðàäèåíò_108"/><linearGradient id="_åçûìÿííûé_ãðàäèåíò_11-6" x1="81" y1="-87.23" x2="81" y2="-100.49" gradientTransform="translate(-34.85 127.57) rotate(-21.58)" xlink:href="#_åçûìÿííûé_ãðàäèåíò_11"/><linearGradient id="_åçûìÿííûé_ãðàäèåíò_72-2" x1="90.08" y1="-74.91" x2="90.08" y2="-94.03" gradientTransform="translate(-34.85 127.57) rotate(-21.58)" xlink:href="#_åçûìÿííûé_ãðàäèåíò_72"/><linearGradient id="_åçûìÿííûé_ãðàäèåíò_70-15" x1="84.02" y1="-88.23" x2="84.02" y2="-93.57" gradientTransform="translate(-34.85 127.57) rotate(-21.58)" xlink:href="#_åçûìÿííûé_ãðàäèåíò_70"/><linearGradient id="_åçûìÿííûé_ãðàäèåíò_70-16" x1="82.73" y1="-87.14" x2="82.73" y2="-89.33" gradientTransform="translate(-34.85 127.57) rotate(-21.58)" xlink:href="#_åçûìÿííûé_ãðàäèåíò_70"/><linearGradient id="_åçûìÿííûé_ãðàäèåíò_67-2" x1="86.38" y1="82.49" x2="86.38" y2="41.29" gradientTransform="translate(-60.87)" xlink:href="#_åçûìÿííûé_ãðàäèåíò_67"/><linearGradient id="_åçûìÿííûé_ãðàäèåíò_6-3" x1="86.38" y1="82.49" x2="86.38" y2="41.29" gradientTransform="translate(-60.87)" xlink:href="#_åçûìÿííûé_ãðàäèåíò_6"/><linearGradient id="_åçûìÿííûé_ãðàäèåíò_31" x1="89.62" y1="6.93" x2="89.62" y2="2.96" gradientTransform="translate(-60.87)" gradientUnits="userSpaceOnUse"><stop offset=".01" stop-color="#512438"/><stop offset=".99" stop-color="#5e1a31"/></linearGradient><linearGradient id="_åçûìÿííûé_ãðàäèåíò_118" x1="85.1" y1="43.01" x2="85.1" y2="41.29" gradientTransform="translate(-60.87)" gradientUnits="userSpaceOnUse"><stop offset="0" stop-color="#8e81bf"/><stop offset=".99" stop-color="#be6888"/></linearGradient><linearGradient id="_åçûìÿííûé_ãðàäèåíò_6-4" x1="90.68" y1="64.77" x2="90.68" y2="62.82" gradientTransform="translate(-60.87)" xlink:href="#_åçûìÿííûé_ãðàäèåíò_6"/><linearGradient id="_åçûìÿííûé_ãðàäèåíò_6-5" x1="78.54" y1="63.45" x2="78.54" y2="61.71" gradientTransform="translate(-60.87)" xlink:href="#_åçûìÿííûé_ãðàäèåíò_6"/><linearGradient id="_åçûìÿííûé_ãðàäèåíò_158" x1="84" y1="50.92" x2="84" y2="46.07" gradientTransform="translate(-60.87)" gradientUnits="userSpaceOnUse"><stop offset="0" stop-color="#8e81f4"/><stop offset=".99" stop-color="#be6888"/></linearGradient><linearGradient id="_åçûìÿííûé_ãðàäèåíò_90" x1="87.2" y1="42.1" x2="87.2" y2="17.22" gradientTransform="translate(-60.87)" gradientUnits="userSpaceOnUse"><stop offset="0" stop-color="#d6023e"/><stop offset=".99" stop-color="#ff432c"/></linearGradient><linearGradient id="_åçûìÿííûé_ãðàäèåíò_4-3" x1="91.55" y1="20.28" x2="91.55" y2="14.07" gradientTransform="translate(-60.87)" xlink:href="#_åçûìÿííûé_ãðàäèåíò_4"/><linearGradient id="_åçûìÿííûé_ãðàäèåíò_123-3" x1="92.16" y1="16.49" x2="92.16" y2="14.2" gradientTransform="translate(-60.87)" xlink:href="#_åçûìÿííûé_ãðàäèåíò_123"/><linearGradient id="_åçûìÿííûé_ãðàäèåíò_11-7" x1="92.09" y1="16.14" x2="92.09" y2="4.51" gradientTransform="translate(-60.87)" xlink:href="#_åçûìÿííûé_ãðàäèåíò_11"/><linearGradient id="_åçûìÿííûé_ãðàäèåíò_7-3" x1="75.35" y1="84.77" x2="75.35" y2="80.09" gradientTransform="translate(-60.87)" xlink:href="#_åçûìÿííûé_ãðàäèåíò_7"/><linearGradient id="_åçûìÿííûé_ãðàäèåíò_7-4" x1="95.92" y1="84.65" x2="95.92" y2="79.62" gradientTransform="translate(-60.87)" xlink:href="#_åçûìÿííûé_ãðàäèåíò_7"/><linearGradient id="_åçûìÿííûé_ãðàäèåíò_4-4" x1="69.64" y1="84.2" x2="81.06" y2="84.2" gradientTransform="translate(-60.87)" xlink:href="#_åçûìÿííûé_ãðàäèåíò_4"/><linearGradient id="_åçûìÿííûé_ãðàäèåíò_4-5" x1="91.52" y1="83.95" x2="100.33" y2="83.95" gradientTransform="translate(-60.87)" xlink:href="#_åçûìÿííûé_ãðàäèåíò_4"/><linearGradient id="_åçûìÿííûé_ãðàäèåíò_17" x1="71.46" y1="82.22" x2="81.07" y2="82.22" gradientTransform="translate(-60.87)" gradientUnits="userSpaceOnUse"><stop offset=".01" stop-color="#be6888"/><stop offset="1" stop-color="#8ea6ba"/></linearGradient><linearGradient id="_åçûìÿííûé_ãðàäèåíò_17-2" x1="91.52" y1="82.13" x2="97.14" y2="82.13" xlink:href="#_åçûìÿííûé_ãðàäèåíò_17"/><linearGradient id="_åçûìÿííûé_ãðàäèåíò_4-6" x1="95.9" y1="14.98" x2="95.9" y2="11.92" gradientTransform="translate(-60.87)" xlink:href="#_åçûìÿííûé_ãðàäèåíò_4"/><linearGradient id="_åçûìÿííûé_ãðàäèåíò_26-3" x1="94.68" y1="12.68" x2="94.68" y2=".72" gradientTransform="translate(-60.87)" xlink:href="#_åçûìÿííûé_ãðàäèåíò_26"/><linearGradient id="_åçûìÿííûé_ãðàäèåíò_70-17" x1="86.27" y1="41.04" x2="86.27" y2="26.49" gradientTransform="translate(-60.87)" xlink:href="#_åçûìÿííûé_ãðàäèåíò_70"/><linearGradient id="_åçûìÿííûé_ãðàäèåíò_409-6" x1="92.57" y1="3.2" x2="92.57" y2=".74" gradientTransform="translate(-60.87)" xlink:href="#_åçûìÿííûé_ãðàäèåíò_409"/><linearGradient id="_åçûìÿííûé_ãðàäèåíò_409-7" x1="95.39" y1="4.84" x2="95.39" y2="1.29" gradientTransform="translate(-60.87)" xlink:href="#_åçûìÿííûé_ãðàäèåíò_409"/><linearGradient id="_åçûìÿííûé_ãðàäèåíò_115-3" x1="93.12" y1="6.42" x2="93.12" y2="2.16" gradientTransform="translate(-60.87)" xlink:href="#_åçûìÿííûé_ãðàäèåíò_115"/><linearGradient id="_åçûìÿííûé_ãðàäèåíò_84-4" x1="94.69" y1="70" x2="94.69" y2="17.22" gradientTransform="translate(-60.87)" xlink:href="#_åçûìÿííûé_ãðàäèåíò_84"/><linearGradient id="_åçûìÿííûé_ãðàäèåíò_108-8" x1="93.85" y1="36.67" x2="93.85" y2="18.86" gradientTransform="translate(-60.87)" xlink:href="#_åçûìÿííûé_ãðàäèåíò_108"/><linearGradient id="_åçûìÿííûé_ãðàäèåíò_16" x1="98.12" y1="7.67" x2="98.12" y2="5.03" gradientTransform="translate(-60.87)" gradientUnits="userSpaceOnUse"><stop offset=".01" stop-color="#a6453d"/><stop offset=".99" stop-color="#6f2e45"/></linearGradient><linearGradient id="_åçûìÿííûé_ãðàäèåíò_70-18" x1="83.85" y1="35.19" x2="83.85" y2="19.74" gradientTransform="translate(-60.87)" xlink:href="#_åçûìÿííûé_ãðàäèåíò_70"/><linearGradient id="_åçûìÿííûé_ãðàäèåíò_108-9" x1="95.37" y1="32.27" x2="95.37" y2="26.69" gradientTransform="translate(-60.87)" xlink:href="#_åçûìÿííûé_ãðàäèåíò_108"/><linearGradient id="_åçûìÿííûé_ãðàäèåíò_11-8" x1="92.82" y1="29.64" x2="92.82" y2="23" gradientTransform="translate(-60.87)" xlink:href="#_åçûìÿííûé_ãðàäèåíò_11"/><linearGradient id="_åçûìÿííûé_ãðàäèåíò_409-8" x1="91.96" y1="29.21" x2="91.96" y2="23.4" gradientTransform="translate(-60.87)" xlink:href="#_åçûìÿííûé_ãðàäèåíò_409"/><linearGradient id="_åçûìÿííûé_ãðàäèåíò_84-5" x1="100.02" y1="32.27" x2="100.02" y2="19.98" gradientTransform="translate(-60.87)" xlink:href="#_åçûìÿííûé_ãðàäèåíò_84"/><linearGradient id="_åçûìÿííûé_ãðàäèåíò_72-3" x1="99.18" y1="27.12" x2="99.18" y2="19.98" gradientTransform="translate(-60.87)" xlink:href="#_åçûìÿííûé_ãðàäèåíò_72"/><linearGradient id="_åçûìÿííûé_ãðàäèåíò_84-6" x1="79.74" y1="57.58" x2="79.74" y2="16.94" gradientTransform="translate(-60.87)" xlink:href="#_åçûìÿííûé_ãðàäèåíò_84"/><linearGradient id="_åçûìÿííûé_ãðàäèåíò_47" x1="90.23" y1="22.02" x2="90.23" y2="16.63" gradientTransform="translate(-60.87)" gradientUnits="userSpaceOnUse"><stop offset="0" stop-color="#ffd197"/><stop offset="1" stop-color="#f9e0cc"/></linearGradient><linearGradient id="_åçûìÿííûé_ãðàäèåíò_58" x1="88.09" y1="20.53" x2="88.09" y2="17.65" gradientTransform="translate(-60.87)" gradientUnits="userSpaceOnUse"><stop offset="0" stop-color="#ffbf86"/><stop offset="1" stop-color="#f99d86"/></linearGradient><linearGradient id="_åçûìÿííûé_ãðàäèåíò_50" x1="91.98" y1="20.64" x2="91.98" y2="16.63" gradientTransform="translate(-60.87)" gradientUnits="userSpaceOnUse"><stop offset="0" stop-color="#ffefdb"/><stop offset="1" stop-color="#f9e0cc"/></linearGradient><linearGradient id="_åçûìÿííûé_ãðàäèåíò_50-2" x1="88.65" y1="20.53" x2="88.65" y2="16.94" xlink:href="#_åçûìÿííûé_ãðàäèåíò_50"/><linearGradient id="_åçûìÿííûé_ãðàäèåíò_59" x1="89.5" y1="19.32" x2="89.5" y2="16.94" gradientTransform="translate(-60.87)" gradientUnits="userSpaceOnUse"><stop offset="0" stop-color="#f99d86"/><stop offset="1" stop-color="#ffbf86"/></linearGradient><linearGradient id="_åçûìÿííûé_ãðàäèåíò_14" x1="92.39" y1="10.2" x2="92.39" y2="8.57" gradientTransform="translate(-60.87)" gradientUnits="userSpaceOnUse"><stop offset="0" stop-color="#d0c7f8"/><stop offset="1" stop-color="#fff"/></linearGradient><linearGradient id="_åçûìÿííûé_ãðàäèåíò_14-2" x1="88.75" y1="9.67" x2="88.75" y2="7.87" xlink:href="#_åçûìÿííûé_ãðàäèåíò_14"/><linearGradient id="_åçûìÿííûé_ãðàäèåíò_132-2" x1="93.17" y1="8.57" x2="93.17" y2="6.54" gradientTransform="translate(-60.87)" xlink:href="#_åçûìÿííûé_ãðàäèåíò_132"/><linearGradient id="_åçûìÿííûé_ãðàäèåíò_132-3" x1="89.17" y1="7.7" x2="89.17" y2="6.35" gradientTransform="translate(-60.87)" xlink:href="#_åçûìÿííûé_ãðàäèåíò_132"/><linearGradient id="_åçûìÿííûé_ãðàäèåíò_13" x1="148.61" y1="230.72" x2="148.61" y2="229.17" gradientTransform="translate(-55.95 -222.08) rotate(16.29) scale(1 .86)" gradientUnits="userSpaceOnUse"><stop offset="0" stop-color="#c2862e"/><stop offset=".98" stop-color="#74422f"/></linearGradient><linearGradient id="_åçûìÿííûé_ãðàäèåíò_13-2" x1="-151.1" y1="230.76" x2="-151.1" y2="229.21" gradientTransform="translate(183.78 -151.78) rotate(16.29) scale(.69 .86)" xlink:href="#_åçûìÿííûé_ãðàäèåíò_13"/><linearGradient id="_åçûìÿííûé_ãðàäèåíò_139-2" x1="89.54" y1="14.2" x2="89.54" y2="12.04" gradientTransform="translate(-60.87)" xlink:href="#_åçûìÿííûé_ãðàäèåíò_139"/><linearGradient id="_åçûìÿííûé_ãðàäèåíò_123-4" x1="87.7" y1="12.71" x2="91.39" y2="12.71" gradientTransform="translate(-60.87)" xlink:href="#_åçûìÿííûé_ãðàäèåíò_123"/><linearGradient id="_åçûìÿííûé_ãðàäèåíò_69-5" x1="94.83" y1="13.57" x2="96.83" y2="13.57" gradientTransform="translate(-60.87)" xlink:href="#_åçûìÿííûé_ãðàäèåíò_69"/><radialGradient id="_åçûìÿííûé_ãðàäèåíò_3-2" cx="89.83" cy="9.7" fx="89.83" fy="9.7" r=".57" gradientTransform="translate(-60.87)" xlink:href="#_åçûìÿííûé_ãðàäèåíò_3"/><linearGradient id="_åçûìÿííûé_ãðàäèåíò_409-9" x1="93.12" y1="6.15" x2="93.12" y2="2.76" gradientTransform="translate(-60.87)" xlink:href="#_åçûìÿííûé_ãðàäèåíò_409"/><linearGradient id="_åçûìÿííûé_ãðàäèåíò_99" x1="91.8" y1="22.6" x2="91.8" y2="16.63" gradientTransform="translate(-60.87)" gradientUnits="userSpaceOnUse"><stop offset=".01" stop-color="#be6888"/><stop offset="1" stop-color="#bb65cc"/></linearGradient><linearGradient id="_åçûìÿííûé_ãðàäèåíò_70-19" x1="88.6" y1="41.74" x2="88.6" y2="40.85" gradientTransform="translate(-60.87)" xlink:href="#_åçûìÿííûé_ãðàäèåíò_70"/><linearGradient id="_åçûìÿííûé_ãðàäèåíò_70-20" x1="85.58" y1="36.67" x2="85.58" y2="29.93" gradientTransform="translate(-60.87)" xlink:href="#_åçûìÿííûé_ãðàäèåíò_70"/><linearGradient id="_åçûìÿííûé_ãðàäèåíò_100" x1="98.69" y1="31.01" x2="98.69" y2="30.58" gradientTransform="translate(-60.87)" gradientUnits="userSpaceOnUse"><stop offset="0" stop-color="#aae"/><stop offset=".35" stop-color="#b2adea"/><stop offset="1" stop-color="#bdb3e7"/></linearGradient><linearGradient id="_åçûìÿííûé_ãðàäèåíò_70-21" x1="99.68" y1="29.07" x2="99.68" y2="26.69" gradientTransform="translate(-60.87)" xlink:href="#_åçûìÿííûé_ãðàäèåíò_70"/><linearGradient id="_åçûìÿííûé_ãðàäèåíò_125" x1="92.47" y1="49.98" x2="96.53" y2="49.98" gradientTransform="translate(-60.87)" gradientUnits="userSpaceOnUse"><stop offset="0" stop-color="#7c529d"/><stop offset="1" stop-color="#616dc0"/></linearGradient><linearGradient id="_åçûìÿííûé_ãðàäèåíò_70-22" x1="92.51" y1="53.93" x2="96.15" y2="53.93" gradientTransform="translate(-60.87)" xlink:href="#_åçûìÿííûé_ãðàäèåíò_70"/><linearGradient id="_åçûìÿííûé_ãðàäèåíò_84-7" x1="94.52" y1="56.68" x2="94.52" y2="50.92" gradientTransform="translate(-60.87)" xlink:href="#_åçûìÿííûé_ãðàäèåíò_84"/><linearGradient id="_åçûìÿííûé_ãðàäèåíò_70-23" x1="94.04" y1="49.7" x2="94.04" y2="48.19" gradientTransform="translate(-60.87)" xlink:href="#_åçûìÿííûé_ãðàäèåíò_70"/><radialGradient id="_åçûìÿííûé_ãðàäèåíò_191-2" cx="63.89" cy="18.39" fx="63.89" fy="18.39" r="4.17" gradientTransform="translate(-60.87 -8.62) scale(1 1.16)" xlink:href="#_åçûìÿííûé_ãðàäèåíò_191"/><radialGradient id="_åçûìÿííûé_ãðàäèåíò_160" cx="63.25" cy="16.77" fx="63.25" fy="16.77" r="5.47" gradientTransform="translate(-60.87 -8.62) scale(1 1.16)" gradientUnits="userSpaceOnUse"><stop offset="0" stop-color="#fed600"/><stop offset="1" stop-color="#ff0"/></radialGradient><linearGradient id="_åçûìÿííûé_ãðàäèåíò_323-2" x1="63.15" y1="12.58" x2="63.15" y2="4.66" gradientTransform="translate(-60.87)" xlink:href="#_åçûìÿííûé_ãðàäèåíò_323"/><linearGradient id="_åçûìÿííûé_ãðàäèåíò_271-2" x1="60.94" y1="16.93" x2="66.52" y2="16.93" gradientTransform="translate(-60.87)" xlink:href="#_åçûìÿííûé_ãðàäèåíò_271"/><linearGradient id="_åçûìÿííûé_ãðàäèåíò_12" x1="106.89" y1="58.63" x2="106.89" y2="56.92" gradientTransform="translate(-111.61 -35.73) rotate(-7.56)" gradientUnits="userSpaceOnUse"><stop offset="0" stop-color="#ffb195"/><stop offset=".98" stop-color="#ffae78"/></linearGradient><linearGradient id="_åçûìÿííûé_ãðàäèåíò_12-2" x1="77.46" y1="-95.68" x2="77.46" y2="-98.02" gradientTransform="translate(-34.85 127.57) rotate(-21.58)" xlink:href="#_åçûìÿííûé_ãðàäèåíò_12"/><linearGradient id="_åçûìÿííûé_ãðàäèåíò_12-3" x1="77.06" y1="-94.68" x2="77.06" y2="-96.28" gradientTransform="translate(-34.85 127.57) rotate(-21.58)" xlink:href="#_åçûìÿííûé_ãðàäèåíò_12"/><linearGradient id="_åçûìÿííûé_ãðàäèåíò_12-4" x1="76.75" y1="-93.67" x2="76.75" y2="-94.77" gradientTransform="translate(-34.85 127.57) rotate(-21.58)" xlink:href="#_åçûìÿííûé_ãðàäèåíò_12"/><linearGradient id="_åçûìÿííûé_ãðàäèåíò_12-5" x1="81.78" y1="-96.6" x2="81.78" y2="-100.49" gradientTransform="translate(-34.85 127.57) rotate(-21.58)" xlink:href="#_åçûìÿííûé_ãðàäèåíò_12"/></defs><g class="cls-118"><g id="Layer_2"><g id="Layer_1-2"><g><g><path class="cls-72" d="M65.8,25.25s-.98,14.63-3.89,21.75c-2.91,7.12-5.27,10.73-5.27,10.73,0,0-1.02,.46-2.57,.89-1.7,.48-4.05,.92-6.4,.68-.67-.07-1.22-.14-1.68-.21h0c-1.89-.28-2.22-.53-3.1-.52-.33,0-.73,.04-1.32,.14-1.61,.25-5.04,1.91-7.69,3.47-1.58,.93-2.88,1.82-3.37,2.35,0,0,3.87-10.13,8.83-15.89,4.86-5.65,8.01-7.19,11-9.97,.06-.05,.12-.11,.18-.17,3.05-2.88,5.52-5.76,6.42-10h0l8.89-3.25Z"/><path class="cls-83" d="M61.6,39.28s-.11,4.66-2.64,7.8c-2.09,2.59-4.21,9.27-4.9,11.53-1.7,.48-4.05,.92-6.4,.68-.67-.07-1.22-.14-1.68-.21h0c.41-7.73,4.4-17.34,4.4-17.34,0,0-5.56,3.38-7,8.55-.92,3.31-.75,6.44-.5,8.27-.33,0-.73,.04-1.32,.14-1.61,.25-5.04,1.91-7.69,3.47v-.89l9.32-16.4,4.97-4.12c.75-.62,1.48-1.34,2.17-2.11,3.8-4.22,6.5-9.96,6.6-10.17h0l1.02,.99,3.66,9.8Z"/><path class="cls-25" d="M75.77,9.73s.72,.6,.91,2.09c.19,1.49-.06,3.28-.62,3.36-.56,.07-1.12-3.87-1.07-4.48,.04-.61,.78-.97,.78-.97Z"/><polygon class="cls-36" points="57.21 22.23 57.09 20.22 58.2 20.1 58.51 21.58 57.21 22.23"/><path class="cls-144" d="M57.92,7.82s1.28-.6,.89-1.98c-.39-1.37-2.14-1.31-3.38-.35l.24,.15s1.05-.85,1.81-.57c.76,.28,.7,.59,.7,.59,0,0-1.58-.74-3.36,0-1.78,.74-2.87,2.88-5.03,4.03-2.16,1.16-4.08,1.66-5.23,4.19,0,0,.76-1.46,2.55-2.14s2.57-.65,3.51-.96c0,0-.83,1.16-2.77,2.7-1.94,1.55-2.88,2.75-2.83,4.32,0,0,.07-.96,.94-1.76,0,0-.65,2.74,.37,4.66s1.98,2.31,2.07,2.49c.09,.17,.28,1.22-1.96,1.09,0,0,1.02,.94,3.23,.22,2.2-.72,3.12-2.14,3.12-2.14,0,0-1.13,1.94-2.2,2.41-1.07,.47-2.44-.18-2.44-.18,0,0,.94,.83,2.79,.63,1.85-.2,2.57-2.83,3.29-3.27,.72-.44,4.12-2.57,6.06-3.12,1.94-.55,.59-9.48,.59-9.48,0,0,.18-1.07-.43-2.03-.61-.96-2.23-1.42-2.5-1.02-.27,.39,0,1.52,0,1.52Z"/><path class="cls-154" d="M60.59,19.83s-.76-.78-1.22-2.16h-2.73s.97,1.23,1.08,2.63c0,0,2.08,2.44,3.6,2.21s-.32-2.65-.32-2.65l-.41-.03Z"/><g><path class="cls-146" d="M45.53,69.18s.62,5.89,.39,7.1c-.23,1.21-1.73,4.41-2.78,5.66-1.05,1.24-2.03,1.67-2.29,2.42,0,0,1.96,.88,3.37,.65,1.41-.23,1.96-2.62,2.91-3.79s1.7-3.56,1.7-3.56c0,0-.85-.95-.65-3.14l-2.65-5.33Z"/><path class="cls-142" d="M61.62,74.67s1.05,2.13,1.11,2.71c.07,.59-.56,1.7-.56,1.7,0,0,1.54,.07,3.53,.78,1.99,.72,4.12,.59,4.12,.59,0,0-3.92-1.54-4.81-3.86-.88-2.32-1.08-5.43-1.08-5.43l-2.32,3.5Z"/><path class="cls-81" d="M64.08,68.76c.2,3.36,.74,5.25,.74,5.25-1.57,1.18-3.2,1.37-3.2,1.37,0,0-2-4.74-2.09-6.48-.1-1.73,.55-4.87,.72-7.16,.16-2.29-3.14-16.03-3.14-16.03h-.3s-2.79,4.27-3.53,7.95c-.02,.12-.04,.24-.07,.36-.02,.1-.04,.21-.05,.31-.52,3.14-1.2,6.56-1.39,7.49h0s-.01,.06-.02,.09c-.02,.1-.03,.16-.03,.16-.26,.17-1.14,.61-1.14,.61-1.66,3.49-1.49,12.43-1.49,12.43-1.73,.26-3.25-.39-3.25-.39,0,0-1.1-6.19-1-8.33,.1-2.14,2.34-5.19,2.82-7.11,.26-1.03,.36-4.23,.67-7.65,.26-2.93,.68-6.01,1.46-8.05,.83-2.16,2.09-3.62,3.16-4.54,1.11-.97,2.02-1.36,2.02-1.36l7.35,4.73h0l.21,.14c.07,.21,.14,.44,.21,.7h0c1.35,5.05,2.07,18.98,2.07,18.98l-.37,.76s-.57,2.4-.37,5.76Z"/><path class="cls-112" d="M48.59,77.26s.88,.93,.85,2.87c0,0-.28,.85-1.68,1.83,0,0-.52,.41-.85,1.29-.33,.88-.69,1.44-.96,1.64-.28,.2-2.81,1.11-5.09,0,0,0-.35-.58-.19-.98,0,0,2.32-1.6,2.91-2.57,0,0-.97,1.27-.83,1.52,.15,.25,1.77,.38,2.76-.44,1-.82,2.03-2.58,2.6-3.4s.48-1.76,.48-1.76Z"/><path class="cls-155" d="M72.87,81.83c-2.06,1.18-5.76,.75-5.76,.75-.69-.39-1.31-.65-1.31-.65l-.08,.65h-3.84c-.12-.54-.15-1.04-.15-1.47,.02-1.27,.44-2.03,.44-2.03,0,0,.7-.26,3.03,.49,2.32,.75,4.4,.88,4.4,.88l-.23-.16c1.17,.25,2.04,.32,3.14,.17,.27,.25,.34,.81,.36,1.13,0,.14,0,.23,0,.23Z"/><path class="cls-89" d="M49.56,61.42c.34,.3,2.16,.67,2.16,.67-.26,.17-1.14,.61-1.14,.61-1.66,3.49-1.49,12.43-1.49,12.43-1.73,.26-3.25-.39-3.25-.39,0,0-1.1-6.19-1-8.33,.1-2.14,2.34-5.19,2.82-7.11,.26-1.03,.36-4.23,.67-7.65h0s.2,2.78,.09,5.75c-.11,2.97,.79,3.73,1.13,4.02Z"/><path class="cls-97" d="M51.75,61.93c.16-.83,.89-4.67,1.41-7.58-.54,3.25-1.25,6.79-1.41,7.58Z"/><path class="cls-87" d="M64.08,68.76c.2,3.36,.74,5.25,.74,5.25-1.57,1.18-3.2,1.37-3.2,1.37,0,0-2-4.74-2.09-6.48-.1-1.73,.55-4.87,.72-7.16,.16-2.29-3.14-16.03-3.14-16.03h-.3s-2.79,4.27-3.53,7.95c.62-3.31,2.06-8.24,2.12-8.79,.07-.58-1.56-3.42-1.56-3.42,1.08,.82,2.3,2.35,2.38,2.45-.92-2.09-2.98-4.54-3.26-4.87,1.11-.97,2.02-1.36,2.02-1.36l7.35,4.73h0l.42,.83h0c-2.44,.33-4.59,3.3-4.59,3.3,0,0,3.02,13.04,3.94,14.34s2.73,1.33,2.73,1.33l-.37,.76s-.57,2.4-.37,5.76Z"/><polygon class="cls-90" points="56.81 45.73 60.79 43.6 58.16 46.57 57.3 46.57 57.1 45.73 56.81 45.73"/><path class="cls-86" d="M48.83,60.42s.36,1.67,1.75,2.28l1.14-.61s-1.55,.41-2.89-1.67Z"/><path class="cls-92" d="M62.33,61.2s.77,1.33,2.12,1.81l.37-.76s-1-.11-2.5-1.05Z"/><polygon class="cls-124" points="62.56 76.81 64.53 74.99 64.38 74.32 61.93 75.33 62.56 76.81"/><path class="cls-124" d="M45.92,76.27s1.82-.03,2.24-.71v-.38l-2.2-.41s.08,1.04-.04,1.49Z"/><path class="cls-134" d="M72.87,81.83c-2.06,1.18-5.76,.75-5.76,.75-.69-.39-1.31-.65-1.31-.65l-.08,.65h-3.84c-.12-.54-.15-1.04-.15-1.47,0,0,3.69-.16,5.57,.98,0,0,3.2,.38,5.56-.49,0,.14,0,.23,0,.23Z"/><path class="cls-161" d="M40.65,84.4s.38-.03,1.3,.17c.92,.2,1.34,.63,2.66,.47,1.32-.15,1.79-.75,2.23-1.65,.44-.9,.24-.99,1.22-1.66,.98-.67,1.37-1.6,1.37-1.6v.77s-.16,.86-2,1.39c0,0-.57,.97-.89,1.77-.31,.8-.83,1.07-1.1,1.14-.26,.07-3.01,.66-4.6-.31,0,0-.21,0-.2-.49Z"/><g class="cls-101"><path class="cls-105" d="M45.68,73.79s1.57,.91,3.41,.99v.35s-1.89,.29-3.25-.39l-.16-.95Z"/><path class="cls-105" d="M61.32,74.49s2.09-.46,3.35-1.11l.15,.63s-1.41,1.18-3.2,1.37l-.3-.9Z"/><path class="cls-105" d="M55.25,38.53s-.28,.93-3.5,1.9l-.58,.61s2.42-.29,4.19-2.23l-.11-.27Z"/><path class="cls-105" d="M57.71,45.24s3.66,14.93,3.61,15.67c-.05,.74-.36,4.78-.79,7.02-.44,2.24,1.41,6.45,1.41,6.45l.39-.15s-1.8-4.08-1.47-6.37c.33-2.29,.84-5.42,.76-6.87-.08-1.45-3.61-15.92-3.61-15.92l-.3,.16Z"/></g><path class="cls-93" d="M56.81,45.73s-2.04-3.76-2.97-4.25c0,0,2.17,2.02,2.97,3.61l1.67-.19-1.37,.83h-.3Z"/></g><path class="cls-108" d="M62.66,17.07c-.07,.42-.02,.78-1.11,1.03-.33,.07-.77,.15-1.27,.19h-.07c-1.13,.08-2.6-.06-4.13-.89-2.24-1.22-4-4-3.66-6.34,.46-3.18,4.4-3.97,5.23-3.86,0,0,1.72,.02,2.57,1.07,.11,.14,.21,.28,.3,.44,.1,.16,.19,.34,.27,.52,.44,.97,.71,2.1,1.15,2.73,.21,.29,.42,.5,.61,.7,.39,.4,.72,.73,.87,1.45,.22,1.09-.7,2.55-.76,2.96Z"/><g><path class="cls-121" d="M54.78,15.54s-1.05-.43-1.91,.04c-.87,.47,.1,2.17,1.51,2.43s1.72-.63,1.64-.96c-.08-.33-1.24-1.51-1.24-1.51Z"/><path class="cls-35" d="M55.22,16.32s-.94-.45-1.61-.19c-.67,.27-.02,1.3-.02,1.3,0,0,0-.17,.24-.26,0,0,.49,.32,1.21,.34,0,0-.95-.19-1.17-.55,0,0,.79,.55,1.3,.25,.52-.31,.04-.89,.04-.89Z"/><path class="cls-44" d="M55.42,16.86s-.7,.26-1.01,.03c-.31-.23-.19-.58-.19-.58,0,0,.58-.13,.95,.12,0,0,.22,.2,.25,.43Z"/></g><path class="cls-117" d="M73,12.74s2.62-2.32,3.23-3.81c.61-1.48,.52-3.2,.92-3.7,.39-.49,1.81-.87,2.25-1.08,.44-.21,1.21-1.73,1.36-1.8,.15-.07,.36,0,.36,0,0,0,.21,.7,0,1.39-.21,.69-.93,.87-.93,.87,0,0-.87,.38-1.05,.96,0,0,1.38,.15,2.07,.08,.69-.07,1.21-.21,1.21-.21,0,0,.13,2.24-.56,3.6,0,0-1.26,.62-2.11,.7s-1.55-.11-1.82,.02c-.26,.13-2.01,3.94-4.35,6.12,0,0-.88-2.52-.59-3.14Z"/><path class="cls-127" d="M44.4,39.7c-.01,.42,1,1.28,.96,1.61-.04,.34-.61,.98-1.09,1.56-.48,.58-1.32,2.5-1.32,2.5-.24,.08-.41,0-.41,0,0,0-.28-.71-.12-1.07,.16-.36,.58-.63,.83-1.02,.25-.38,.19-1.08-.08-1.1-.26-.02-1.85,.74-2.52,1.19-.66,.45-.86,.82-1.55,1.16-.69,.34-1.88,.22-1.88,.22h-1.32c-.14-.21-.1-.47-.1-.47,.54-.3,1.18-.74,1.62-1.04l.49-.35c-.32,.12-.75,.15-1.09,.14h-.01c-.31,0-.54-.03-.54-.03v-.25s1.54-.54,2.44-.95c.9-.41,2.76-1.5,3.4-2.19,.64-.69,1.67-2.61,1.67-2.61l3.46-.86s-2.86,3.14-2.87,3.55Z"/><path class="cls-46" d="M65.44,28.47l-.03,.03s-.89,1.88-1.53,4.51c-.34,1.42-.63,3.69-.82,5.49,0,.01,0,.03,0,.04-.16,1.53-.26,2.72-.26,2.72,0,0,.46,.34,.44,.51-.02,.16-.33,.62-.33,.62,0,0-1.13,.87-3.95,.26-2.82-.6-4.13-5.08-4.06-5.39,.07-.31,.3-.34,.3-.34,0,0,.15-.36,.47-.43,.33-.07,1.18-.72,1.67-2.91,.49-2.19-.42-5.07-.42-5.07-.38-1.86-.56-3.96-.63-5.36-.05-.97-.06-1.6-.06-1.6,0,0,1.29-.59,1.37-1,.08-.41-.23-1.05-.23-1.05l.12-.24s.88,.3,1.68,.13c.8-.18,.66-.65,.66-.65l.3,.15,.46,.96,.72-.04s.25,.87,1.31,1.99c.15,.15,.31,.31,.48,.47,1.46,1.34,3.34,3.36,3.49,3.7,.04,.09,.07,.19,.08,.29,.16,1.01-1.02,2.05-1.23,2.22Z"/><path class="cls-59" d="M65.44,28.47l-.03,.03s-2.03-.11-4.1,.39c-2.07,.5-3.3,4.94-3.35,7.72-.04,2.78,.54,4.71,1.88,5.15,0,0-1.74-.07-2.46-3.02,0,0-.21,1.99,1.11,3.02,1.33,1.03,3.94,.57,4.74,0-.02,.16-.33,.62-.33,.62,0,0-1.13,.87-3.95,.26-2.82-.6-4.13-5.08-4.06-5.39,.07-.31,.3-.34,.3-.34,0,0,.15-.36,.47-.43,.33-.07,1.18-.72,1.67-2.91,.49-2.19-.42-5.07-.42-5.07-.38-1.86-.56-3.96-.63-5.36l1.1-1.76s1.88,3.33,4.15,3.89c0,0-1.22,.02-2.41-.51,0,0,.4,1.42,1.15,1.77,.75,.35,3.43-.46,4.2-.46s2.2,.2,2.2,.2c.16,1.01-1.02,2.05-1.23,2.22Z"/><path class="cls-52" d="M76.3,15.36c-.26,.11-.53,0-.53,0-1.54,3.32-5.07,5.22-5.31,5.24-.24,.02-1.15,.07-1.15,.07-2.71,.7-4.72,2.66-4.72,2.66l.77,1.19c-1.94-.93-3.21-2.3-3.95-3.32-.57-.79-.82-1.37-.82-1.37l-.31-.64,.32,.26s.49-.28,.71-.3c.22-.02,.6,.46,.6,.46,2.64-.41,6.49-2.99,6.85-3.32h0c.35-.32,.57-1.1,.57-1.1,.38-.15,.52,0,.52,0,2.22-1.42,5.12-4.91,5.12-4.91,0,0,.22-.87,.39-.87s.4,.32,.4,.32l-.55,.72c-.17,1.07,.55,4.91,1.03,4.52,.48-.38,.43-3.15,.43-3.15,.18,1.73-.12,3.42-.38,3.53Z"/><path class="cls-6" d="M75.77,15.36c-1.54,3.32-5.07,5.22-5.31,5.24-.24,.02-1.15,.07-1.15,.07-2.71,.7-4.72,2.66-4.72,2.66l.77,1.19c-1.94-.93-2.16-2.13-2.9-3.15l-1.16-2.21c.22-.02,.6,.46,.6,.46,0,0,.74,.92,2.22,.94,1.41,.02,4.34-3.87,4.61-4.23-.21,.33-2.54,3.96-3.35,4.79,.49-.47,3.65-3.54,4.46-5.91,0,0-.41,2.27-.31,2.32,.11,.05,1.59,.55,3.18-.55,1.48-1.02,2.15-5.91,2.24-6.6-.04,.56-.23,3.79,.8,4.99Z"/><path class="cls-30" d="M49.35,39.52s.05-.04,.08-.06c-.04,.03-.06,.05-.08,.06Z"/><path class="cls-71" d="M49.43,39.46c.09-.07,.19-.14,.27-.22-.12,.1-.21,.17-.27,.22Z"/><path class="cls-23" d="M56.88,29.67c-1.61,4.65-5.59,8.25-7.02,9.44,4.68-3.92,6.17-10.16,6.17-10.16-.19,.06-.41,.16-.64,.3-2.95,1.7-8.52,8.73-8.71,8.97h0s.46,.44,.35,.68c-.11,.24-1.44,1.35-1.44,1.35-2.99,.7-4.41-.8-4.41-.99,0-.12,.38-.37,.68-.55,.2-.12,.37-.21,.37-.21,0,0,1.65-5.06,4.31-6.86h0c.09-.06,.18-.12,.26-.17,2.81-1.63,5.66-4.65,6.12-5.33,.47-.68,1.02-2.96,1.12-3.27,.11-.31,.65-.8,1.66-1.22,1-.41,.93-1.32,.93-1.32l.62,.82s1.75,2.36-.38,8.52Z"/><path class="cls-78" d="M30.48,64.53s-.26,1.31,2.35,4.64c0,0,5.49-19.56,13.7-27.42,0,0-12.26,7.95-16.06,22.78Z"/><path class="cls-45" d="M60.28,19.19s2.6,2.36,3.89,3.05l-.57,.55s1.49,1.43,1.77,1.73c0,0-3.35-1.19-5.09-5.33Z"/><path class="cls-51" d="M62.56,12.65s-.8,.38-1.43,.18c-.63-.21-1.01-1.62-1.01-1.62,0,0-.28-1.62,.68-1.99,.44,.97,.71,2.1,1.15,2.73,.21,.29,.42,.5,.61,.7Z"/><path class="cls-120" d="M60.11,11.2s-.26-1.92,.55-2.24c0,0,.28,.2,.31,.69,0,0-.18-.19-.4,.08-.22,.27-.39,.52-.46,1.47Z"/><path class="cls-166" d="M57.92,9.85s.16,.43-.08,.94c0,0-.47,.2-1.12,.63-.54,.36-1.04,1.32-1.04,1.32,0,0,.03-.49,.55-1.37,.51-.88,1.59-1.27,1.7-1.52Z"/><path class="cls-111" d="M56.3,13.98c0,.37,.57,.59,1.19,.48,.62-.11,1.13-.44,1.31-.82,.18-.38-.21-1.55-1.01-1.62-.79-.07-1.5,.99-1.5,1.96Z"/><path class="cls-125" d="M60.97,10.82c-.33,.31-.4,1.52,0,1.83,.4,.31,1.1,.07,1.11-.21s-.71-1.99-1.11-1.62Z"/><path class="cls-114" d="M56.3,13.87s.27-1.7,1.35-1.84c.77-.1,1.11,.91,1.11,.91,0,0-.3-1.08-1.04-1.17-.85-.1-1.58,1.01-1.42,2.09Z"/><path class="cls-164" d="M57.25,13.26c-.13-.47,.09-.93,.49-1.05,.4-.11,.83,.18,.96,.65,.13,.47-.09,.93-.49,1.05-.4,.11-.83-.18-.96-.65Z"/><path class="cls-163" d="M57.58,13.16c-.09-.33,.06-.66,.34-.73,.28-.08,.58,.13,.67,.45,.09,.33-.06,.66-.34,.73-.28,.08-.58-.13-.67-.45Z"/><path class="cls-103" d="M60.97,11.9c-.14-.43-.06-.84,.17-.91,.23-.07,.53,.22,.66,.64,.14,.43,.06,.84-.17,.91-.23,.07-.53-.22-.66-.64Z"/><path class="cls-163" d="M61.13,11.85c-.1-.3-.04-.59,.12-.64,.16-.05,.37,.15,.46,.45,.1,.3,.04,.59-.12,.64-.16,.05-.37-.15-.46-.45Z"/><path class="cls-114" d="M60.78,12.34s-.31-1.39,.1-1.81c.44-.45,.94,1.16,.94,1.16,0,0-.46-1.15-.84-.87-.37,.28-.24,1.24-.2,1.53Z"/><path class="cls-19" d="M60.7,14.25s.26-.24,.54-.16c0,0,0,.07-.1,.11,0,0-.21-.04-.44,.04Z"/><path class="cls-131" d="M62.31,16.27s-.39,.54-1.12,.51c-.46-.02-1.04-.47-1.39-.79-.2-.18-.34-.33-.34-.33l.62-.09,1.73-.68,.48-.08c0,.17,0,.63,.01,.98,0,.26,.02,.47,.02,.47Z"/><path class="cls-79" d="M60.28,14.08s.06,.09,.42,.17c.36,.08,.92,0,.92,0,0,0,.58-.36,.47-.99,0,0-.11,.27-.82,.46-.71,.19-.99,.36-.99,.36Z"/><path class="cls-14" d="M60.66,12.58s.28,.3,.57,.38c.29,.08,.82,.09,.93,.18,.11,.09,.13,.94-.72,1.23,0,0,.37-.19,.53-.61,.16-.42,.05-.52,0-.55-.05-.03-.25-.03-.68-.12-.43-.09-.65-.51-.65-.51Z"/><path class="cls-100" d="M62.3,15.8c-.58-.28-2.38,.21-2.38,.21h-.12c-.2-.19-.34-.34-.34-.34l.62-.09,1.73-.68,.48-.08c0,.17,0,.63,.01,.98Z"/><path class="cls-29" d="M59.37,15.3s-.19,.31-.25,.75c0,0,.27-.43,.67-.64,0,0-.11-.2-.42-.11Z"/><path class="cls-113" d="M59.79,15.67l.26,.23,.13,.32s.27,.56,1.05,.56c.78,0,1.05-.73,1.05-.73,0,0-.17-.44-.19-.59l.12-.63s-1.51,.72-2.43,.85Z"/><path class="cls-129" d="M59.37,15.65s.4,.01,.91-.22c.5-.23,1.6-.87,2.04-.71,0,0,.1,.02,.25-.14,0,0,.03,.14-.94,.54-.97,.4-1.47,.62-2.25,.52Z"/><path class="cls-158" d="M59.56,15.67s.8,.9,1.55,.96c.76,.06,1.14-.38,1.17-.58,.03-.19-.17-.9,0-1.24l.17-.11s-.29,.44-.06,1.34c0,0,.11,.26,.06,.58,0,0-.53,.56-1.34,.45-.81-.11-1.65-1.41-1.65-1.41h.11Z"/><path class="cls-42" d="M62.29,14.36s.39,.34,.39,.77c0,0,.1-.59-.12-.88l-.27,.11Z"/><path class="cls-11" d="M60.52,8.7c.1,.16,.19,.34,.27,.52l-.27-.52Z"/><path class="cls-153" d="M54.1,13.77s.46,1.51,.93,2.03c0,0-.43-.07-1.35-.39l.41-1.64Z"/><path class="cls-109" d="M57.84,7.68s.48-1.43-.42-2.24c-.9-.81-3.31-.01-4.49,1.38-1.17,1.39-1.35,1.9-3.94,3.14-2.58,1.24-3.84,2.29-4.45,3.94s-1.52,2.17-1.52,2.17c0,0,1.8-.54,2.42-1.97,.62-1.42,1.49-2.83,2.89-3.24,1.41-.41,2.85-.38,3.32-.56,0,0-2.64,2.15-4.34,3.63s-2.9,3.16-2.27,5.43c.64,2.27,2.47,3.07,2.47,3.07,0,0-1.47-.94-1.99-2.78-.52-1.84,.57-3.48,.57-3.48,0,0-.87,2.4,.02,4.13,.89,1.73,1.87,2.57,1.87,2.57,0,0-.94-1.47-.67-3,.28-1.54,4.27-2.72,5.6-3.59,1.33-.87,1.17-2.99,1.17-2.99l-.11,.38s0-1.01-.1-1.77c0,0-.1,.3-.28,.46,0,0,.13-1.72,.96-2.94,.98-1.43,2.94-1.74,2.94-1.74l-.13-.25,.44,.25Z"/><path class="cls-7" d="M57.05,18.3s1.72,.92,2.77,.42l-.2-.42s-1.38,.08-2.98-.63l.41,.63Z"/><path class="cls-162" d="M54.89,8.96s-1.78,.48-2.52,2.62c-.74,2.14-4.01,3.58-5.23,5.21-1.22,1.63,.33,4.9,.33,4.9,0,0-.57-1.93,1.09-3.42s4.09-2.02,4.76-4.8c.66-2.78,1.08-4.14,1.58-4.51Z"/><path class="cls-147" d="M56.45,8s-.68-1.11-2.25-.82-3,2.34-5.48,2.9c0,0,2.15-.73,4.59-3.28,2.44-2.55,4.22,.88,4.22,.88l-1.08,.32Z"/><path class="cls-157" d="M60.75,12.68s.15-.04,.35,.13c.19,.17,1.05,.51,1.05,.51,0,0-.66-.25-.96-.68,0,0-.25-.06-.44,.04Z"/><path class="cls-165" d="M53.52,15.02s1.04,1.15-1.45,2.9c-2.49,1.74-3.99,3.44-4.14,4.32-.15,.87,.37,1.54-.1,1.91,0,0,.53-.23,.48-.63-.05-.4-.25-.79-.16-1.27,.08-.47,1.29-2.49,3.6-3.73,2.31-1.24,3.01-1.82,2.36-5.25l-.59,1.74Z"/><path class="cls-2" d="M63.78,23.63c-1.16-.46-2.47-2.04-2.47-2.04,0,0-.14,.65-.87,.64-.74-.01-2.85-1.71-2.85-1.71,.08-.41-.23-1.05-.23-1.05l.12-.24s.88,.3,1.68,.13c.8-.18,.66-.65,.66-.65l.3,.15,.46,.96,.72-.04s.25,.87,1.31,1.99l1.16,1.85Z"/><path class="cls-54" d="M61.6,41.51s1.2-.88,1.46-2.98c-.16,1.53-.26,2.72-.26,2.72,0,0-.63,.26-1.2,.26Z"/><path class="cls-10" d="M61.04,28.47s2.39-1.59,3.69-1.7c0,0-.77,.81-1.85,1.24-1.07,.44-1.85,.46-1.85,.46Z"/><path class="cls-63" d="M56.52,21.3s-1.15,1.33-1.62,2.11c0,0,1.77,2.7,1.85,3.74,.08,1.04-.93,2.19-.93,2.19,0,0-.42-4.56-1.2-5.92l1.9-2.13Z"/><path class="cls-32" d="M57.56,19.95s-.83,.19-.92,.3c-.09,.11-.06,.71-.12,1.05-.07,.34-1.65,1.96-1.62,2.11,.03,.15,1.8,3.07,1.85,3.74,.05,.66-2.37,3.07-2.54,4.12-.17,1.05-1.75,5.76-4.23,7.75,0,0,5-3.74,6.82-9.11,1.82-5.37,.38-9.33,.38-9.33l.44-.2s-.02-.3-.05-.43Z"/><path class="cls-62" d="M55.68,28.91l-.29,.34c-2.95,1.7-8.52,8.73-8.71,8.97h0s-.99,.64-2.99,.81c0,0,1.8,.33,3.34-.13-.11,.24-1.44,1.35-1.44,1.35-2.99,.7-4.41-.8-4.41-.99,0,0,.31,.37,2.07,.41,0,0-1.19-.48-1.39-.95,.2-.12,.37-.21,.37-.21,0,0,1.65-5.06,4.31-6.86-.06,.07-1.96,2.16-1.99,2.91-.03,.75,5.77-1.78,7.83-3.21,1.99-1.38,3.23-2.37,3.31-2.43Z"/><path class="cls-13" d="M76.15,9.11s-.09,1.28,1.16,1.66c0,0-.97,1.98-1.74,2.83,0,0-.43-1.42-.35-3.14l.92-1.34Z"/><path class="cls-66" d="M63.06,34.14s-.5,2.66-2.78,4.1c0,0,2.47-.17,2.78-4.1Z"/><path class="cls-69" d="M79.13,5.58s-.64,1.11-1.14,1.36v.7s.81,.15,1.7,.57c.89,.41,1.29,.71,1.29,.71,0,0,.94-.3,1.07-.62,.13-.33-.15-2.72-.15-2.72,0,0-2.02,.18-2.77,0Z"/><g><polygon class="cls-38" points="78.04 13.4 80.08 10.04 79.95 1.17 79.69 1.17 79.52 .07 82.52 .07 82.33 1.17 82.03 1.17 81.8 10.1 83.62 13.49 83.5 14.44 78.14 14.42 78.04 13.4"/><path class="cls-15" d="M80.03,6.78s.62,.58,1.85,.12l-.08,3.21,1.82,3.39-.13,.95-5.36-.02-.1-1.02,2.03-3.36-.05-3.26Z"/><path class="cls-73" d="M80.03,6.78l1.85,.12s-.86,.59-1.85-.12Z"/><path class="cls-76" d="M79.95,1.17h2.07l-.04,1.49s-.4-.99-2.04-1.14v-.35Z"/><path class="cls-9" d="M79.85,.07s.08,.59,.61,.59,.98-.59,.98-.59h-1.59Z"/><path class="cls-9" d="M80.99,7.13s.42-.23,.59-.09c0,0-.16,.19-.59,.09Z"/><polygon class="cls-61" points="80.27 9.57 80.05 1.65 80.46 1.76 80.46 9.57 80.27 9.57"/><path class="cls-9" d="M80.32,7.42c.16,.3,.15-5.27,0-5.22-.18,.07-.15,4.93,0,5.22Z"/><polygon class="cls-70" points="81.43 9.82 81.43 5.61 81.82 5.25 81.63 9.82 81.43 9.82"/><path class="cls-135" d="M83.5,14.51h0l-5.36-.02s-.07-.03-.07-.06l-.1-1.02s0-.03,0-.04l2.02-3.35-.12-8.78h-.19s-.07-.03-.07-.06l-.17-1.1s0-.04,.02-.06c.01-.02,.03-.02,.05-.02h2.99s.04,0,.05,.03c.01,.02,.02,.04,.02,.06l-.19,1.1s-.04,.06-.07,.06h-.23l-.22,8.84,1.81,3.37s0,.03,0,.04l-.13,.95s-.04,.06-.07,.06Zm-5.29-.16l5.23,.02,.11-.86-1.81-3.37s0-.02,0-.04l.23-8.93s.03-.07,.07-.07h.24l.16-.96h-2.82l.14,.96h.2s.07,.03,.07,.07l.13,8.87s0,.03-.01,.04l-2.02,3.34,.09,.93Z"/><path class="cls-5" d="M78.04,13.4s3.75,.39,5.58,.09l-.13,.95-5.36-.02-.1-1.02Z"/></g><path class="cls-119" d="M81.27,5.4c.03-.16,1.47-.52,1.75-.42,.28,.1,.18,.59,.09,.74s-.43,.27-.43,.27c0,0,.27,.45-.02,.8,0,0,.18,.61-.23,.83,0,0,.17,.83-.2,1.13-.37,.3-.55,.16-.67,0s-.05-.65,.16-.72l.31-.11s-.64-.01-.9-.1c-.26-.09-.34-.52-.13-.71,0,0-.4-.11-.4-.37,0-.52,1.07-.74,1.07-.74,0,0-.52,.06-.38-.6Z"/><path class="cls-145" d="M77.14,5.24s.69,.83,1.99,.34c0,0,.27-.59,.8-.84s1-.42,1.02-.49c.02-.07,.54-1.21,.15-1.9,0,0-.25-.12-.45,0,0,0-.62,1.21-1.02,1.59-.4,.38-1.96,.72-2.5,1.29Z"/><path class="cls-8" d="M37.94,42.88c-.32,.12-.75,.15-1.09,.14,.67-.04,2.04-.7,2.28-.82l-1.2,.68h0Z"/><path class="cls-12" d="M37.24,44.74h-1.32c-.14-.21-.1-.47-.1-.47,.54-.3,1.18-.74,1.62-1.04l-.05,.03s.19,.1,.32,.09c.12-.02,1.33-.63,1.48-.71l-1.33,.8s.22,.07,.55,.05c.32-.02,1.77-.81,1.86-.86-.74,.65-2.91,1.4-3.13,1.5-.23,.1,.1,.61,.1,.61Z"/><path class="cls-44" d="M37.24,44.75s-.11-.29,0-.49c0,0,.78-.29,1.7-.78,.92-.49,1.34-.83,1.34-.83,0,0-.81,.6-1.77,.95-.96,.35-1.48,.6-1.48,.6,0,0-.14,.47,.21,.56Z"/><path class="cls-44" d="M41.86,39.88l-.95,.7s.44,.49,1.81,.46c1.37-.03,2.22-.45,2.22-.45l-.16-.2s-1.65,.12-2.92-.51Z"/></g><g><polygon class="cls-43" points="34.55 48.19 35.66 48.8 34.73 50.36 34.55 48.19"/><path class="cls-48" d="M37.44,63.73s-1.23-1.76-3.11-2.72c-.17-.09-.39-.17-.65-.24-2.63-.77-9.39-1.03-10.55-1.35-1.28-.36-7.81-2.16-10.13-2.28-2.32-.12-4.44,.45-4.44,.45v-.4c.02-.82,.12-1.79,.3-2.87,0,0,0-.02,0-.02,.95-5.73,3.9-14.39,6.26-19.1,0-.02,.02-.03,.03-.05,3.07-6.11,10.53-16.82,11.45-17.5,.02-.01,.03-.02,.05-.04,.05-.03,.1-.06,.15-.1h.01c.12-.08,.25-.14,.38-.19,.91-.37,1.99-.39,1.99-.39l1.22,.22h.08l.66,.13,.98,.17,.19,.04,.17,.03,.72,.13-.3,2.33-.73,5.71s-.02,.53-.05,1.44c-.13,4.86-.39,20.5,1.67,23.44,2.45,3.48,3.62,13.17,3.62,13.17Z"/><path class="cls-80" d="M10.62,47.13s3.93-10.64,6.89-13.83c0,0-1.4,11.9-.58,21.15l5.6-19.86,10.85,19.86V24.58l-7.3-5.26s-11.4,13.49-15.47,27.81Z"/><path class="cls-22" d="M8.16,15.81s-2.04-3.62-.28-6.26c0,0,1.22,1.2,1.31,2.67,.1,1.47-1.03,3.6-1.03,3.6Z"/><path class="cls-141" d="M12.08,13.23s-3.77-2.91-4.65-4.09c0,0,.15-1.36-.45-2.19-.14-.2-1.75-.82-2.03-1.1-.27-.28-1.65-1.44-1.65-1.44,0,0,0,.25-.1,.47s.27,.74,.54,1.2c.28,.46,1.39,.65,1.49,.75,.11,.1,0,.51,0,.51,0,0-1.09-.15-1.87-.4-1.28-.42-1.91-.26-1.91-.26,0,0-.29,.51,.17,1.2,0,0,1.06-.24,1.92,.34l-.09,.1s-1.67-.46-2.52-.32c0,0-.17,.2-.32,.51-.15,.32,.13,.96,.13,.96l.32,.23-.15,.31s-.11,.4,.17,1.03c0,0,.75,.28,1.3,.18l-.72,.14s-.4,.27-.02,1.01c0,0,1.55-.37,2.21-.44,.67-.07,1.58,.2,1.98,.23s1.42-.6,1.42-.6c0,0,2.32,3.11,3.39,4.21,0,0,1.33-1.42,1.42-2.53Z"/><path class="cls-26" d="M27.9,16.93l-1.03,2.58-1.46,3.66s-5.77-3.24-7.42-3.21c-1.45,.02-2.29-.02-2.48-.04h-.04c-1.77-.81-3.99-2.71-5.27-3.88h0l-.06-.06c-.49-.45-.83-.79-.95-.9l-.02-.02-.02-.02h0c-.22,.31-.99,.76-.99,.76,0,0,.46-2.23,.25-4.06s-.53-2.21-.53-2.21l.29-.12,.17,.43,.65,.49c1.7,1.27,6.27,4.66,8.02,5.5,2.17,1.04,7.34,1.98,7.34,1.98l.67-.96s1.58,.68,1.88,.63,1.01-.57,1.01-.57Z"/><path class="cls-58" d="M8.34,9.86s1.96,3.33,3,4.55c0,0-1.88-2.91-2.35-4.06l-.65-.49Z"/><path class="cls-57" d="M9.15,15.05s.52-.35,.46-1.13c0,0,.42,1.7,.59,2.13l-1.05-1Z"/><path class="cls-65" d="M36.5,80.32l-.24,.42-1.11-.96c-.75,.15-3.48,1.59-3.48,1.59l-.6,1.11c-.15-.75-.24-2.88-.24-2.88l.55-.68c-.42-5.12-2.59-14.45-2.59-14.45-.19-.26-.34-.51-.47-.74-.4-.72-.54-1.24-.54-1.24-1.2-2.71-2.67-10.17-3.26-13.34-.17-.91-.27-1.46-.27-1.46-2.94,5.46-3.48,15.82-3.48,15.82,.27,1.14,1.02,4.18,1.02,4.18-.09,3.25-1.71,10.95-1.68,11.13,.03,.18,.51,.6,.48,.86-.03,.26-.66,1.96-.66,1.96-2.22-1.53-5.02-1.5-5.02-1.5l-.31,.39s-.1-1.51-.08-2.23c0-.23,.03-.4,.06-.44,.15-.18,.87,0,.87,0,1.17-5.04,1.11-14.74,1.11-14.74-.27-.84-.3-1.41-.3-1.41,0,0-.03-2.37,.9-8.95,.79-5.58,2.08-9.58,2.45-10.66l.1-.3,8.86-.51s.75,4.47,1.59,11.2c.84,6.73,1.68,9.22,1.68,9.22,.84,.84,2.19,2.79,2.19,2.79,1.17,4.56,1.2,12.7,1.2,12.7l.6,.45c.02,.06,.04,.13,.07,.21,.24,.8,.6,2.47,.6,2.47Z"/><path class="cls-98" d="M36.5,80.32l-.24,.42-1.11-.96c-.75,.15-3.48,1.59-3.48,1.59l-.6,1.11c-.15-.75-.24-2.88-.24-2.88l.55-.68c-.42-5.12-2.59-14.45-2.59-14.45-.19-.26-.34-.51-.47-.74,0,0,2.17-.4,2.36-2.2,.19-1.8-2.1-14.69-2.1-14.69-1.05-.71-3.26-.26-3.26-.26l-.74,1.86-.06,.71c-.17-.91-.27-1.46-.27-1.46-2.94,5.46-3.48,15.82-3.48,15.82,.27,1.14,1.02,4.18,1.02,4.18-.09,3.25-1.71,10.95-1.68,11.13,.03,.18,.51,.6,.48,.86-.03,.26-.66,1.96-.66,1.96-2.22-1.53-5.02-1.5-5.02-1.5l-.31,.39s-.1-1.51-.08-2.23l4.35,1.17c-.61-.8-3.41-1.61-3.41-1.61,1.17-5.04,1.11-14.74,1.11-14.74-.27-.84-.3-1.41-.3-1.41,0,0,2.77,.86,3.73-.68,.96-1.54,2.54-13.23,2.54-13.23l-.53-1.46-.41-1.51-1.98-2.74,.1-.3,8.86-.51s.75,4.47,1.59,11.2c.84,6.73,1.68,9.22,1.68,9.22,.84,.84,2.19,2.79,2.19,2.79,1.17,4.56,1.2,12.7,1.2,12.7l-3.23,1.86c1.71-.77,3.14-1.09,3.9-1.21,.24,.8,.6,2.47,.6,2.47Z"/><path class="cls-156" d="M30.25,3.01s-1.65-.39-3,.93c0,0,.55-.13,1.23,0,0,0-1.02,1.29-.58,2.99,0,0,1.03-1.55,1.84-1.73l.51-2.19Z"/><path class="cls-84" d="M19.72,41.8l-.1,.3s2.58,.76,5.1,.86c2.63,.1,4.13,0,4.13,0l-.27-1.67-8.86,.51Z"/><path class="cls-99" d="M28.32,63.73l.54,1.04s1.98-.61,2.45-1.95c0,0-2.11,.97-2.99,.91Z"/><polygon class="cls-95" points="16.26 61.71 16.57 63.12 17.73 63.45 19.09 63.09 16.26 61.71"/><polygon class="cls-88" points="24.25 47.69 24.01 46.58 22.01 46.07 22.54 47.8 22.92 50.92 24.25 47.69"/><g class="cls-101"><path class="cls-105" d="M26.5,41.77s1.7,3.27,1.91,3.47,.81,.26,.81,.26l.05,.37s-.9-.1-1.29-.42c-.39-.32-1.77-3.6-1.77-3.6l.29-.08Z"/><path class="cls-105" d="M28,41.44s.3,1.55,.48,2.6,1.89,17.17,2.1,17.93c.21,.76,2.36,1.94,2.92,3.06s1.68,9.99,1.68,9.99l-.18-3.5s-.91-6.42-1.19-6.9c-.29-.48-2.75-2.64-2.85-3.04-.1-.4-2.22-17.63-2.32-18.5-.1-.87-.39-1.71-.39-1.71l-.26,.09Z"/><polygon class="cls-105" points="19 44.07 20.62 41.93 20.95 41.99 18.86 44.55 19 44.07"/></g><path class="cls-47" d="M33.49,18.13l-.28,1.85-1.07,7.15c-.12,.17-.3,.52-.5,.99-.28,.65-.62,1.53-.97,2.5-1.07,2.94-2.25,6.62-2.27,6.75-.03,.19,.66,.95,.68,1.09,.02,.14-.13,.73-.3,.88-.16,.15,0,1.3,0,1.3l-.21,.21v.45c-.56,.18-1.12,.33-1.69,.44h0c-3.95,.8-7.76,.05-7.72-.11,.05-.18,.61-.93,.61-.93,0,0-.69-.69-.6-.93,.09-.24,1.32-1.83,1.32-1.83,0,0,.04-1.13,.14-2.74v-.02h0s0-.03,0-.03c.09-1.52,.21-3.46,.39-5.3,.17-1.83,.38-3.55,.64-4.68,.06-.26,.12-.49,.19-.68,.47-1.38,2.05-3.25,3.47-4.74,.32-.34,.64-.66,.94-.95,.94-.93,1.65-1.57,1.65-1.57h1.19l1.04,.04,1,.03,.89,.02h.43l.68,.03h0l.34,.79Z"/><path class="cls-137" d="M33.47,14.07s-1.54,2.69-2.08,4.21c0,0-2.04,1.8-3.48,2,0,0-.08-1.02,.18-1.54,0,0,.82-1.37,1.36-3l4.03-1.67Z"/><path class="cls-27" d="M29.18,16.45s1.61,.26,3.36-.68l.86-1.58-4.05,1.83-.16,.43Z"/><path class="cls-148" d="M36.45,8.63c0,.35-.04,.7-.14,1.04-.31,1.05-.96,2.23-1.73,3.24-.71,.93-1.53,1.71-2.27,2.12h0c-2.05,1.12-4.7,1.31-5.3,.9-.16-.11-.25-.63-.33-.99-.08-.36-.77-1.59-.67-2.8,.1-1.2,.72-1.94,1.06-2.52h0c.32-.56,.61-3.05,1.71-4.16l.02-.02c.07-.07,.14-.13,.22-.19,.66-.5,1.89-.68,2.95-.73,1.02-.05,1.88,0,1.88,0,.55,.13,1.17,.63,1.67,1.33,.19,.26,.36,.55,.5,.86h0c.14,.31,.26,.64,.34,.98,.07,.3,.11,.61,.12,.92Z"/><path class="cls-152" d="M20.19,84.36c0,.17-.01,.27-.01,.27l-11.41,.14s.2-1.26,.48-1.44c.28-.18,1.82-.32,3.3-1.12,.31-.17,.59-.35,.84-.54h0s.07-.06,.15-.12c.87-.69,1.37-1.4,1.37-1.4,2.56-.4,5.02,1.5,5.02,1.5,.28,.9,.28,2.16,.26,2.71Z"/><path class="cls-140" d="M39.44,84.65h-8.8c.18-1.65,.85-3.19,.85-3.19,1.42-1.16,3.99-1.84,3.99-1.84l.44,.47c.1,.21,.22,.42,.35,.61,1.04,1.52,2.86,2.31,2.86,2.31,.45,.71,.31,1.64,.31,1.64Z"/><path class="cls-116" d="M8.89,84.18s4.06,.18,5.18,.18c1.12,0,2.72-.55,3.2-.61,.48-.06,2.92-.12,2.92-.12v1l-11.42,.14,.12-.59Z"/><path class="cls-151" d="M30.9,83.26s1.39,.61,1.63,.94h.68s4.97-.89,6.2-.47c0,0,.09,.48,.04,.92h-8.8s.17-1.07,.25-1.39Z"/><path class="cls-94" d="M20.19,84.36c-.11-.02-1.84-.43-2.49-.45-.66-.02-2.64,.46-3.42,.45-.7,0-3.17-.09-3.69-.11,.51,.02,2.91,.08,3.72-.05,.9-.15,2.73-.66,2.67-1.14-.06-.48-1.35-2.12-1.92-2.19-.44-.06-1.19,.45-1.52,.68,.87-.69,1.37-1.4,1.37-1.4,2.56-.4,5.02,1.5,5.02,1.5,.28,.9,.28,2.16,.26,2.71Z"/><path class="cls-91" d="M32.53,84.2h.68l1.17-.19-.11,.64h-3.63c.18-1.65,.85-3.19,.85-3.19,1.42-1.16,3.99-1.84,3.99-1.84l.44,.47c.1,.21,.22,.42,.35,.61v.05s-1.44,.44-2.72,1.52c-1.28,1.08-1.02,1.93-1.02,1.93Z"/><path class="cls-136" d="M34.21,12.49s.86-.72,1.82-.54c.96,.18,.56,2.09-.7,2.76s-1.82-.08-1.84-.42c-.02-.34,.72-1.8,.72-1.8Z"/><path class="cls-159" d="M35.35,11.96s.28-.67,1.1-1.44c.82-.77,1.54-2.41,1.38-3.33,0,0,.78,.22,1.08,.76,0,0-.07-.55-1.03-1.14-.96-.59-1.22-.92-1.22-.92,0,0,.98-1.44,1.68-1.7,0,0-.99,.23-1.37,.62-.38,.39-.42,.99-.42,.99,0,0-.45-.41-.81-1.61-.36-1.2-1.41-2.6-1.91-2.91,0,0,.48,.98,.35,1.67,0,0-.45-1.25-1.44-1.78-1.16-.62-2.94-.44-2.94-.44l1.11,1.79s.59-.15,1.08,.36c.5,.51,.72,1.01,.72,1.01l-1.59-1.2s-1.82,.03-2.18,.77c-.36,.74-.46,2.35,.77,3.14,0,0,1.59-1.31,2.27-1.48,.68-.17,1.51,.41,1.51,.41,0,0-1.42-.05-2.51,.78,0,0,2.12-.54,4.05-.35,0,0,.53,.92,.42,1.62-.11,.71-.57,1.49-.57,1.49,0,0,.25,.98,.15,1.73-.1,.75-.91,1.87-.91,1.87,0,0,.71-.69,1.24-.72Z"/><path class="cls-56" d="M30.67,30.61c-1.07,2.94-2.25,6.62-2.27,6.75-.03,.19,.66,.95,.68,1.09,.02,.14-.13,.73-.3,.88-.16,.15,0,1.3,0,1.3l-.21,.21s-2.47,.13-5.6,.19c-3.12,.06-3.2-.34-3.2-.34,0,0-.69-.69-.6-.93,0,0,2.28,.43,3.56,.37,1.28-.06,3.88-1.04,3.88-1.04-1.77,.12-5.2,.3-5.4,.1-.19-.19-.69-1.19-.72-1.26,.06,.05,1.01,.94,1.32,.98,.32,.04,3.6,.1,4.56-.68,.96-.78,2.36-5.02,2.36-5.96,0-1.25-1.39-5.78-1.39-5.78l1.44,.63,2.85,.99c-.28,.65-.62,1.53-.97,2.5Z"/><path class="cls-31" d="M29.8,.74s1.91-.03,2.72,.6c.81,.63,1.07,1.85,1.07,1.85l-2.83-.91-.96-1.55Z"/><path class="cls-34" d="M33.84,1.29s.87,1.01,1.14,2.01c.27,1.01,.2,1.54,.2,1.54l-.93-.99s.37-.93-.41-2.57Z"/><path class="cls-126" d="M35.49,5.23s-1.68-2.27-3.23-2.89c-1.05-.42-2.84,.03-2.84,.03,0,0-.84,2.23-.07,3.84l.25-.7s-.03,.42,.16,.91c0,0,1.42-1.64,2.32-1.78,.9-.14,3.41,.59,3.41,.59Z"/><path class="cls-3" d="M37.05,70s-1.68-3.74-3.38-9.23c-1.39-4.5-2.8-10.17-3.3-15.93-.42-4.8-.17-9.82,.3-14.22,.32-3.07,.76-5.83,1.15-8.02v-.08c.56-3,1.03-4.87,1.03-4.87,0,0-.14-.05-.36-.1-.05-.01-.11-.03-.17-.04-.06-.01-.12-.02-.18-.03v-.02l-.11-.15-.06-.09s.14,0,.36,.01h.12c.21,.02,.46,.05,.7,.11h0c.29,.06,.55,.16,.67,.31,.22,.3,.2,.89,.44,1.13,.24,.24,1.12,.04,1.52,.2,.4,.16,.22,1,.22,1,0,0-1.14,3-1.91,6.13-.05,.19-.09,.39-.14,.58h0c-.19,.82-.35,1.63-.45,2.39-.52,3.87,.06,19.54,3.56,30.11,0,0,.94,6.3,0,10.81Z"/><path class="cls-17" d="M30.68,36.67s-.05-3.46,.57-6.4c.62-2.94,2.24-6.72,2.24-6.72,0,0-.06-1.99-.95-2.91l2.46-1.42-.59-.36,.87,.46s-1.97,1.07-2.22,1.78c0,0,.5,1.61,.53,2.63,.03,1.02-2.54,5.61-2.91,12.94Z"/><path class="cls-104" d="M35.7,5.03s-.14,1.19,.38,1.9c.52,.71,2.06,.35,2.71,.74,0,0-.15-.86-1.24-1.26-1.09-.4-1.86-1.39-1.86-1.39Z"/><path class="cls-74" d="M25.32,19.74v.54s-3.8,7.21-3.92,8.56c-.12,1.31-.73,6.05-.76,6.34h0v-.04l.39-5.3c.17-1.83,.38-3.55,.64-4.68,.06-.26,.12-.49,.19-.68,.48-1.38,2.05-3.25,3.47-4.74Z"/><path class="cls-50" d="M33.94,26.69s-.47,3.63,.89,5.57c0,0,.4-1.72,.28-3.4-.12-1.68-1.17-2.17-1.17-2.17Z"/><g><path class="cls-107" d="M36.68,29.64c-.65-.09-1.38-.26-2.05-.43-1.27-.34-2.35-.71-2.35-.71,0,0-1.6,.47-1.94,.24-.34-.24-1.16-1.27-1.16-1.27-.21,.2-.48,.33-.48,.33-.93-.39-1.46-1.46-1.49-1.53h0c.04-.33,.54-.79,.62-.88,.09-.09,.33-.47,.41-.58,.07-.1,.31-.66,.46-.81,.16-.15,.47-.37,.47-.37,.13-.4,.3-.62,.3-.62,1.07-.05,1.9,.4,1.9,.4,.38,1.43,1.25,3.23,1.25,3.23,.37,.22,.87,.29,1.27,.3,.42,.01,.74-.04,.74-.04,.63,.33,2.01,2.76,2.01,2.76Z"/><path class="cls-82" d="M34.94,27.92l-.31,1.29c-1.27-.34-2.35-.71-2.35-.71,0,0-1.6,.47-1.94,.24-.34-.24-1.16-1.27-1.16-1.27-.21,.2-.48,.33-.48,.33-.93-.39-1.46-1.46-1.49-1.53,.81,.43,2.26,.45,2.26,.45l.06-.52,.89-1.37s.4-.62,.47-.7c.07-.07,.49-.73,.49-.73,.38,1.43,1.25,3.23,1.25,3.23,0,0-.99,.77-.65,1.16,.34,.39,1.45,.32,1.45,.32,.37-.27,.47-1.18,.47-1.18l1.02,.99Z"/><path class="cls-44" d="M29.19,27.46l-.91-.6s.67,.56,.71,.76c0,0,.12-.03,.21-.16Z"/><polygon class="cls-44" points="29.34 23.26 29.43 23.54 29.19 23.62 29.34 23.26"/></g><path class="cls-67" d="M44.52,29.93c-.14,.36-3.78,1.3-8.25,1.04,0,0-.78,.94-1.44,1.3,0,0-.2-4.02-.89-5.57l.23-.27s.01,.1,.86,.22c.61,.09,1.09,.04,1.3,0h.02c.07-.01,.1-.02,.1-.02,0,0-1.02-.63-2.52-.5,0,0-.39-2.41,0-3.7,.57-1.9,2.05-2.44,2.05-2.44,0,0,1.14,1.04,1.48,1.44,.34,.4,1.1,1.94,1.76,2.5,.4,.34,1.51,.95,2.48,1.54h0c.62,.38,1.19,.76,1.48,1.06,.74,.76,1.46,3.04,1.32,3.4Z"/><path class="cls-24" d="M42.85,27.12c-1.24-1.02-3.71-1.52-3.71-1.52l-.32,.66c-.66,.2-2.28,.36-2.48,.38,.07,0,.1-.02,.1-.02,0,0-1.02-.63-2.52-.5,0,0-.39-2.41,0-3.7,.57-1.9,2.05-2.44,2.05-2.44,0,0,1.14,1.04,1.48,1.44,.34,.4,1.1,1.94,1.76,2.5,.4,.34,1.51,.95,2.48,1.54h0c.78,.89,1.14,1.66,1.14,1.66Z"/><path class="cls-28" d="M28.57,17.22h-.67s-7.65,8.3-12.87,19.13c-5.22,10.83-6.49,21.23-6.49,21.23v-1.6s2.4-15.76,10.81-28.31c0,0,1.32-3.42,1.74-4.11,.42-.69,3.6-3.57,3.6-3.57h-.84s2.1-2.26,4.04-3.04h1.28l-.12,.28h-.49Z"/><path class="cls-53" d="M32.33,17.23s0,.06,0,.08c0,.06,0,.12-.01,.18,0,0,0,0,0,.02-.01,.21-.05,.45-.11,.71,0,0-.97,.91-2.4,1.9h0c-.34,.24-.7,.47-1.08,.71-.73,.44-1.53,.87-2.35,1.19,0,0-.04-.74,.21-1.63,.06-.21,.13-.43,.23-.65,.12-.28,.28-.57,.48-.84l.21-.53,.11-.29,.17-.43,.84-.43h0l.55-.28-.12,.28h0c-.04,.14-.47,1.34-.88,1.96-.06,.09-.1,.14-.1,.14l-.18,.84s1.19-.94,1.97-2.36l.02-.03c.09-.16,.17-.33,.25-.51l.02-.04,.32-.05,1.47-.23,.03-.07,.12-.24h.2c0,.05,.03,.27,.02,.6Z"/><path class="cls-16" d="M26.38,20.53l1.04-.74,.52-2,.13-.15s-1.12,.75-1.69,2.88Z"/><path class="cls-77" d="M32.54,18.13c-.63,1.02-2.85,2.51-2.85,2.51,.05-.18,.09-.35,.12-.52h0c.35-1.56,.35-2.75,.35-2.77l-.28,.45,.02-.03,.25-.51,.02-.04c.06-.02,.15-.04,.24-.06,.47-.11,1.23-.23,1.58-.28,.12-.02,.19-.03,.19-.03l.13-.21h0c.06,.16,.1,.38,.14,.61,0,.03,0,.05,.01,.08,0,.07,.02,.14,.03,.2v.02c.04,.32,.05,.59,.05,.59Z"/><path class="cls-68" d="M26.38,20.53s.29-1.9,1.51-3.03l1.29-.57-1.11,.72s-1.29,1.44-1.69,2.88Z"/><path class="cls-60" d="M28.21,17.56l-.13,1.76s.76-.99,1.1-2.39l-.97,.62Z"/><path class="cls-133" d="M30.39,9.78c0,.26,.21,.33,.64,.3,.56-.03,1.1,.04,1.58,.11,.13-.15-.21-1.5-.96-1.62-.81-.13-1.26,.76-1.26,1.2Z"/><path class="cls-132" d="M27.25,9.48c.03,.07,.32,.1,.61,.1,.17,0,.3,.16,.44,.05,.38-.29,.19-1.69-.18-1.76-.35-.06-.92,.97-.88,1.61Z"/><path class="cls-143" d="M30.71,8.98s.3-.51,.57-.61c.27-.1,1.15,.16,1.34,1.41,0,0-.42-1.15-1.1-1.22-.51-.05-.81,.41-.81,.41Z"/><path class="cls-102" d="M28.3,7.23s.46,.56,.41,1.54c-.04,.99-.82,1.16-.82,1.16,0,0,.65-.06,.87-.99,.22-.93,0-1.88,0-1.88l-.46,.16Z"/><path class="cls-128" d="M31.4,6.54s-.31,.5-.17,.96c0,0,1.03,.17,1.75,.68,.19,.14,.44,.39,.44,.39,0,0,.07-.44-.28-.9-.16-.21-1.38-1.09-1.74-1.13Z"/><path class="cls-123" d="M27.81,7.18s.18-.08,.48,.05c.22,.09,.46,.47,.46,.47,0,0,.1-.56-.05-.92,0,0-.19-.43-.55-.42,0,0-.41,.46-.35,.83Z"/><path class="cls-149" d="M31.85,9.67c-.1,.35-.47,.56-.82,.45-.35-.1-.55-.47-.45-.83,.1-.35,.47-.56,.82-.45,.35,.1,.55,.47,.45,.83Z"/><path class="cls-163" d="M31.38,9.55c-.07,.25-.31,.4-.53,.33-.22-.06-.34-.32-.26-.56,.07-.25,.31-.4,.53-.33,.22,.06,.34,.32,.26,.56Z"/><path class="cls-1" d="M28.27,8.91c-.1,.35-.38,.58-.63,.51-.24-.07-.36-.42-.25-.77,.1-.35,.38-.58,.63-.51,.24,.07,.36,.42,.25,.77Z"/><path class="cls-163" d="M27.89,8.83c-.06,.22-.23,.36-.37,.32-.14-.04-.2-.25-.14-.46,.06-.22,.23-.36,.37-.32,.14,.04,.2,.25,.14,.46Z"/><path class="cls-105" d="M31.97,9.69c0,.07-.06,.12-.12,.12s-.12-.06-.12-.12,.06-.12,.12-.12,.12,.06,.12,.12Z"/><path class="cls-105" d="M28.28,9.07c0,.07-.06,.12-.12,.12s-.12-.06-.12-.12,.06-.12,.12-.12,.12,.06,.12,.12Z"/><path class="cls-143" d="M27.55,8.26s.25-.48,.45-.55c.21-.08,.7,.79,.49,1.59,0,0,.13-1.14-.49-1.31,0,0-.23-.12-.45,.27Z"/><path class="cls-14" d="M30.39,10.12s1.12-.36,2.15,.14c0,0-1.31-.14-2.15-.14Z"/><path class="cls-14" d="M27.17,9.57s.15-.2,.56-.15c.41,.05,.43,.3,.43,.3v.07s-.44-.2-.99-.22Z"/><path class="cls-14" d="M27.01,10.61s-.14,.41,.65,.93c0,0,.27,.11,.57,0,0,0,.27-.2,.53-.2s.44,.05,.44,.05c0,0,.23-.07,.37-.29,0,0-1.43-.03-2.55-.49Z"/><path class="cls-102" d="M28.38,11.45s.31-.21,.72-.08c0,0-.44,.11-.72,.08Z"/><path class="cls-14" d="M27.01,11.92s-.27,.17-.3,.25c0,0,.16,.04,.24,.16v-.08s.78,.24,1.78,.29c1,.04,1.63-.31,1.63-.31l.15-.1s.13,.02,.19,.13c0,0-.1-.36-.31-.51l-.12,.13,.08,.12s-.42,.79-2.32,.67c-1.28-.08-1.02-.75-1.02-.75Z"/><path class="cls-115" d="M27.01,10.61s.47-.82,1.43-.73c.96,.09,1.12,1.22,1.12,1.22,0,0-1.68,.11-2.55-.49Z"/><path class="cls-130" d="M30.52,12.04c-.08,.11-.45,.56-.69,.89h0c-.06,.08-.11,.16-.15,.22-.21,.32-.86,.99-1.34,1.03-.49,.05-.94-.05-1.01-.23-.04-.09-.06-.34-.09-.59-.02-.24-.04-.49-.06-.6-.05-.28-.34-.56-.34-.56l.04-.05s.22,.06,.38,.11c.16,.05,.36,.14,.78,.2,.42,.06,1.62-.07,2.03-.2,.3-.1,.42-.18,.45-.22Z"/><path class="cls-85" d="M30.52,12.04c-.08,.11-.45,.56-.69,.89h0s-.3-.24-1.45,0c-.76,.16-1.04,.33-1.14,.43-.02-.24-.04-.49-.06-.6-.05-.28-.34-.56-.34-.56l.04-.05s.22,.06,.38,.11c.16,.05,.36,.14,.78,.2,.42,.06,1.62-.07,2.03-.2,.3-.1,.42-.18,.45-.22Z"/><path class="cls-113" d="M27.37,12.3s.12,.33,.29,.47c0,0,.96,.16,1.78-.39,0,0-.89,.12-1.36,.07-.44-.04-.71-.16-.71-.16Z"/><path class="cls-113" d="M27.43,14.07s.08-.09,.35-.12c.27-.04,.9,0,.93,0s.08,.06,.08,.06c0,0-.18,.19-.64,.19s-.72-.13-.72-.13Z"/><path class="cls-40" d="M34.02,13.37s.76-.71,1.47-.66c.71,.05,.41,1.23,.41,1.23,0,0-.06-.16-.31-.17,0,0-.36,.45-1.04,.68,0,0,.84-.47,.94-.87,0,0-.58,.76-1.16,.62-.58-.13-.31-.83-.31-.83Z"/><path class="cls-44" d="M34,13.93s.74,.04,.96-.27c.23-.32,0-.61,0-.61,0,0-.58,.05-.86,.4,0,0-.15,.25-.1,.48Z"/><path class="cls-106" d="M29.05,9.29s-.16-.03-.34,.16c-.18,.19-1.01,.6-1.01,.6,0,0,.64-.31,.91-.76,0,0,.25-.09,.44,0Z"/><path class="cls-20" d="M29.32,6.15s.17-1.78,.47-2.39c.3-.61,1.93-1.36,3.25-.79,1.32,.56,2.15,1.88,2.15,1.88,0,0-1.34-1.67-2.27-1.81-.92-.14-1.85,.32-2.31,.82-.45,.5-1.3,2.29-1.3,2.29Z"/><path class="cls-18" d="M35.77,18.98c-1.96,1.46-2.56,1-2.56,1h-.88l-.49,2.54v.08l-3.11-1.77-1.53-.87-.38-.22-.1-.06-.04-.02-.06-.03-.52-.3,.16-.54,.34-1.14,.6-.32,.71-.39h1.28s-.09,.33-.09,.34c-.04,.13-.36,1.16-.91,1.9-.07,.09-.1,.14-.1,.14l-.18,.84s1.19-.94,1.97-2.36l.02-.03c.09-.16,.17-.33,.25-.51l.02-.04,.24-.06,1.58-.28h0l.12-.24h.2c.06,.16,.1,.38,.14,.61,.21,.02,.46,.05,.7,.1h0c.29,.06,.55,.16,.67,.31,.22,.3,.2,.89,.44,1.13,.24,.24,1.12,.04,1.52,.2Z"/><path class="cls-37" d="M26.89,41.74c.95-.4,1.69-.89,1.69-.89v.45c-.56,.18-1.12,.33-1.69,.44Z"/><polygon class="cls-75" points="26.89 29.93 24.22 35.19 22.54 36.67 25.06 35.19 26.89 29.93"/><path class="cls-41" d="M36.27,30.97l.29-.39s.33,.35,2.81,.39c0,0-1.56,.11-3.11,0Z"/><path class="cls-39" d="M34.52,26.69s1.62,1.05,3.3,1.68c1.68,.64,5.28,.7,5.28,.7,0,0-2.66-.49-4.8-1.19-2.14-.7-3.78-1.19-3.78-1.19Z"/><path class="cls-139" d="M31.6,49.58s2.55,.53,4.06-.78v2.12s-2.03,.56-4.02,0l-.04-1.34Z"/><polygon class="cls-96" points="31.64 50.92 32.98 56.7 35.19 56.94 35.28 56.1 35.04 56.68 33.63 56.37 31.64 50.92"/><path class="cls-33" d="M35.66,50.92l-.47,5.4-.15,.37-1.42-.32-1.99-5.45s1.99,.38,4.02,0Z"/><path class="cls-55" d="M34.55,48.19l-.56,.81-2.39,.58s1.74,.38,3.14-.23l-.18-1.16Z"/><g><polygon class="cls-21" points=".07 16.41 2.11 13.05 1.98 4.18 1.72 4.18 1.55 3.08 4.54 3.08 4.36 4.18 4.05 4.18 3.83 13.11 5.65 16.5 5.52 17.45 .17 17.43 .07 16.41"/><path class="cls-64" d="M2.06,9.79s.62,.58,1.85,.12l-.08,3.21,1.82,3.39-.13,.95-5.36-.02-.1-1.02,2.03-3.36-.05-3.26Z"/><path class="cls-73" d="M2.06,9.79l1.85,.12s-.86,.59-1.85-.12Z"/><path class="cls-76" d="M1.98,4.18h2.07l-.04,1.49s-.4-.99-2.04-1.14v-.35Z"/><path class="cls-9" d="M1.88,3.08s.08,.59,.61,.59,.98-.59,.98-.59H1.88Z"/><path class="cls-9" d="M3.02,10.13s.42-.23,.59-.09c0,0-.16,.19-.59,.09Z"/><polygon class="cls-49" points="2.29 12.58 2.07 4.66 2.49 4.77 2.49 12.58 2.29 12.58"/><path class="cls-9" d="M2.35,10.43c.16,.3,.15-5.27,0-5.22-.18,.07-.15,4.93,0,5.22Z"/><polygon class="cls-70" points="3.46 12.83 3.46 8.62 3.85 8.26 3.65 12.83 3.46 12.83"/><path class="cls-135" d="M5.52,17.52h0l-5.36-.02s-.07-.03-.07-.06L0,16.42s0-.03,0-.04l2.02-3.35-.12-8.78h-.19s-.07-.03-.07-.06l-.17-1.1s0-.04,.02-.06c.01-.02,.03-.02,.05-.02h2.99s.04,0,.05,.03c.01,.02,.02,.04,.02,.06l-.19,1.1s-.04,.06-.07,.06h-.23l-.22,8.84,1.81,3.37s0,.03,0,.04l-.13,.95s-.04,.06-.07,.06Zm-5.29-.16l5.23,.02,.11-.86-1.81-3.37s0-.02,0-.04l.23-8.93s.03-.07,.07-.07h.24l.16-.96H1.64l.14,.96h.2s.07,.03,.07,.07l.13,8.87s0,.03-.01,.04L.14,16.43l.09,.93Z"/><path class="cls-4" d="M.07,16.41s3.75,.39,5.58,.09l-.13,.95-5.36-.02-.1-1.02Z"/></g><path class="cls-160" d="M2.7,7.35c-.24-.35-.82-.6-1.22-.67,0,0-.88,.44-.09,1.35,0,0,.92,.35,1.32,.2,0,0,.37-.41,0-.88Z"/><path class="cls-110" d="M.95,8s-.48,.29-.44,.81c.04,.51,.32,.81,.32,.81,0,0,.69,.29,1.78,.24,0,0,.26-.32,.04-.66-.22-.34-1.71-.89-1.71-.89,0,0-.08-.17,.01-.31Z"/><path class="cls-150" d="M1.1,11.04s.62,.13,1.25,0c0,0,.36-.17,.08-.86,0,0-1-.35-1.42-.33,0,0-.31,.53,.09,1.19Z"/><path class="cls-122" d="M1.43,11.31s-.32,.64,.24,1.05c0,0,.82-.15,.79-.58-.04-.57-1.02-.48-1.02-.48Z"/><path class="cls-138" d="M6.98,6.95s-.5,.79-1.73,.39c0,0,0-.44-.09-.51-.09-.07-.88-.23-1.3-.52-.42-.28-.84-1.35-.84-1.35,0,0,.08-.43,.3-.56,0,0,.98,.81,1.27,.95,.37,.18,2.21,1.24,2.4,1.59Z"/></g></g></g></g></g></svg>